<svg width="24" height="24" viewBox="0 0 24 24" fill="none" xmlns="http://www.w3.org/2000/svg">
<path fill-rule="evenodd" clip-rule="evenodd" d="M15.3524 12.0565C16.201 12.9427 17.3604 13.5086 18.705 13.5086C19.1756 13.5086 19.6247 13.4374 20.0458 13.3075V18.034C20.0458 20.2557 18.244 22.0565 16.0224 22.0565H7.97744C5.75577 22.0565 3.955 20.2557 3.95498 18.034V13.3075C4.37614 13.4374 4.82512 13.5086 5.2958 13.5086C6.64022 13.5086 7.79884 12.9426 8.64736 12.0565C9.49594 12.9428 10.6552 13.5086 11.9999 13.5086C13.3446 13.5086 14.5038 12.9428 15.3524 12.0565ZM15.6737 16.6581C15.4692 16.2952 15.0092 16.1664 14.6464 16.3709C13.5027 17.0157 12.7231 17.2777 11.9999 17.2791C11.278 17.2805 10.498 17.0229 9.35537 16.3729C8.99333 16.1671 8.533 16.2931 8.32705 16.6551C8.12107 17.0172 8.24817 17.4775 8.61025 17.6834C9.83707 18.3813 10.8916 18.7901 12.0028 18.7879C13.1127 18.7858 14.1656 18.3744 15.3876 17.6854C15.7503 17.4808 15.8782 17.0208 15.6737 16.6581ZM16.7958 1.94321C18.6235 1.94323 20.2674 3.19528 20.9462 5.10434L21.7079 7.24789C21.9387 7.89688 22.0979 8.59171 21.9296 9.25961C21.5309 10.8413 20.2377 11.9998 18.704 11.9998C16.8528 11.9996 15.3524 10.311 15.3524 8.22836C15.3524 10.3112 13.8513 11.9998 11.9999 11.9998C10.1485 11.9998 8.64736 10.3112 8.64736 8.22836C8.64736 10.311 7.14702 11.9996 5.2958 11.9998C3.76213 11.9998 2.46889 10.8413 2.07021 9.25961C1.90191 8.5917 2.06114 7.89688 2.29189 7.24789L3.05459 5.10434C3.73336 3.1953 5.37637 1.94325 7.204 1.94321H16.7958Z" fill="#009859"/>
</svg>
