<svg width="24" height="24" viewBox="0 0 24 24" fill="none" xmlns="http://www.w3.org/2000/svg">
<path d="M14.0522 4.68527C14.0519 4.19578 13.6153 3.71437 12.9697 3.71429H11.0303C10.3847 3.71437 9.94806 4.19578 9.94779 4.68527C9.94779 6.49114 8.0163 7.63997 6.43036 6.77679L6.32769 6.71987C5.78155 6.42254 5.1047 6.61811 4.81894 7.08482L3.8492 8.66853C3.58354 9.10294 3.71855 9.68266 4.23754 9.9654C5.8493 10.8429 5.8493 13.1571 4.23754 14.0346C3.71855 14.3173 3.58354 14.8971 3.8492 15.3315L4.81894 16.9152C5.1047 17.3819 5.78155 17.5775 6.32769 17.2801L6.43036 17.2232C8.0163 16.36 9.94779 17.5089 9.94779 19.3147C9.94806 19.8042 10.3847 20.2856 11.0303 20.2857H12.9697C13.6153 20.2856 14.0519 19.8042 14.0522 19.3147C14.0522 17.5089 15.9837 16.36 17.5696 17.2232L17.6723 17.2801C18.2184 17.5775 18.8953 17.3819 19.1811 16.9152L20.1508 15.3315C20.4165 14.8971 20.2815 14.3173 19.7625 14.0346C18.1507 13.1571 18.1507 10.8429 19.7625 9.9654C20.2815 9.68266 20.4165 9.10294 20.1508 8.66853L19.1811 7.08482C18.8953 6.61811 18.2184 6.42254 17.6723 6.71987L17.5696 6.77679C15.9837 7.63997 14.0522 6.49115 14.0522 4.68527ZM14.5711 12C14.5711 10.5798 13.42 9.42857 12 9.42857C10.58 9.42858 9.42888 10.5798 9.42888 12C9.42888 13.4202 10.58 14.5714 12 14.5714C13.42 14.5714 14.5711 13.4202 14.5711 12ZM16.2852 12C16.2852 14.3669 14.3666 16.2857 12 16.2857C9.63335 16.2857 7.7148 14.3669 7.7148 12C7.7148 9.63307 9.63335 7.71429 12 7.71429C14.3666 7.71429 16.2852 9.63307 16.2852 12ZM15.7663 4.68527C15.7663 5.19064 16.3067 5.51283 16.7505 5.27121L16.8532 5.21429C18.1619 4.50184 19.8576 4.90648 20.6429 6.18862L21.6127 7.77232C22.4176 9.08696 21.9171 10.7439 20.5816 11.471C20.1626 11.6991 20.1626 12.3009 20.5816 12.529C21.9171 13.2561 22.4176 14.913 21.6127 16.2277L20.6429 17.8114C19.8576 19.0935 18.1619 19.4982 16.8532 18.7857L16.7505 18.7288C16.3067 18.4872 15.7663 18.8094 15.7663 19.3147C15.766 20.8446 14.4656 21.9999 12.9697 22H11.0303C9.53437 21.9999 8.23396 20.8446 8.23371 19.3147C8.23371 18.8094 7.69327 18.4872 7.24946 18.7288L7.14679 18.7857C5.83809 19.4982 4.14239 19.0935 3.35707 17.8114L2.38732 16.2277C1.5824 14.913 2.08287 13.2561 3.41844 12.529C3.83745 12.3009 3.83745 11.6991 3.41844 11.471C2.08287 10.7439 1.5824 9.08696 2.38732 7.77232L3.35707 6.18862C4.14239 4.90647 5.83809 4.50184 7.14679 5.21429L7.24946 5.27121C7.69327 5.51283 8.23371 5.19063 8.23371 4.68527C8.23396 3.15545 9.53437 2.00008 11.0303 2H12.9697C14.4656 2.00009 15.766 3.15545 15.7663 4.68527Z" fill="#0C3124"/>
</svg>
