<svg width="24" height="24" viewBox="0 0 24 24" fill="none" xmlns="http://www.w3.org/2000/svg">
<path d="M8.66675 8.66669V7.00002C8.66675 5.15907 10.1591 3.66669 12.0001 3.66669L17.0001 3.66669C18.841 3.66669 20.3334 5.15907 20.3334 7.00002V12C20.3334 13.841 18.841 15.3334 17.0001 15.3334H15.3334M8.66675 8.66669H7.00008C5.15913 8.66669 3.66675 10.1591 3.66675 12V17C3.66675 18.841 5.15913 20.3334 7.00008 20.3334H12.0001C13.841 20.3334 15.3334 18.841 15.3334 17V15.3334M8.66675 8.66669H12.0001C13.841 8.66669 15.3334 10.1591 15.3334 12V15.3334" stroke="white" stroke-width="1.5" stroke-linejoin="round"/>
</svg>
