<svg width="24" height="24" viewBox="0 0 24 24" fill="none" xmlns="http://www.w3.org/2000/svg">
<path fill-rule="evenodd" clip-rule="evenodd" d="M17.0909 4.63079C17.9946 4.63079 18.7273 5.41602 18.7273 6.38465V19.6739C18.7273 20.8886 17.6028 21.7356 16.5364 21.3242L15.2588 20.8309C14.8595 20.6769 14.4201 20.6956 14.0331 20.8823L12.0348 21.8457C11.6079 22.0514 11.1193 22.0514 10.6925 21.8457L8.69416 20.8823C8.3072 20.6956 7.86774 20.6769 7.46848 20.8309L6.19087 21.3242C5.12452 21.7356 4 20.8886 4 19.6739V6.38465C4 5.41602 4.73263 4.63079 5.63636 4.63079H17.0909ZM7.27273 15.3732C6.93383 15.3732 6.65909 15.6676 6.65909 16.0309C6.65909 16.3941 6.93383 16.6886 7.27273 16.6886H11.3636C11.7025 16.6886 11.9773 16.3941 11.9773 16.0309C11.9773 15.6676 11.7025 15.3732 11.3636 15.3732H7.27273ZM7.27273 11.8655C6.93383 11.8655 6.65909 12.1599 6.65909 12.5232C6.65909 12.8864 6.93383 13.1809 7.27273 13.1809H15.4545C15.7934 13.1809 16.0682 12.8864 16.0682 12.5232C16.0682 12.1599 15.7934 11.8655 15.4545 11.8655H7.27273ZM7.27273 8.35774C6.93383 8.35774 6.65909 8.65221 6.65909 9.01544C6.65909 9.37868 6.93383 9.67314 7.27273 9.67314H15.4545C15.7934 9.67314 16.0682 9.37868 16.0682 9.01544C16.0682 8.65221 15.7934 8.35774 15.4545 8.35774H7.27273Z" fill="#0C3124"/>
<path d="M22 8.13851C22 11.5287 19.4358 14.277 16.2727 14.277C13.1096 14.277 10.5455 11.5287 10.5455 8.13851C10.5455 4.74831 13.1096 2 16.2727 2C19.4358 2 22 4.74831 22 8.13851Z" fill="white"/>
<path d="M21.1818 8.13851C21.1818 11.0444 18.9839 13.4001 16.2727 13.4001C13.5615 13.4001 11.3636 11.0444 11.3636 8.13851C11.3636 5.23262 13.5615 2.87693 16.2727 2.87693C18.9839 2.87693 21.1818 5.23262 21.1818 8.13851Z" fill="white"/>
<path fill-rule="evenodd" clip-rule="evenodd" d="M16.2727 2.87693C18.9839 2.87693 21.1818 5.23262 21.1818 8.13851C21.1818 11.0444 18.9839 13.4001 16.2727 13.4001C13.5615 13.4001 11.3636 11.0444 11.3636 8.13851C11.3636 5.23262 13.5615 2.87693 16.2727 2.87693ZM16.2727 4.85002C16.0694 4.85002 15.9045 5.0267 15.9045 5.24464V5.69527C15.3381 5.86717 14.9227 6.42403 14.9227 7.0862C14.9227 7.87138 15.5063 8.50851 16.2339 8.53056C16.2467 8.532 16.2596 8.53313 16.2727 8.53313C16.6116 8.53313 16.8864 8.82759 16.8864 9.19083C16.8864 9.55407 16.6116 9.84853 16.2727 9.84853C15.9338 9.84853 15.6591 9.55407 15.6591 9.19083C15.6591 8.97289 15.4943 8.79621 15.2909 8.79621C15.0876 8.79621 14.9227 8.97289 14.9227 9.19083C14.9227 9.85295 15.3382 10.4093 15.9045 10.5812V11.0324C15.9045 11.2503 16.0694 11.427 16.2727 11.427C16.4761 11.427 16.6409 11.2503 16.6409 11.0324V10.5812C17.2073 10.4093 17.6227 9.85295 17.6227 9.19083C17.6227 8.40547 17.0389 7.76773 16.3111 7.74595C16.2985 7.74455 16.2857 7.74389 16.2727 7.74389C15.9338 7.74389 15.6591 7.44943 15.6591 7.0862C15.6591 6.72296 15.9338 6.4285 16.2727 6.4285C16.6116 6.4285 16.8864 6.72296 16.8864 7.0862C16.8864 7.30414 17.0512 7.48081 17.2545 7.48081C17.4579 7.48081 17.6227 7.30414 17.6227 7.0862C17.6227 6.42403 17.2073 5.86717 16.6409 5.69527V5.24464C16.6409 5.0267 16.4761 4.85002 16.2727 4.85002Z" fill="#0C3124"/>
</svg>
