<svg width="15" height="15" viewBox="0 0 15 15" fill="none" xmlns="http://www.w3.org/2000/svg">
<path d="M12.7115 12.7115C12.9158 12.5071 13.247 12.5071 13.4514 12.7115L14.8467 14.1068C15.0511 14.3112 15.0511 14.6424 14.8467 14.8468C14.6424 15.0511 14.3112 15.0511 14.1068 14.8468L12.7115 13.4514C12.5071 13.2471 12.5071 12.9158 12.7115 12.7115ZM13.2559 7.15119C13.2559 3.77967 10.5227 1.04651 7.15118 1.04651C3.77967 1.04651 1.04651 3.77967 1.04651 7.15119C1.04651 10.5227 3.77967 13.2559 7.15118 13.2559C10.5227 13.2559 13.2559 10.5227 13.2559 7.15119ZM14.3024 7.15119C14.3024 11.1007 11.1007 14.3024 7.15118 14.3024C3.20169 14.3024 0 11.1007 0 7.15119C0 3.20169 3.20169 0 7.15118 0C11.1007 0 14.3024 3.20169 14.3024 7.15119Z" fill="#83968F"/>
</svg>
