<svg width="44" height="44" viewBox="0 0 44 44" fill="none" xmlns="http://www.w3.org/2000/svg">
<path d="M0 22C0 9.84974 9.84974 0 22 0V0C34.1503 0 44 9.84974 44 22V22C44 34.1503 34.1503 44 22 44V44C9.84974 44 0 34.1503 0 22V22Z" fill="#0C3124"/>
<path fill-rule="evenodd" clip-rule="evenodd" d="M25.9996 22.0668C27.0122 23.1244 28.3958 23.8 30.0004 23.8C31.0401 23.7999 31.9869 23.5164 32.8 23.0289V29.2C32.7999 31.8509 30.6509 34 28 34H16C13.3491 34 11.2001 31.8509 11.2 29.2V23.0289C12.0131 23.5164 12.9599 23.7999 13.9996 23.8C15.6042 23.8 16.9878 23.1244 18.0004 22.0668C19.013 23.1244 20.3955 23.8 22 23.8C23.6045 23.8 24.987 23.1244 25.9996 22.0668ZM26.384 28.7582C26.1399 28.3253 25.5912 28.172 25.1582 28.416C23.7935 29.1854 22.863 29.4983 22 29.5C21.1386 29.5017 20.2087 29.1928 18.8453 28.4172C18.4133 28.1714 17.863 28.3227 17.6172 28.7547C17.3714 29.1867 17.5227 29.737 17.9547 29.9828C19.4186 30.8156 20.6775 31.3026 22.0035 31.3C23.3278 31.2974 24.5837 30.806 26.0418 29.984C26.4747 29.7399 26.628 29.1912 26.384 28.7582Z" fill="#12D16B"/>
<path d="M29.2 10C31.851 10 34 12.149 34 14.8V17.5C34 19.9851 32.2094 21.9998 30.0004 22C27.7913 22 25.9996 19.9853 25.9996 17.5C25.9996 19.9853 24.2091 22 22 22C19.7909 22 18.0004 19.9853 18.0004 17.5C18.0004 19.9853 16.2087 22 13.9996 22C11.7907 21.9998 10 19.9851 10 17.5V14.8C10 12.149 12.149 10 14.8 10H29.2Z" fill="#12D16B"/>
</svg>
