<svg width="54" height="54" viewBox="0 0 54 54" fill="none" xmlns="http://www.w3.org/2000/svg">
<circle cx="27" cy="27" r="27" fill="#FAFBFA"/>
<path d="M39.2727 19.6367H18.7272C16.5181 19.6367 14.7273 21.4276 14.7273 23.6367V35.2731C14.7273 37.4822 16.5181 39.2731 18.7273 39.2731H35.2727C37.4818 39.2731 39.2727 37.4822 39.2727 35.2731V19.6367Z" stroke="#009859" stroke-width="1.5" stroke-linejoin="round"/>
<path d="M39.2727 18.7275C39.2727 16.5184 37.4818 14.7275 35.2727 14.7275H26.0909C23.8817 14.7275 22.0909 16.5184 22.0909 18.7275V19.6366H39.2727V18.7275Z" stroke="#009859" stroke-width="1.5" stroke-linejoin="round"/>
<path d="M14.7272 27L14.7272 31.9091L19.6363 31.9091C20.9919 31.9091 22.0909 30.8102 22.0909 29.4545C22.0909 28.0989 20.9919 27 19.6363 27L14.7272 27Z" stroke="#009859" stroke-width="1.5" stroke-linejoin="round"/>
</svg>
