<svg width="24" height="24" viewBox="0 0 24 24" fill="none" xmlns="http://www.w3.org/2000/svg">
<path d="M18.541 18.541C22.1533 14.9286 22.1533 9.07183 18.541 5.45948C14.9286 1.84713 9.07186 1.84713 5.45951 5.45948C1.84716 9.07183 1.84716 14.9286 5.45951 18.541C9.07186 22.1533 14.9286 22.1533 18.541 18.541ZM8.64149 14.2983L13.0181 9.92171H10.586C10.1718 9.92171 9.83611 9.58601 9.83611 9.17179C9.83611 8.75758 10.1718 8.42187 10.586 8.42187H14.8287L14.9053 8.42533C15.2835 8.4637 15.5786 8.78344 15.5786 9.17179V13.4144C15.5786 13.8286 15.2429 14.1644 14.8287 14.1644C14.4145 14.1644 14.0788 13.8286 14.0788 13.4144V10.9824L9.70215 15.359C9.40925 15.6519 8.93438 15.6519 8.64149 15.359C8.34859 15.0661 8.34859 14.5912 8.64149 14.2983ZM19.6016 19.6016C15.4035 23.7998 8.59698 23.7998 4.39885 19.6016C0.20071 15.4035 0.20071 8.59696 4.39885 4.39882C8.59698 0.200686 15.4035 0.200686 19.6016 4.39882C23.7998 8.59696 23.7998 15.4035 19.6016 19.6016Z" fill="#0C3124"/>
</svg>
