<svg width="44" height="44" viewBox="0 0 44 44" fill="none" xmlns="http://www.w3.org/2000/svg">
<circle cx="22" cy="22" r="22" fill="#0C3124"/>
<path d="M28.5409 28.5414C32.1533 24.929 32.1533 19.0723 28.5409 15.4599C24.9286 11.8476 19.0718 11.8476 15.4594 15.4599C11.8471 19.0723 11.8471 24.929 15.4594 28.5414C19.0718 32.1537 24.9286 32.1537 28.5409 28.5414ZM18.6414 24.2987L23.018 19.9221H20.586C20.1718 19.9221 19.836 19.5864 19.836 19.1722C19.836 18.758 20.1718 18.4223 20.586 18.4223H24.8286L24.9053 18.4258C25.2835 18.4641 25.5785 18.7839 25.5785 19.1722V23.4149C25.5785 23.8291 25.2428 24.1648 24.8286 24.1648C24.4144 24.1648 24.0787 23.8291 24.0787 23.4149V20.9828L19.7021 25.3594C19.4092 25.6523 18.9343 25.6523 18.6414 25.3594C18.3485 25.0665 18.3485 24.5916 18.6414 24.2987ZM29.6016 29.602C25.4034 33.8002 18.5969 33.8002 14.3988 29.602C10.2006 25.4039 10.2006 18.5974 14.3988 14.3992C18.5969 10.2011 25.4034 10.2011 29.6016 14.3992C33.7997 18.5974 33.7997 25.4039 29.6016 29.602Z" fill="white"/>
</svg>
