<svg width="20" height="20" viewBox="0 0 20 20" fill="none" xmlns="http://www.w3.org/2000/svg">
<path d="M6.6667 6.6667V5C6.6667 3.159 8.159 1.6667 10 1.6667L15 1.6667C16.841 1.6667 18.3334 3.159 18.3334 5V10C18.3334 11.841 16.841 13.3334 15 13.3334H13.3334M6.6667 6.6667H5C3.159 6.6667 1.6667 8.159 1.6667 10V15C1.6667 16.841 3.159 18.3334 5 18.3334H10C11.841 18.3334 13.3334 16.841 13.3334 15V13.3334M6.6667 6.6667H10C11.841 6.6667 13.3334 8.159 13.3334 10V13.3334" stroke="#009859" stroke-width="1.5" stroke-linejoin="round"/>
</svg>
