<svg width="15" height="15" viewBox="0 0 15 15" fill="none" xmlns="http://www.w3.org/2000/svg">
<path d="M7.5 11.4062C7.75888 11.4062 7.96875 11.6161 7.96875 11.875V13.2812C7.96875 13.5401 7.75888 13.75 7.5 13.75C7.24112 13.75 7.03125 13.5401 7.03125 13.2812V11.875C7.03125 11.6161 7.24112 11.4062 7.5 11.4062ZM4.0752 10.2617C4.25827 10.079 4.55533 10.0788 4.73828 10.2617C4.92123 10.4447 4.921 10.7417 4.73828 10.9248L3.74316 11.9199C3.56022 12.1024 3.26401 12.1024 3.08105 11.9199C2.898 11.7369 2.898 11.4399 3.08105 11.2568L4.0752 10.2617ZM10.1514 10.1514C10.3343 9.9684 10.6314 9.96857 10.8145 10.1514L11.9199 11.2568C12.1026 11.4399 12.1029 11.737 11.9199 11.9199C11.737 12.1028 11.4399 12.1026 11.2568 11.9199L10.1514 10.8145C9.96858 10.6314 9.96844 10.3343 10.1514 10.1514ZM3.125 7.03125C3.38388 7.03125 3.59375 7.24112 3.59375 7.5C3.59375 7.75888 3.38388 7.96875 3.125 7.96875H1.71875C1.45987 7.96875 1.25 7.75888 1.25 7.5C1.25 7.24112 1.45987 7.03125 1.71875 7.03125H3.125ZM13.2812 7.03125C13.5401 7.03125 13.75 7.24112 13.75 7.5C13.75 7.75888 13.5401 7.96875 13.2812 7.96875H11.7188C11.4599 7.96875 11.25 7.75888 11.25 7.5C11.25 7.24112 11.4599 7.03125 11.7188 7.03125H13.2812ZM11.2568 3.08105C11.4399 2.898 11.7369 2.898 11.9199 3.08105C12.1024 3.26401 12.1024 3.56022 11.9199 3.74316L10.8145 4.84863C10.6314 5.03151 10.3344 5.03163 10.1514 4.84863C9.96841 4.66563 9.9685 4.36861 10.1514 4.18555L11.2568 3.08105ZM3.08008 3.08105C3.26314 2.898 3.56011 2.898 3.74316 3.08105L4.73828 4.0752C4.92099 4.25827 4.92119 4.55533 4.73828 4.73828C4.55534 4.92123 4.25828 4.921 4.0752 4.73828L3.08008 3.74316C2.89758 3.56022 2.89761 3.26401 3.08008 3.08105ZM7.5 1.25C7.75888 1.25 7.96875 1.45987 7.96875 1.71875V3.28125C7.96875 3.54013 7.75888 3.75 7.5 3.75C7.24112 3.75 7.03125 3.54013 7.03125 3.28125V1.71875C7.03125 1.45987 7.24112 1.25 7.5 1.25Z" fill="#048E44"/>
</svg>
