<svg width="97" height="23" viewBox="0 0 97 23" fill="none" xmlns="http://www.w3.org/2000/svg">
<rect width="97" height="23" rx="9" fill="#FFEBEB"/>
<path d="M9.04651 11.5C9.04651 15.0642 11.9358 17.9535 15.5 17.9535C19.0642 17.9535 21.9535 15.0642 21.9535 11.5C21.9535 7.93584 19.0642 5.04651 15.5 5.04651C11.9358 5.04651 9.04651 7.93583 9.04651 11.5ZM16.0233 8.7093L16.0233 11.8488C16.0233 12.1378 15.789 12.3721 15.5 12.3721C15.211 12.3721 14.9767 12.1378 14.9767 11.8488L14.9767 8.7093C14.9767 8.42031 15.211 8.18604 15.5 8.18604C15.789 8.18604 16.0233 8.42031 16.0233 8.7093ZM16.0233 13.593L16.0233 13.9767C16.0233 14.2657 15.789 14.5 15.5 14.5C15.211 14.5 14.9767 14.2657 14.9767 13.9767L14.9767 13.593C14.9767 13.304 15.211 13.0698 15.5 13.0698C15.789 13.0698 16.0233 13.304 16.0233 13.593ZM8 11.5C8 7.35786 11.3579 4 15.5 4C19.6421 4 23 7.35786 23 11.5C23 15.6421 19.6421 19 15.5 19C11.3579 19 8 15.6421 8 11.5Z" fill="#FF383C"/>
<path d="M36.306 16.168C35.326 16.168 34.4953 15.9907 33.814 15.636C33.1327 15.272 32.61 14.726 32.246 13.998C31.8913 13.2607 31.714 12.3273 31.714 11.198C31.714 9.52733 32.12 8.28133 32.932 7.46C33.744 6.63867 34.8733 6.228 36.32 6.228C37.1413 6.228 37.8693 6.36333 38.504 6.634C39.1387 6.89533 39.6333 7.29667 39.988 7.838C40.352 8.37 40.534 9.042 40.534 9.854H39.19C39.19 9.294 39.0687 8.832 38.826 8.468C38.5927 8.104 38.2613 7.83333 37.832 7.656C37.4027 7.46933 36.8987 7.376 36.32 7.376C35.648 7.376 35.0693 7.50667 34.584 7.768C34.0987 8.02933 33.73 8.43533 33.478 8.986C33.226 9.52733 33.1 10.2273 33.1 11.086V11.38C33.1 12.2293 33.226 12.9247 33.478 13.466C33.73 13.998 34.094 14.39 34.57 14.642C35.0553 14.894 35.6387 15.02 36.32 15.02C36.9173 15.02 37.4307 14.9313 37.86 14.754C38.2987 14.5767 38.6347 14.306 38.868 13.942C39.1107 13.5687 39.232 13.102 39.232 12.542H40.534C40.534 13.3727 40.3473 14.054 39.974 14.586C39.61 15.118 39.1107 15.5147 38.476 15.776C37.8413 16.0373 37.118 16.168 36.306 16.168ZM43.7195 16.168C43.4489 16.168 43.1782 16.1353 42.9075 16.07C42.6369 16.0047 42.3849 15.8973 42.1515 15.748C41.9182 15.5987 41.7315 15.3933 41.5915 15.132C41.4515 14.8613 41.3815 14.5253 41.3815 14.124C41.3815 13.62 41.5029 13.2047 41.7455 12.878C41.9882 12.5513 42.3242 12.2993 42.7535 12.122C43.1922 11.9353 43.7102 11.8093 44.3075 11.744C44.9049 11.6693 45.5535 11.632 46.2535 11.632V10.792C46.2535 10.5213 46.2069 10.288 46.1135 10.092C46.0202 9.896 45.8522 9.74667 45.6095 9.644C45.3762 9.532 45.0402 9.476 44.6015 9.476C44.1815 9.476 43.8455 9.532 43.5935 9.644C43.3509 9.74667 43.1782 9.882 43.0755 10.05C42.9822 10.218 42.9355 10.4047 42.9355 10.61V10.82H41.7455C41.7362 10.7733 41.7315 10.7267 41.7315 10.68C41.7315 10.6333 41.7315 10.5773 41.7315 10.512C41.7315 10.064 41.8529 9.69067 42.0955 9.392C42.3475 9.084 42.6975 8.85533 43.1455 8.706C43.5935 8.54733 44.1069 8.468 44.6855 8.468C45.3015 8.468 45.8149 8.55667 46.2255 8.734C46.6455 8.91133 46.9582 9.16333 47.1635 9.49C47.3782 9.81667 47.4855 10.2087 47.4855 10.666V14.656C47.4855 14.8333 47.5275 14.9593 47.6115 15.034C47.6955 15.0993 47.7982 15.132 47.9195 15.132H48.4655V15.944C48.3349 16 48.1902 16.0467 48.0315 16.084C47.8729 16.1307 47.6909 16.154 47.4855 16.154C47.2429 16.154 47.0422 16.1027 46.8835 16C46.7249 15.9067 46.6035 15.776 46.5195 15.608C46.4355 15.4307 46.3795 15.2347 46.3515 15.02H46.2535C46.0855 15.2533 45.8709 15.4587 45.6095 15.636C45.3575 15.804 45.0729 15.9347 44.7555 16.028C44.4382 16.1213 44.0929 16.168 43.7195 16.168ZM44.0275 15.132C44.3262 15.132 44.6062 15.0853 44.8675 14.992C45.1382 14.8987 45.3762 14.768 45.5815 14.6C45.7869 14.4227 45.9502 14.2127 46.0715 13.97C46.1929 13.7273 46.2535 13.4613 46.2535 13.172V12.556C45.4975 12.556 44.8535 12.598 44.3215 12.682C43.7895 12.766 43.3789 12.9153 43.0895 13.13C42.8095 13.3447 42.6695 13.648 42.6695 14.04C42.6695 14.292 42.7255 14.4973 42.8375 14.656C42.9495 14.8147 43.1082 14.936 43.3135 15.02C43.5189 15.0947 43.7569 15.132 44.0275 15.132ZM49.2205 16V8.636H50.2145L50.3265 9.742H50.4245C50.6205 9.44333 50.8398 9.20067 51.0825 9.014C51.3345 8.82733 51.6098 8.692 51.9085 8.608C52.2165 8.51467 52.5431 8.468 52.8885 8.468C53.3551 8.468 53.7611 8.54733 54.1065 8.706C54.4611 8.86467 54.7365 9.12133 54.9325 9.476C55.1378 9.83067 55.2405 10.3113 55.2405 10.918V16H54.0085V11.086C54.0085 10.778 53.9665 10.526 53.8825 10.33C53.8078 10.134 53.7005 9.98 53.5605 9.868C53.4298 9.756 53.2665 9.67667 53.0705 9.63C52.8838 9.58333 52.6738 9.56 52.4405 9.56C52.0951 9.56 51.7685 9.644 51.4605 9.812C51.1525 9.98 50.9051 10.2227 50.7185 10.54C50.5411 10.8573 50.4525 11.2353 50.4525 11.674V16H49.2205ZM59.6291 16.168C58.9198 16.168 58.3225 16.0327 57.8371 15.762C57.3611 15.482 56.9971 15.0573 56.7451 14.488C56.5025 13.9093 56.3811 13.186 56.3811 12.318C56.3811 11.45 56.5025 10.7313 56.7451 10.162C56.9971 9.59267 57.3658 9.168 57.8511 8.888C58.3458 8.608 58.9525 8.468 59.6711 8.468C60.1751 8.468 60.6091 8.53333 60.9731 8.664C61.3465 8.79467 61.6545 8.986 61.8971 9.238C62.1398 9.49 62.3171 9.79333 62.4291 10.148C62.5505 10.5027 62.6111 10.9087 62.6111 11.366H61.3651C61.3651 10.9367 61.3045 10.5867 61.1831 10.316C61.0711 10.036 60.8891 9.83067 60.6371 9.7C60.3851 9.56 60.0538 9.49 59.6431 9.49C59.2325 9.49 58.8778 9.58333 58.5791 9.77C58.2805 9.94733 58.0518 10.232 57.8931 10.624C57.7345 11.016 57.6551 11.534 57.6551 12.178V12.472C57.6551 13.0787 57.7298 13.5827 57.8791 13.984C58.0378 14.3853 58.2665 14.6793 58.5651 14.866C58.8638 15.0527 59.2278 15.146 59.6571 15.146C60.0771 15.146 60.4131 15.0713 60.6651 14.922C60.9265 14.7727 61.1131 14.558 61.2251 14.278C61.3465 13.998 61.4071 13.662 61.4071 13.27H62.6111C62.6111 13.6807 62.5505 14.0633 62.4291 14.418C62.3171 14.7727 62.1398 15.0807 61.8971 15.342C61.6545 15.6033 61.3465 15.8087 60.9731 15.958C60.5998 16.098 60.1518 16.168 59.6291 16.168ZM66.7489 16.168C66.0209 16.168 65.4049 16.0327 64.9009 15.762C64.4062 15.482 64.0282 15.0573 63.7669 14.488C63.5149 13.9187 63.3889 13.1953 63.3889 12.318C63.3889 11.4313 63.5149 10.708 63.7669 10.148C64.0282 9.57867 64.4109 9.15867 64.9149 8.888C65.4189 8.608 66.0489 8.468 66.8049 8.468C67.4956 8.468 68.0742 8.60333 68.5409 8.874C69.0076 9.13533 69.3576 9.532 69.5909 10.064C69.8336 10.5867 69.9549 11.2447 69.9549 12.038V12.626H64.6629C64.6816 13.214 64.7656 13.6993 64.9149 14.082C65.0736 14.4553 65.3069 14.7307 65.6149 14.908C65.9229 15.076 66.3102 15.16 66.7769 15.16C67.0942 15.16 67.3696 15.1227 67.6029 15.048C67.8456 14.964 68.0462 14.8473 68.2049 14.698C68.3729 14.5487 68.4989 14.3713 68.5829 14.166C68.6669 13.9607 68.7136 13.7367 68.7229 13.494H69.9269C69.9176 13.886 69.8429 14.25 69.7029 14.586C69.5629 14.9127 69.3576 15.1927 69.0869 15.426C68.8162 15.6593 68.4849 15.8413 68.0929 15.972C67.7009 16.1027 67.2529 16.168 66.7489 16.168ZM64.6909 11.702H68.6809C68.6809 11.2913 68.6342 10.946 68.5409 10.666C68.4476 10.386 68.3122 10.1573 68.1349 9.98C67.9669 9.80267 67.7662 9.67667 67.5329 9.602C67.3089 9.518 67.0522 9.476 66.7629 9.476C66.3336 9.476 65.9696 9.55533 65.6709 9.714C65.3722 9.87267 65.1436 10.1153 64.9849 10.442C64.8262 10.7687 64.7282 11.1887 64.6909 11.702ZM71.1988 16V5.878H72.4308V16H71.1988ZM77.0033 16.168C76.2753 16.168 75.6593 16.0327 75.1553 15.762C74.6607 15.482 74.2827 15.0573 74.0213 14.488C73.7693 13.9187 73.6433 13.1953 73.6433 12.318C73.6433 11.4313 73.7693 10.708 74.0213 10.148C74.2827 9.57867 74.6653 9.15867 75.1693 8.888C75.6733 8.608 76.3033 8.468 77.0593 8.468C77.75 8.468 78.3287 8.60333 78.7953 8.874C79.262 9.13533 79.612 9.532 79.8453 10.064C80.088 10.5867 80.2093 11.2447 80.2093 12.038V12.626H74.9173C74.936 13.214 75.02 13.6993 75.1693 14.082C75.328 14.4553 75.5613 14.7307 75.8693 14.908C76.1773 15.076 76.5647 15.16 77.0313 15.16C77.3487 15.16 77.624 15.1227 77.8573 15.048C78.1 14.964 78.3007 14.8473 78.4593 14.698C78.6273 14.5487 78.7533 14.3713 78.8373 14.166C78.9213 13.9607 78.968 13.7367 78.9773 13.494H80.1813C80.172 13.886 80.0973 14.25 79.9573 14.586C79.8173 14.9127 79.612 15.1927 79.3413 15.426C79.0707 15.6593 78.7393 15.8413 78.3473 15.972C77.9553 16.1027 77.5073 16.168 77.0033 16.168ZM74.9453 11.702H78.9353C78.9353 11.2913 78.8887 10.946 78.7953 10.666C78.702 10.386 78.5667 10.1573 78.3893 9.98C78.2213 9.80267 78.0207 9.67667 77.7873 9.602C77.5633 9.518 77.3067 9.476 77.0173 9.476C76.588 9.476 76.224 9.55533 75.9253 9.714C75.6267 9.87267 75.398 10.1153 75.2393 10.442C75.0807 10.7687 74.9827 11.1887 74.9453 11.702ZM83.9593 16.168C83.3526 16.168 82.8299 16.0327 82.3913 15.762C81.9619 15.4913 81.6259 15.0713 81.3833 14.502C81.1499 13.9233 81.0333 13.1767 81.0333 12.262C81.0333 11.394 81.1546 10.68 81.3973 10.12C81.6399 9.56 81.9759 9.14467 82.4053 8.874C82.8346 8.60333 83.3339 8.468 83.9033 8.468C84.2299 8.468 84.5333 8.50533 84.8133 8.58C85.0933 8.65467 85.3406 8.77133 85.5553 8.93C85.7793 9.08867 85.9753 9.29867 86.1433 9.56H86.2273V5.878H87.4593V16H86.4653L86.3533 14.95H86.2553C86.0033 15.3607 85.6766 15.6687 85.2753 15.874C84.8739 16.07 84.4353 16.168 83.9593 16.168ZM84.2533 15.09C84.7199 15.09 85.0979 14.9873 85.3873 14.782C85.6766 14.5767 85.8866 14.278 86.0173 13.886C86.1573 13.494 86.2273 13.0087 86.2273 12.43V12.206C86.2273 11.702 86.1759 11.2773 86.0733 10.932C85.9706 10.5867 85.8306 10.3113 85.6533 10.106C85.4759 9.90067 85.2706 9.756 85.0373 9.672C84.8039 9.588 84.5566 9.546 84.2953 9.546C83.8379 9.546 83.4646 9.63933 83.1753 9.826C82.8859 10.0033 82.6713 10.288 82.5313 10.68C82.3913 11.0627 82.3213 11.562 82.3213 12.178V12.472C82.3213 13.1067 82.3959 13.62 82.5453 14.012C82.6946 14.3947 82.9093 14.67 83.1893 14.838C83.4786 15.006 83.8333 15.09 84.2533 15.09Z" fill="#FF383C"/>
</svg>
