<svg width="20" height="20" viewBox="0 0 20 20" fill="none" xmlns="http://www.w3.org/2000/svg">
<path d="M6.66699 6.6665V4.99984C6.66699 3.15889 8.15938 1.6665 10.0003 1.6665L15.0003 1.6665C16.8413 1.6665 18.3337 3.15889 18.3337 4.99984V9.99984C18.3337 11.8408 16.8413 13.3332 15.0003 13.3332H13.3337M6.66699 6.6665H5.00033C3.15938 6.6665 1.66699 8.15889 1.66699 9.99984V14.9998C1.66699 16.8408 3.15938 18.3332 5.00033 18.3332H10.0003C11.8413 18.3332 13.3337 16.8408 13.3337 14.9998V13.3332M6.66699 6.6665H10.0003C11.8413 6.6665 13.3337 8.15889 13.3337 9.99984V13.3332" stroke="white" stroke-width="1.5" stroke-linejoin="round"/>
</svg>
