<svg width="15" height="15" viewBox="0 0 15 15" fill="none" xmlns="http://www.w3.org/2000/svg">
<rect width="15" height="15" rx="7.5" fill="#F2F8F5"/>
<path fill-rule="evenodd" clip-rule="evenodd" d="M10.1024 10.846C10.3078 11.0513 10.6407 11.0513 10.846 10.846C11.0513 10.6406 11.0513 10.3077 10.846 10.1024L8.24357 7.5L10.846 4.89758C11.0513 4.69225 11.0513 4.35935 10.846 4.15403C10.6407 3.9487 10.3078 3.9487 10.1024 4.15403L7.50002 6.75644L4.89756 4.154C4.69223 3.94867 4.35933 3.94867 4.154 4.154C3.94867 4.35932 3.94867 4.69222 4.154 4.89755L6.75646 7.5L4.154 10.1025C3.94867 10.3078 3.94867 10.6407 4.154 10.846C4.35932 11.0513 4.69222 11.0513 4.89755 10.846L7.50002 8.24355L10.1024 10.846Z" fill="#0C3124"/>
</svg>
