<svg width="76" height="23" viewBox="0 0 76 23" fill="none" xmlns="http://www.w3.org/2000/svg">
<rect width="76" height="23" rx="9" fill="#FFEBEB"/>
<path d="M9.04651 11.5C9.04651 15.0642 11.9358 17.9535 15.5 17.9535C19.0642 17.9535 21.9535 15.0642 21.9535 11.5C21.9535 7.93584 19.0642 5.04651 15.5 5.04651C11.9358 5.04651 9.04651 7.93583 9.04651 11.5ZM16.0233 8.7093L16.0233 11.8488C16.0233 12.1378 15.789 12.3721 15.5 12.3721C15.211 12.3721 14.9767 12.1378 14.9767 11.8488L14.9767 8.7093C14.9767 8.42031 15.211 8.18604 15.5 8.18604C15.789 8.18604 16.0233 8.42031 16.0233 8.7093ZM16.0233 13.593L16.0233 13.9767C16.0233 14.2657 15.789 14.5 15.5 14.5C15.211 14.5 14.9767 14.2657 14.9767 13.9767L14.9767 13.593C14.9767 13.304 15.211 13.0698 15.5 13.0698C15.789 13.0698 16.0233 13.304 16.0233 13.593ZM8 11.5C8 7.35786 11.3579 4 15.5 4C19.6421 4 23 7.35786 23 11.5C23 15.6421 19.6421 19 15.5 19C11.3579 19 8 15.6421 8 11.5Z" fill="#FF383C"/>
<path d="M32.204 16V6.396H39.008V7.544H33.534V10.624H38.518V11.758H33.534V16H32.204ZM41.7508 16.168C41.4801 16.168 41.2095 16.1353 40.9388 16.07C40.6681 16.0047 40.4161 15.8973 40.1828 15.748C39.9495 15.5987 39.7628 15.3933 39.6228 15.132C39.4828 14.8613 39.4128 14.5253 39.4128 14.124C39.4128 13.62 39.5341 13.2047 39.7768 12.878C40.0195 12.5513 40.3555 12.2993 40.7848 12.122C41.2235 11.9353 41.7415 11.8093 42.3388 11.744C42.9361 11.6693 43.5848 11.632 44.2848 11.632V10.792C44.2848 10.5213 44.2381 10.288 44.1448 10.092C44.0515 9.896 43.8835 9.74667 43.6408 9.644C43.4075 9.532 43.0715 9.476 42.6328 9.476C42.2128 9.476 41.8768 9.532 41.6248 9.644C41.3821 9.74667 41.2095 9.882 41.1068 10.05C41.0135 10.218 40.9668 10.4047 40.9668 10.61V10.82H39.7768C39.7675 10.7733 39.7628 10.7267 39.7628 10.68C39.7628 10.6333 39.7628 10.5773 39.7628 10.512C39.7628 10.064 39.8841 9.69067 40.1268 9.392C40.3788 9.084 40.7288 8.85533 41.1768 8.706C41.6248 8.54733 42.1381 8.468 42.7168 8.468C43.3328 8.468 43.8461 8.55667 44.2568 8.734C44.6768 8.91133 44.9895 9.16333 45.1948 9.49C45.4095 9.81667 45.5168 10.2087 45.5168 10.666V14.656C45.5168 14.8333 45.5588 14.9593 45.6428 15.034C45.7268 15.0993 45.8295 15.132 45.9508 15.132H46.4968V15.944C46.3661 16 46.2215 16.0467 46.0628 16.084C45.9041 16.1307 45.7221 16.154 45.5168 16.154C45.2741 16.154 45.0735 16.1027 44.9148 16C44.7561 15.9067 44.6348 15.776 44.5508 15.608C44.4668 15.4307 44.4108 15.2347 44.3828 15.02H44.2848C44.1168 15.2533 43.9021 15.4587 43.6408 15.636C43.3888 15.804 43.1041 15.9347 42.7868 16.028C42.4695 16.1213 42.1241 16.168 41.7508 16.168ZM42.0588 15.132C42.3575 15.132 42.6375 15.0853 42.8988 14.992C43.1695 14.8987 43.4075 14.768 43.6128 14.6C43.8181 14.4227 43.9815 14.2127 44.1028 13.97C44.2241 13.7273 44.2848 13.4613 44.2848 13.172V12.556C43.5288 12.556 42.8848 12.598 42.3528 12.682C41.8208 12.766 41.4101 12.9153 41.1208 13.13C40.8408 13.3447 40.7008 13.648 40.7008 14.04C40.7008 14.292 40.7568 14.4973 40.8688 14.656C40.9808 14.8147 41.1395 14.936 41.3448 15.02C41.5501 15.0947 41.7881 15.132 42.0588 15.132ZM47.2517 7.25V5.878H48.4837V7.25H47.2517ZM47.2517 16V8.636H48.4837V16H47.2517ZM50.1162 16V5.878H51.3482V16H50.1162ZM55.9208 16.168C55.1928 16.168 54.5768 16.0327 54.0728 15.762C53.5781 15.482 53.2001 15.0573 52.9388 14.488C52.6868 13.9187 52.5608 13.1953 52.5608 12.318C52.5608 11.4313 52.6868 10.708 52.9388 10.148C53.2001 9.57867 53.5828 9.15867 54.0868 8.888C54.5908 8.608 55.2208 8.468 55.9768 8.468C56.6674 8.468 57.2461 8.60333 57.7128 8.874C58.1794 9.13533 58.5294 9.532 58.7628 10.064C59.0054 10.5867 59.1268 11.2447 59.1268 12.038V12.626H53.8348C53.8534 13.214 53.9374 13.6993 54.0868 14.082C54.2454 14.4553 54.4788 14.7307 54.7868 14.908C55.0948 15.076 55.4821 15.16 55.9488 15.16C56.2661 15.16 56.5414 15.1227 56.7748 15.048C57.0174 14.964 57.2181 14.8473 57.3768 14.698C57.5448 14.5487 57.6708 14.3713 57.7548 14.166C57.8388 13.9607 57.8854 13.7367 57.8948 13.494H59.0988C59.0894 13.886 59.0148 14.25 58.8748 14.586C58.7348 14.9127 58.5294 15.1927 58.2588 15.426C57.9881 15.6593 57.6568 15.8413 57.2648 15.972C56.8728 16.1027 56.4248 16.168 55.9208 16.168ZM53.8628 11.702H57.8528C57.8528 11.2913 57.8061 10.946 57.7128 10.666C57.6194 10.386 57.4841 10.1573 57.3068 9.98C57.1388 9.80267 56.9381 9.67667 56.7048 9.602C56.4808 9.518 56.2241 9.476 55.9348 9.476C55.5054 9.476 55.1414 9.55533 54.8428 9.714C54.5441 9.87267 54.3154 10.1153 54.1568 10.442C53.9981 10.7687 53.9001 11.1887 53.8628 11.702ZM62.8767 16.168C62.27 16.168 61.7474 16.0327 61.3087 15.762C60.8794 15.4913 60.5434 15.0713 60.3007 14.502C60.0674 13.9233 59.9507 13.1767 59.9507 12.262C59.9507 11.394 60.072 10.68 60.3147 10.12C60.5574 9.56 60.8934 9.14467 61.3227 8.874C61.752 8.60333 62.2514 8.468 62.8207 8.468C63.1474 8.468 63.4507 8.50533 63.7307 8.58C64.0107 8.65467 64.258 8.77133 64.4727 8.93C64.6967 9.08867 64.8927 9.29867 65.0607 9.56H65.1447V5.878H66.3767V16H65.3827L65.2707 14.95H65.1727C64.9207 15.3607 64.594 15.6687 64.1927 15.874C63.7914 16.07 63.3527 16.168 62.8767 16.168ZM63.1707 15.09C63.6374 15.09 64.0154 14.9873 64.3047 14.782C64.594 14.5767 64.804 14.278 64.9347 13.886C65.0747 13.494 65.1447 13.0087 65.1447 12.43V12.206C65.1447 11.702 65.0934 11.2773 64.9907 10.932C64.888 10.5867 64.748 10.3113 64.5707 10.106C64.3934 9.90067 64.188 9.756 63.9547 9.672C63.7214 9.588 63.474 9.546 63.2127 9.546C62.7554 9.546 62.382 9.63933 62.0927 9.826C61.8034 10.0033 61.5887 10.288 61.4487 10.68C61.3087 11.0627 61.2387 11.562 61.2387 12.178V12.472C61.2387 13.1067 61.3134 13.62 61.4627 14.012C61.612 14.3947 61.8267 14.67 62.1067 14.838C62.396 15.006 62.7507 15.09 63.1707 15.09Z" fill="#FF383C"/>
</svg>
