<svg width="19" height="19" viewBox="0 0 19 19" fill="none" xmlns="http://www.w3.org/2000/svg">
<path d="M9.17578 0.860352C9.27491 0.713646 9.49071 0.713646 9.58984 0.860352L12.334 4.9209C12.5519 5.24339 12.8712 5.48376 13.2412 5.60449L17.8428 7.10547C18.0032 7.15778 18.0666 7.35084 17.9688 7.48828L15.0527 11.5869C14.8378 11.8889 14.7242 12.2514 14.7285 12.6221L14.7881 17.6885C14.7901 17.8623 14.618 17.9849 14.4541 17.9268L9.96777 16.3359C9.58931 16.2017 9.17632 16.2017 8.79785 16.3359L4.31152 17.9268C4.14765 17.9849 3.97554 17.8623 3.97754 17.6885L4.03711 12.6221C4.04145 12.2514 3.92782 11.8889 3.71289 11.5869L0.796875 7.48828C0.699066 7.35084 0.762476 7.15778 0.922852 7.10547L5.52441 5.60449C5.89443 5.48376 6.21372 5.24339 6.43164 4.9209L9.17578 0.860352Z" stroke="#0C3124" stroke-width="1.5"/>
</svg>
