<svg width="24" height="24" viewBox="0 0 24 24" fill="none" xmlns="http://www.w3.org/2000/svg">
<path d="M7.25 11C7.94036 11 8.5 11.5596 8.5 12.25C8.5 12.9404 7.94036 13.5 7.25 13.5C6.55964 13.5 6 12.9404 6 12.25C6 11.5596 6.55964 11 7.25 11ZM12.25 11C12.9404 11 13.5 11.5596 13.5 12.25C13.5 12.9404 12.9404 13.5 12.25 13.5C11.5596 13.5 11 12.9404 11 12.25C11 11.5596 11.5596 11 12.25 11ZM17.25 11C17.9404 11 18.5 11.5596 18.5 12.25C18.5 12.9404 17.9404 13.5 17.25 13.5C16.5596 13.5 16 12.9404 16 12.25C16 11.5596 16.5596 11 17.25 11Z" fill="black"/>
</svg>
