<svg width="24" height="24" viewBox="0 0 24 24" fill="none" xmlns="http://www.w3.org/2000/svg">
<path d="M0 20.2105V16.6737C0 15.9579 0.184421 15.3002 0.553263 14.7006C0.922105 14.1011 1.41137 13.6429 2.02105 13.3263C3.32632 12.6737 4.65263 12.1844 6 11.8585C7.34737 11.5326 8.71579 11.3693 10.1053 11.3684C10.5263 11.3684 10.9474 11.3844 11.3684 11.4164C11.7895 11.4484 12.2105 11.4956 12.6316 11.5579C12.5474 12.7789 12.7684 13.9318 13.2947 15.0164C13.8211 16.1011 14.5895 16.9903 15.6 17.6842V20.2105H0ZM20.2105 24L18.3158 22.1053V16.2316C17.3895 15.9579 16.6316 15.4371 16.0421 14.6691C15.4526 13.9011 15.1579 13.0114 15.1579 12C15.1579 10.7789 15.5895 9.73684 16.4526 8.87368C17.3158 8.01053 18.3579 7.57895 19.5789 7.57895C20.8 7.57895 21.8421 8.01053 22.7053 8.87368C23.5684 9.73684 24 10.7789 24 12C24 12.9474 23.7314 13.7895 23.1941 14.5263C22.6568 15.2632 21.9781 15.7895 21.1579 16.1053L22.7368 17.6842L20.8421 19.5789L22.7368 21.4737L20.2105 24ZM10.1053 10.1053C8.71579 10.1053 7.52632 9.61053 6.53684 8.62105C5.54737 7.63158 5.05263 6.44211 5.05263 5.05263C5.05263 3.66316 5.54737 2.47368 6.53684 1.48421C7.52632 0.494737 8.71579 0 10.1053 0C11.4947 0 12.6842 0.494737 13.6737 1.48421C14.6632 2.47368 15.1579 3.66316 15.1579 5.05263C15.1579 6.44211 14.6632 7.63158 13.6737 8.62105C12.6842 9.61053 11.4947 10.1053 10.1053 10.1053ZM19.5789 12.6316C19.9368 12.6316 20.2371 12.5103 20.4796 12.2678C20.7221 12.0253 20.8429 11.7255 20.8421 11.3684C20.8413 11.0114 20.72 10.7116 20.4783 10.4691C20.2366 10.2265 19.9368 10.1053 19.5789 10.1053C19.2211 10.1053 18.9213 10.2265 18.6796 10.4691C18.4379 10.7116 18.3166 11.0114 18.3158 11.3684C18.3149 11.7255 18.4362 12.0257 18.6796 12.2691C18.9229 12.5124 19.2227 12.6333 19.5789 12.6316Z" fill="#0C3124"/>
</svg>
