<svg width="24" height="24" viewBox="0 0 24 24" fill="none" xmlns="http://www.w3.org/2000/svg">
<path d="M6.26659 10.0996C6.55936 9.80692 7.03424 9.80713 7.32714 10.0996C7.62003 10.3925 7.62003 10.8682 7.32714 11.1611L5.66112 12.8272C4.11305 14.3752 4.11305 16.8855 5.66112 18.4336C7.20912 19.9813 9.71858 19.9813 11.2666 18.4336L12.9336 16.7666C13.2264 16.4738 13.7013 16.4738 13.9941 16.7666C14.287 17.0595 14.2869 17.5343 13.9941 17.8272L12.3271 19.4941C10.1933 21.6277 6.73437 21.6277 4.60057 19.4941C2.46672 17.3603 2.46672 13.9005 4.60057 11.7666L6.26659 10.0996ZM13.3887 9.64551C13.6816 9.35271 14.1563 9.35265 14.4492 9.64551C14.7419 9.93838 14.742 10.4132 14.4492 10.7061L10.206 14.9482C9.91315 15.2411 9.43839 15.2411 9.1455 14.9482C8.85294 14.6553 8.85272 14.1805 9.1455 13.8877L13.3887 9.64551ZM11.2666 5.09961C13.4003 2.96594 16.8603 2.96611 18.9941 5.09961C21.128 7.23344 21.1279 10.6933 18.9941 12.8272L17.3271 14.4941C17.0342 14.7868 16.5594 14.787 16.2666 14.4941C15.974 14.2013 15.974 13.7264 16.2666 13.4336L17.9336 11.7666C19.4815 10.2186 19.4815 7.70919 17.9336 6.16114C16.3855 4.61307 13.8752 4.61307 12.3271 6.16114L10.6611 7.82715C10.3682 8.12004 9.89347 8.12002 9.60057 7.82715C9.30768 7.53426 9.30768 7.0595 9.60057 6.7666L11.2666 5.09961Z" fill="#009859"/>
</svg>
