<svg width="44" height="44" viewBox="0 0 44 44" fill="none" xmlns="http://www.w3.org/2000/svg">
<circle cx="22" cy="22" r="22" fill="#EBF5F0"/>
<rect width="24" height="24" transform="translate(10 10)" fill="#EBF5F0"/>
<path d="M16.2666 20.0997C16.5594 19.807 17.0342 19.8072 17.3271 20.0997C17.62 20.3926 17.62 20.8683 17.3271 21.1612L15.6611 22.8272C14.1131 24.3753 14.1131 26.8856 15.6611 28.4337C17.2091 29.9814 19.7186 29.9814 21.2666 28.4337L22.9336 26.7667C23.2264 26.4739 23.7013 26.4739 23.9941 26.7667C24.287 27.0596 24.2869 27.5343 23.9941 27.8272L22.3271 29.4942C20.1933 31.6278 16.7344 31.6278 14.6006 29.4942C12.4667 27.3604 12.4667 23.9005 14.6006 21.7667L16.2666 20.0997ZM23.3887 19.6456C23.6816 19.3528 24.1563 19.3527 24.4492 19.6456C24.7419 19.9385 24.742 20.4133 24.4492 20.7061L20.206 24.9483C19.9131 25.2412 19.4384 25.2412 19.1455 24.9483C18.8529 24.6554 18.8527 24.1806 19.1455 23.8878L23.3887 19.6456ZM21.2666 15.0997C23.4003 12.966 26.8603 12.9662 28.9941 15.0997C31.128 17.2335 31.1279 20.6934 28.9941 22.8272L27.3271 24.4942C27.0342 24.7869 26.5594 24.787 26.2666 24.4942C25.974 24.2014 25.974 23.7265 26.2666 23.4337L27.9336 21.7667C29.4815 20.2187 29.4815 17.7093 27.9336 16.1612C26.3855 14.6132 23.8752 14.6132 22.3271 16.1612L20.6611 17.8272C20.3682 18.1201 19.8935 18.1201 19.6006 17.8272C19.3077 17.5343 19.3077 17.0596 19.6006 16.7667L21.2666 15.0997Z" fill="#009859"/>
</svg>
