<svg width="209" height="210" viewBox="0 0 209 210" fill="none" xmlns="http://www.w3.org/2000/svg">
<g clip-path="url(#clip0_17859_45139)">
<mask id="mask0_17859_45139" style="mask-type:luminance" maskUnits="userSpaceOnUse" x="10" y="10" width="192" height="192">
<path d="M13.9712 89.58C15.7867 89.58 17.2585 88.1083 17.2585 86.2927C17.2585 84.4772 15.7867 83.0054 13.9712 83.0054C12.1556 83.0054 10.6838 84.4772 10.6838 86.2927C10.6838 88.1083 12.1556 89.58 13.9712 89.58Z" fill="white"/>
<path d="M13.9712 109.304C15.7867 109.304 17.2585 107.832 17.2585 106.017C17.2585 104.201 15.7867 102.729 13.9712 102.729C12.1556 102.729 10.6838 104.201 10.6838 106.017C10.6838 107.832 12.1556 109.304 13.9712 109.304Z" fill="white"/>
<path d="M13.9712 115.879C15.7867 115.879 17.2585 114.407 17.2585 112.592C17.2585 110.776 15.7867 109.304 13.9712 109.304C12.1556 109.304 10.6838 110.776 10.6838 112.592C10.6838 114.407 12.1556 115.879 13.9712 115.879Z" fill="white"/>
<path d="M13.9712 122.454C15.7867 122.454 17.2585 120.982 17.2585 119.166C17.2585 117.351 15.7867 115.879 13.9712 115.879C12.1556 115.879 10.6838 117.351 10.6838 119.166C10.6838 120.982 12.1556 122.454 13.9712 122.454Z" fill="white"/>
<path d="M13.9712 129.028C15.7867 129.028 17.2585 127.556 17.2585 125.741C17.2585 123.925 15.7867 122.454 13.9712 122.454C12.1556 122.454 10.6838 123.925 10.6838 125.741C10.6838 127.556 12.1556 129.028 13.9712 129.028Z" fill="white"/>
<path d="M13.9712 142.178C15.7867 142.178 17.2585 140.706 17.2585 138.89C17.2585 137.075 15.7867 135.603 13.9712 135.603C12.1556 135.603 10.6838 137.075 10.6838 138.89C10.6838 140.706 12.1556 142.178 13.9712 142.178Z" fill="white"/>
<path d="M13.9712 148.752C15.7867 148.752 17.2585 147.281 17.2585 145.465C17.2585 143.65 15.7867 142.178 13.9712 142.178C12.1556 142.178 10.6838 143.65 10.6838 145.465C10.6838 147.281 12.1556 148.752 13.9712 148.752Z" fill="white"/>
<path d="M20.5459 69.8559C22.3614 69.8559 23.8332 68.3841 23.8332 66.5686C23.8332 64.753 22.3614 63.2812 20.5459 63.2812C18.7303 63.2812 17.2585 64.753 17.2585 66.5686C17.2585 68.3841 18.7303 69.8559 20.5459 69.8559Z" fill="white"/>
<path d="M20.5459 76.4306C22.3614 76.4306 23.8332 74.9588 23.8332 73.1433C23.8332 71.3277 22.3614 69.856 20.5459 69.856C18.7303 69.856 17.2585 71.3277 17.2585 73.1433C17.2585 74.9588 18.7303 76.4306 20.5459 76.4306Z" fill="white"/>
<path d="M20.5459 83.0053C22.3614 83.0053 23.8332 81.5335 23.8332 79.718C23.8332 77.9025 22.3614 76.4307 20.5459 76.4307C18.7303 76.4307 17.2585 77.9025 17.2585 79.718C17.2585 81.5335 18.7303 83.0053 20.5459 83.0053Z" fill="white"/>
<path d="M20.5459 89.58C22.3614 89.58 23.8332 88.1083 23.8332 86.2927C23.8332 84.4772 22.3614 83.0054 20.5459 83.0054C18.7303 83.0054 17.2585 84.4772 17.2585 86.2927C17.2585 88.1083 18.7303 89.58 20.5459 89.58Z" fill="white"/>
<path d="M20.5459 102.729C22.3614 102.729 23.8332 101.258 23.8332 99.4421C23.8332 97.6266 22.3614 96.1548 20.5459 96.1548C18.7303 96.1548 17.2585 97.6266 17.2585 99.4421C17.2585 101.258 18.7303 102.729 20.5459 102.729Z" fill="white"/>
<path d="M20.5459 109.304C22.3614 109.304 23.8332 107.832 23.8332 106.017C23.8332 104.201 22.3614 102.729 20.5459 102.729C18.7303 102.729 17.2585 104.201 17.2585 106.017C17.2585 107.832 18.7303 109.304 20.5459 109.304Z" fill="white"/>
<path d="M20.5459 129.028C22.3614 129.028 23.8332 127.556 23.8332 125.741C23.8332 123.925 22.3614 122.454 20.5459 122.454C18.7303 122.454 17.2585 123.925 17.2585 125.741C17.2585 127.556 18.7303 129.028 20.5459 129.028Z" fill="white"/>
<path d="M20.5459 142.178C22.3614 142.178 23.8332 140.706 23.8332 138.89C23.8332 137.075 22.3614 135.603 20.5459 135.603C18.7303 135.603 17.2585 137.075 17.2585 138.89C17.2585 140.706 18.7303 142.178 20.5459 142.178Z" fill="white"/>
<path d="M27.1205 76.4306C28.936 76.4306 30.4078 74.9588 30.4078 73.1433C30.4078 71.3277 28.936 69.856 27.1205 69.856C25.3049 69.856 23.8331 71.3277 23.8331 73.1433C23.8331 74.9588 25.3049 76.4306 27.1205 76.4306Z" fill="white"/>
<path d="M27.1205 83.0053C28.936 83.0053 30.4078 81.5335 30.4078 79.718C30.4078 77.9025 28.936 76.4307 27.1205 76.4307C25.3049 76.4307 23.8331 77.9025 23.8331 79.718C23.8331 81.5335 25.3049 83.0053 27.1205 83.0053Z" fill="white"/>
<path d="M27.1205 89.58C28.936 89.58 30.4078 88.1083 30.4078 86.2927C30.4078 84.4772 28.936 83.0054 27.1205 83.0054C25.3049 83.0054 23.8331 84.4772 23.8331 86.2927C23.8331 88.1083 25.3049 89.58 27.1205 89.58Z" fill="white"/>
<path d="M27.1205 96.1548C28.936 96.1548 30.4078 94.683 30.4078 92.8674C30.4078 91.0519 28.936 89.5801 27.1205 89.5801C25.3049 89.5801 23.8331 91.0519 23.8331 92.8674C23.8331 94.683 25.3049 96.1548 27.1205 96.1548Z" fill="white"/>
<path d="M27.1205 102.729C28.936 102.729 30.4078 101.258 30.4078 99.4421C30.4078 97.6266 28.936 96.1548 27.1205 96.1548C25.3049 96.1548 23.8331 97.6266 23.8331 99.4421C23.8331 101.258 25.3049 102.729 27.1205 102.729Z" fill="white"/>
<path d="M27.1205 115.879C28.936 115.879 30.4078 114.407 30.4078 112.592C30.4078 110.776 28.936 109.304 27.1205 109.304C25.3049 109.304 23.8331 110.776 23.8331 112.592C23.8331 114.407 25.3049 115.879 27.1205 115.879Z" fill="white"/>
<path d="M27.1205 142.178C28.936 142.178 30.4078 140.706 30.4078 138.89C30.4078 137.075 28.936 135.603 27.1205 135.603C25.3049 135.603 23.8331 137.075 23.8331 138.89C23.8331 140.706 25.3049 142.178 27.1205 142.178Z" fill="white"/>
<path d="M33.6952 69.8559C35.5107 69.8559 36.9825 68.3841 36.9825 66.5686C36.9825 64.753 35.5107 63.2812 33.6952 63.2812C31.8796 63.2812 30.4078 64.753 30.4078 66.5686C30.4078 68.3841 31.8796 69.8559 33.6952 69.8559Z" fill="white"/>
<path d="M33.6952 83.0053C35.5107 83.0053 36.9825 81.5335 36.9825 79.718C36.9825 77.9025 35.5107 76.4307 33.6952 76.4307C31.8796 76.4307 30.4078 77.9025 30.4078 79.718C30.4078 81.5335 31.8796 83.0053 33.6952 83.0053Z" fill="white"/>
<path d="M33.6952 96.1548C35.5107 96.1548 36.9825 94.683 36.9825 92.8674C36.9825 91.0519 35.5107 89.5801 33.6952 89.5801C31.8796 89.5801 30.4078 91.0519 30.4078 92.8674C30.4078 94.683 31.8796 96.1548 33.6952 96.1548Z" fill="white"/>
<path d="M33.6952 115.879C35.5107 115.879 36.9825 114.407 36.9825 112.592C36.9825 110.776 35.5107 109.304 33.6952 109.304C31.8796 109.304 30.4078 110.776 30.4078 112.592C30.4078 114.407 31.8796 115.879 33.6952 115.879Z" fill="white"/>
<path d="M33.6952 122.454C35.5107 122.454 36.9825 120.982 36.9825 119.166C36.9825 117.351 35.5107 115.879 33.6952 115.879C31.8796 115.879 30.4078 117.351 30.4078 119.166C30.4078 120.982 31.8796 122.454 33.6952 122.454Z" fill="white"/>
<path d="M33.6952 129.028C35.5107 129.028 36.9825 127.556 36.9825 125.741C36.9825 123.925 35.5107 122.454 33.6952 122.454C31.8796 122.454 30.4078 123.925 30.4078 125.741C30.4078 127.556 31.8796 129.028 33.6952 129.028Z" fill="white"/>
<path d="M33.6952 135.603C35.5107 135.603 36.9825 134.131 36.9825 132.316C36.9825 130.5 35.5107 129.028 33.6952 129.028C31.8796 129.028 30.4078 130.5 30.4078 132.316C30.4078 134.131 31.8796 135.603 33.6952 135.603Z" fill="white"/>
<path d="M40.2699 69.8559C42.0854 69.8559 43.5572 68.3841 43.5572 66.5686C43.5572 64.753 42.0854 63.2812 40.2699 63.2812C38.4543 63.2812 36.9825 64.753 36.9825 66.5686C36.9825 68.3841 38.4543 69.8559 40.2699 69.8559Z" fill="white"/>
<path d="M40.2699 76.4306C42.0854 76.4306 43.5572 74.9588 43.5572 73.1433C43.5572 71.3277 42.0854 69.856 40.2699 69.856C38.4543 69.856 36.9825 71.3277 36.9825 73.1433C36.9825 74.9588 38.4543 76.4306 40.2699 76.4306Z" fill="white"/>
<path d="M40.2699 83.0053C42.0854 83.0053 43.5572 81.5335 43.5572 79.718C43.5572 77.9025 42.0854 76.4307 40.2699 76.4307C38.4543 76.4307 36.9825 77.9025 36.9825 79.718C36.9825 81.5335 38.4543 83.0053 40.2699 83.0053Z" fill="white"/>
<path d="M40.2699 89.58C42.0854 89.58 43.5572 88.1083 43.5572 86.2927C43.5572 84.4772 42.0854 83.0054 40.2699 83.0054C38.4543 83.0054 36.9825 84.4772 36.9825 86.2927C36.9825 88.1083 38.4543 89.58 40.2699 89.58Z" fill="white"/>
<path d="M40.2699 109.304C42.0854 109.304 43.5572 107.832 43.5572 106.017C43.5572 104.201 42.0854 102.729 40.2699 102.729C38.4543 102.729 36.9825 104.201 36.9825 106.017C36.9825 107.832 38.4543 109.304 40.2699 109.304Z" fill="white"/>
<path d="M40.2699 115.879C42.0854 115.879 43.5572 114.407 43.5572 112.592C43.5572 110.776 42.0854 109.304 40.2699 109.304C38.4543 109.304 36.9825 110.776 36.9825 112.592C36.9825 114.407 38.4543 115.879 40.2699 115.879Z" fill="white"/>
<path d="M40.2699 135.603C42.0854 135.603 43.5572 134.131 43.5572 132.316C43.5572 130.5 42.0854 129.028 40.2699 129.028C38.4543 129.028 36.9825 130.5 36.9825 132.316C36.9825 134.131 38.4543 135.603 40.2699 135.603Z" fill="white"/>
<path d="M40.2699 142.178C42.0854 142.178 43.5572 140.706 43.5572 138.89C43.5572 137.075 42.0854 135.603 40.2699 135.603C38.4543 135.603 36.9825 137.075 36.9825 138.89C36.9825 140.706 38.4543 142.178 40.2699 142.178Z" fill="white"/>
<path d="M46.8446 83.0053C48.6601 83.0053 50.1319 81.5335 50.1319 79.718C50.1319 77.9025 48.6601 76.4307 46.8446 76.4307C45.029 76.4307 43.5573 77.9025 43.5573 79.718C43.5573 81.5335 45.029 83.0053 46.8446 83.0053Z" fill="white"/>
<path d="M46.8446 96.1548C48.6601 96.1548 50.1319 94.683 50.1319 92.8674C50.1319 91.0519 48.6601 89.5801 46.8446 89.5801C45.029 89.5801 43.5573 91.0519 43.5573 92.8674C43.5573 94.683 45.029 96.1548 46.8446 96.1548Z" fill="white"/>
<path d="M46.8446 102.729C48.6601 102.729 50.1319 101.258 50.1319 99.4421C50.1319 97.6266 48.6601 96.1548 46.8446 96.1548C45.029 96.1548 43.5573 97.6266 43.5573 99.4421C43.5573 101.258 45.029 102.729 46.8446 102.729Z" fill="white"/>
<path d="M46.8446 115.879C48.6601 115.879 50.1319 114.407 50.1319 112.592C50.1319 110.776 48.6601 109.304 46.8446 109.304C45.029 109.304 43.5573 110.776 43.5573 112.592C43.5573 114.407 45.029 115.879 46.8446 115.879Z" fill="white"/>
<path d="M46.8446 148.752C48.6601 148.752 50.1319 147.281 50.1319 145.465C50.1319 143.65 48.6601 142.178 46.8446 142.178C45.029 142.178 43.5573 143.65 43.5573 145.465C43.5573 147.281 45.029 148.752 46.8446 148.752Z" fill="white"/>
<path d="M53.4192 69.8559C55.2347 69.8559 56.7065 68.3841 56.7065 66.5686C56.7065 64.753 55.2347 63.2812 53.4192 63.2812C51.6036 63.2812 50.1318 64.753 50.1318 66.5686C50.1318 68.3841 51.6036 69.8559 53.4192 69.8559Z" fill="white"/>
<path d="M53.4192 83.0053C55.2347 83.0053 56.7065 81.5335 56.7065 79.718C56.7065 77.9025 55.2347 76.4307 53.4192 76.4307C51.6036 76.4307 50.1318 77.9025 50.1318 79.718C50.1318 81.5335 51.6036 83.0053 53.4192 83.0053Z" fill="white"/>
<path d="M53.4192 96.1548C55.2347 96.1548 56.7065 94.683 56.7065 92.8674C56.7065 91.0519 55.2347 89.5801 53.4192 89.5801C51.6036 89.5801 50.1318 91.0519 50.1318 92.8674C50.1318 94.683 51.6036 96.1548 53.4192 96.1548Z" fill="white"/>
<path d="M53.4192 109.304C55.2347 109.304 56.7065 107.832 56.7065 106.017C56.7065 104.201 55.2347 102.729 53.4192 102.729C51.6036 102.729 50.1318 104.201 50.1318 106.017C50.1318 107.832 51.6036 109.304 53.4192 109.304Z" fill="white"/>
<path d="M53.4192 122.454C55.2347 122.454 56.7065 120.982 56.7065 119.166C56.7065 117.351 55.2347 115.879 53.4192 115.879C51.6036 115.879 50.1318 117.351 50.1318 119.166C50.1318 120.982 51.6036 122.454 53.4192 122.454Z" fill="white"/>
<path d="M53.4192 135.603C55.2347 135.603 56.7065 134.131 56.7065 132.316C56.7065 130.5 55.2347 129.028 53.4192 129.028C51.6036 129.028 50.1318 130.5 50.1318 132.316C50.1318 134.131 51.6036 135.603 53.4192 135.603Z" fill="white"/>
<path d="M53.4192 148.752C55.2347 148.752 56.7065 147.281 56.7065 145.465C56.7065 143.65 55.2347 142.178 53.4192 142.178C51.6036 142.178 50.1318 143.65 50.1318 145.465C50.1318 147.281 51.6036 148.752 53.4192 148.752Z" fill="white"/>
<path d="M59.9939 69.8559C61.8094 69.8559 63.2812 68.3841 63.2812 66.5686C63.2812 64.753 61.8094 63.2812 59.9939 63.2812C58.1783 63.2812 56.7065 64.753 56.7065 66.5686C56.7065 68.3841 58.1783 69.8559 59.9939 69.8559Z" fill="white"/>
<path d="M59.9939 96.1548C61.8094 96.1548 63.2812 94.683 63.2812 92.8674C63.2812 91.0519 61.8094 89.5801 59.9939 89.5801C58.1783 89.5801 56.7065 91.0519 56.7065 92.8674C56.7065 94.683 58.1783 96.1548 59.9939 96.1548Z" fill="white"/>
<path d="M59.9939 109.304C61.8094 109.304 63.2812 107.832 63.2812 106.017C63.2812 104.201 61.8094 102.729 59.9939 102.729C58.1783 102.729 56.7065 104.201 56.7065 106.017C56.7065 107.832 58.1783 109.304 59.9939 109.304Z" fill="white"/>
<path d="M59.9939 115.879C61.8094 115.879 63.2812 114.407 63.2812 112.592C63.2812 110.776 61.8094 109.304 59.9939 109.304C58.1783 109.304 56.7065 110.776 56.7065 112.592C56.7065 114.407 58.1783 115.879 59.9939 115.879Z" fill="white"/>
<path d="M59.9939 129.028C61.8094 129.028 63.2812 127.556 63.2812 125.741C63.2812 123.925 61.8094 122.454 59.9939 122.454C58.1783 122.454 56.7065 123.925 56.7065 125.741C56.7065 127.556 58.1783 129.028 59.9939 129.028Z" fill="white"/>
<path d="M59.9939 135.603C61.8094 135.603 63.2812 134.131 63.2812 132.316C63.2812 130.5 61.8094 129.028 59.9939 129.028C58.1783 129.028 56.7065 130.5 56.7065 132.316C56.7065 134.131 58.1783 135.603 59.9939 135.603Z" fill="white"/>
<path d="M66.5686 23.8335C68.3841 23.8335 69.8559 22.3617 69.8559 20.5461C69.8559 18.7306 68.3841 17.2588 66.5686 17.2588C64.753 17.2588 63.2812 18.7306 63.2812 20.5461C63.2812 22.3617 64.753 23.8335 66.5686 23.8335Z" fill="white"/>
<path d="M66.5686 36.9829C68.3841 36.9829 69.8559 35.5111 69.8559 33.6955C69.8559 31.88 68.3841 30.4082 66.5686 30.4082C64.753 30.4082 63.2812 31.88 63.2812 33.6955C63.2812 35.5111 64.753 36.9829 66.5686 36.9829Z" fill="white"/>
<path d="M66.5686 43.5576C68.3841 43.5576 69.8559 42.0858 69.8559 40.2702C69.8559 38.4547 68.3841 36.9829 66.5686 36.9829C64.753 36.9829 63.2812 38.4547 63.2812 40.2702C63.2812 42.0858 64.753 43.5576 66.5686 43.5576Z" fill="white"/>
<path d="M66.5686 50.1323C68.3841 50.1323 69.8559 48.6605 69.8559 46.845C69.8559 45.0294 68.3841 43.5576 66.5686 43.5576C64.753 43.5576 63.2812 45.0294 63.2812 46.845C63.2812 48.6605 64.753 50.1323 66.5686 50.1323Z" fill="white"/>
<path d="M66.5686 56.707C68.3841 56.707 69.8559 55.2352 69.8559 53.4197C69.8559 51.6041 68.3841 50.1323 66.5686 50.1323C64.753 50.1323 63.2812 51.6041 63.2812 53.4197C63.2812 55.2352 64.753 56.707 66.5686 56.707Z" fill="white"/>
<path d="M66.5686 69.8559C68.3841 69.8559 69.8559 68.3841 69.8559 66.5686C69.8559 64.753 68.3841 63.2812 66.5686 63.2812C64.753 63.2812 63.2812 64.753 63.2812 66.5686C63.2812 68.3841 64.753 69.8559 66.5686 69.8559Z" fill="white"/>
<path d="M66.5686 89.58C68.3841 89.58 69.8559 88.1083 69.8559 86.2927C69.8559 84.4772 68.3841 83.0054 66.5686 83.0054C64.753 83.0054 63.2812 84.4772 63.2812 86.2927C63.2812 88.1083 64.753 89.58 66.5686 89.58Z" fill="white"/>
<path d="M66.5686 96.1548C68.3841 96.1548 69.8559 94.683 69.8559 92.8674C69.8559 91.0519 68.3841 89.5801 66.5686 89.5801C64.753 89.5801 63.2812 91.0519 63.2812 92.8674C63.2812 94.683 64.753 96.1548 66.5686 96.1548Z" fill="white"/>
<path d="M66.5686 102.729C68.3841 102.729 69.8559 101.258 69.8559 99.4421C69.8559 97.6266 68.3841 96.1548 66.5686 96.1548C64.753 96.1548 63.2812 97.6266 63.2812 99.4421C63.2812 101.258 64.753 102.729 66.5686 102.729Z" fill="white"/>
<path d="M66.5686 115.879C68.3841 115.879 69.8559 114.407 69.8559 112.592C69.8559 110.776 68.3841 109.304 66.5686 109.304C64.753 109.304 63.2812 110.776 63.2812 112.592C63.2812 114.407 64.753 115.879 66.5686 115.879Z" fill="white"/>
<path d="M66.5686 142.178C68.3841 142.178 69.8559 140.706 69.8559 138.89C69.8559 137.075 68.3841 135.603 66.5686 135.603C64.753 135.603 63.2812 137.075 63.2812 138.89C63.2812 140.706 64.753 142.178 66.5686 142.178Z" fill="white"/>
<path d="M66.5686 155.327C68.3841 155.327 69.8559 153.855 69.8559 152.04C69.8559 150.224 68.3841 148.752 66.5686 148.752C64.753 148.752 63.2812 150.224 63.2812 152.04C63.2812 153.855 64.753 155.327 66.5686 155.327Z" fill="white"/>
<path d="M66.5686 161.902C68.3841 161.902 69.8559 160.43 69.8559 158.614C69.8559 156.799 68.3841 155.327 66.5686 155.327C64.753 155.327 63.2812 156.799 63.2812 158.614C63.2812 160.43 64.753 161.902 66.5686 161.902Z" fill="white"/>
<path d="M66.5686 175.051C68.3841 175.051 69.8559 173.579 69.8559 171.763C69.8559 169.948 68.3841 168.476 66.5686 168.476C64.753 168.476 63.2812 169.948 63.2812 171.763C63.2812 173.579 64.753 175.051 66.5686 175.051Z" fill="white"/>
<path d="M66.5686 181.625C68.3841 181.625 69.8559 180.154 69.8559 178.338C69.8559 176.523 68.3841 175.051 66.5686 175.051C64.753 175.051 63.2812 176.523 63.2812 178.338C63.2812 180.154 64.753 181.625 66.5686 181.625Z" fill="white"/>
<path d="M66.5686 194.775C68.3841 194.775 69.8559 193.303 69.8559 191.488C69.8559 189.672 68.3841 188.2 66.5686 188.2C64.753 188.2 63.2812 189.672 63.2812 191.488C63.2812 193.303 64.753 194.775 66.5686 194.775Z" fill="white"/>
<path d="M73.1433 17.2588C74.9588 17.2588 76.4306 15.787 76.4306 13.9714C76.4306 12.1559 74.9588 10.6841 73.1433 10.6841C71.3277 10.6841 69.856 12.1559 69.856 13.9714C69.856 15.787 71.3277 17.2588 73.1433 17.2588Z" fill="white"/>
<path d="M73.1433 23.8335C74.9588 23.8335 76.4306 22.3617 76.4306 20.5461C76.4306 18.7306 74.9588 17.2588 73.1433 17.2588C71.3277 17.2588 69.856 18.7306 69.856 20.5461C69.856 22.3617 71.3277 23.8335 73.1433 23.8335Z" fill="white"/>
<path d="M73.1433 30.4082C74.9588 30.4082 76.4306 28.9364 76.4306 27.1208C76.4306 25.3053 74.9588 23.8335 73.1433 23.8335C71.3277 23.8335 69.856 25.3053 69.856 27.1208C69.856 28.9364 71.3277 30.4082 73.1433 30.4082Z" fill="white"/>
<path d="M73.1433 43.5576C74.9588 43.5576 76.4306 42.0858 76.4306 40.2702C76.4306 38.4547 74.9588 36.9829 73.1433 36.9829C71.3277 36.9829 69.856 38.4547 69.856 40.2702C69.856 42.0858 71.3277 43.5576 73.1433 43.5576Z" fill="white"/>
<path d="M73.1433 69.8559C74.9588 69.8559 76.4306 68.3841 76.4306 66.5686C76.4306 64.753 74.9588 63.2812 73.1433 63.2812C71.3277 63.2812 69.856 64.753 69.856 66.5686C69.856 68.3841 71.3277 69.8559 73.1433 69.8559Z" fill="white"/>
<path d="M73.1433 76.4306C74.9588 76.4306 76.4306 74.9588 76.4306 73.1433C76.4306 71.3277 74.9588 69.856 73.1433 69.856C71.3277 69.856 69.856 71.3277 69.856 73.1433C69.856 74.9588 71.3277 76.4306 73.1433 76.4306Z" fill="white"/>
<path d="M73.1433 89.58C74.9588 89.58 76.4306 88.1083 76.4306 86.2927C76.4306 84.4772 74.9588 83.0054 73.1433 83.0054C71.3277 83.0054 69.856 84.4772 69.856 86.2927C69.856 88.1083 71.3277 89.58 73.1433 89.58Z" fill="white"/>
<path d="M73.1433 102.729C74.9588 102.729 76.4306 101.258 76.4306 99.4421C76.4306 97.6266 74.9588 96.1548 73.1433 96.1548C71.3277 96.1548 69.856 97.6266 69.856 99.4421C69.856 101.258 71.3277 102.729 73.1433 102.729Z" fill="white"/>
<path d="M73.1433 122.454C74.9588 122.454 76.4306 120.982 76.4306 119.166C76.4306 117.351 74.9588 115.879 73.1433 115.879C71.3277 115.879 69.856 117.351 69.856 119.166C69.856 120.982 71.3277 122.454 73.1433 122.454Z" fill="white"/>
<path d="M73.1433 129.028C74.9588 129.028 76.4306 127.556 76.4306 125.741C76.4306 123.925 74.9588 122.454 73.1433 122.454C71.3277 122.454 69.856 123.925 69.856 125.741C69.856 127.556 71.3277 129.028 73.1433 129.028Z" fill="white"/>
<path d="M73.1433 135.603C74.9588 135.603 76.4306 134.131 76.4306 132.316C76.4306 130.5 74.9588 129.028 73.1433 129.028C71.3277 129.028 69.856 130.5 69.856 132.316C69.856 134.131 71.3277 135.603 73.1433 135.603Z" fill="white"/>
<path d="M73.1433 168.476C74.9588 168.476 76.4306 167.004 76.4306 165.189C76.4306 163.373 74.9588 161.901 73.1433 161.901C71.3277 161.901 69.856 163.373 69.856 165.189C69.856 167.004 71.3277 168.476 73.1433 168.476Z" fill="white"/>
<path d="M73.1433 175.051C74.9588 175.051 76.4306 173.579 76.4306 171.763C76.4306 169.948 74.9588 168.476 73.1433 168.476C71.3277 168.476 69.856 169.948 69.856 171.763C69.856 173.579 71.3277 175.051 73.1433 175.051Z" fill="white"/>
<path d="M73.1433 188.2C74.9588 188.2 76.4306 186.728 76.4306 184.913C76.4306 183.097 74.9588 181.625 73.1433 181.625C71.3277 181.625 69.856 183.097 69.856 184.913C69.856 186.728 71.3277 188.2 73.1433 188.2Z" fill="white"/>
<path d="M73.1433 194.775C74.9588 194.775 76.4306 193.303 76.4306 191.488C76.4306 189.672 74.9588 188.2 73.1433 188.2C71.3277 188.2 69.856 189.672 69.856 191.488C69.856 193.303 71.3277 194.775 73.1433 194.775Z" fill="white"/>
<path d="M79.7179 17.2588C81.5334 17.2588 83.0052 15.787 83.0052 13.9714C83.0052 12.1559 81.5334 10.6841 79.7179 10.6841C77.9023 10.6841 76.4305 12.1559 76.4305 13.9714C76.4305 15.787 77.9023 17.2588 79.7179 17.2588Z" fill="white"/>
<path d="M79.7179 23.8335C81.5334 23.8335 83.0052 22.3617 83.0052 20.5461C83.0052 18.7306 81.5334 17.2588 79.7179 17.2588C77.9023 17.2588 76.4305 18.7306 76.4305 20.5461C76.4305 22.3617 77.9023 23.8335 79.7179 23.8335Z" fill="white"/>
<path d="M79.7179 43.5576C81.5334 43.5576 83.0052 42.0858 83.0052 40.2702C83.0052 38.4547 81.5334 36.9829 79.7179 36.9829C77.9023 36.9829 76.4305 38.4547 76.4305 40.2702C76.4305 42.0858 77.9023 43.5576 79.7179 43.5576Z" fill="white"/>
<path d="M79.7179 56.707C81.5334 56.707 83.0052 55.2352 83.0052 53.4197C83.0052 51.6041 81.5334 50.1323 79.7179 50.1323C77.9023 50.1323 76.4305 51.6041 76.4305 53.4197C76.4305 55.2352 77.9023 56.707 79.7179 56.707Z" fill="white"/>
<path d="M79.7179 76.4306C81.5334 76.4306 83.0052 74.9588 83.0052 73.1433C83.0052 71.3277 81.5334 69.856 79.7179 69.856C77.9023 69.856 76.4305 71.3277 76.4305 73.1433C76.4305 74.9588 77.9023 76.4306 79.7179 76.4306Z" fill="white"/>
<path d="M79.7179 83.0053C81.5334 83.0053 83.0052 81.5335 83.0052 79.718C83.0052 77.9025 81.5334 76.4307 79.7179 76.4307C77.9023 76.4307 76.4305 77.9025 76.4305 79.718C76.4305 81.5335 77.9023 83.0053 79.7179 83.0053Z" fill="white"/>
<path d="M79.7179 89.58C81.5334 89.58 83.0052 88.1083 83.0052 86.2927C83.0052 84.4772 81.5334 83.0054 79.7179 83.0054C77.9023 83.0054 76.4305 84.4772 76.4305 86.2927C76.4305 88.1083 77.9023 89.58 79.7179 89.58Z" fill="white"/>
<path d="M79.7179 96.1548C81.5334 96.1548 83.0052 94.683 83.0052 92.8674C83.0052 91.0519 81.5334 89.5801 79.7179 89.5801C77.9023 89.5801 76.4305 91.0519 76.4305 92.8674C76.4305 94.683 77.9023 96.1548 79.7179 96.1548Z" fill="white"/>
<path d="M79.7179 142.178C81.5334 142.178 83.0052 140.706 83.0052 138.89C83.0052 137.075 81.5334 135.603 79.7179 135.603C77.9023 135.603 76.4305 137.075 76.4305 138.89C76.4305 140.706 77.9023 142.178 79.7179 142.178Z" fill="white"/>
<path d="M79.7179 148.752C81.5334 148.752 83.0052 147.281 83.0052 145.465C83.0052 143.65 81.5334 142.178 79.7179 142.178C77.9023 142.178 76.4305 143.65 76.4305 145.465C76.4305 147.281 77.9023 148.752 79.7179 148.752Z" fill="white"/>
<path d="M79.7179 155.327C81.5334 155.327 83.0052 153.855 83.0052 152.04C83.0052 150.224 81.5334 148.752 79.7179 148.752C77.9023 148.752 76.4305 150.224 76.4305 152.04C76.4305 153.855 77.9023 155.327 79.7179 155.327Z" fill="white"/>
<path d="M79.7179 161.902C81.5334 161.902 83.0052 160.43 83.0052 158.614C83.0052 156.799 81.5334 155.327 79.7179 155.327C77.9023 155.327 76.4305 156.799 76.4305 158.614C76.4305 160.43 77.9023 161.902 79.7179 161.902Z" fill="white"/>
<path d="M79.7179 175.051C81.5334 175.051 83.0052 173.579 83.0052 171.763C83.0052 169.948 81.5334 168.476 79.7179 168.476C77.9023 168.476 76.4305 169.948 76.4305 171.763C76.4305 173.579 77.9023 175.051 79.7179 175.051Z" fill="white"/>
<path d="M79.7179 181.625C81.5334 181.625 83.0052 180.154 83.0052 178.338C83.0052 176.523 81.5334 175.051 79.7179 175.051C77.9023 175.051 76.4305 176.523 76.4305 178.338C76.4305 180.154 77.9023 181.625 79.7179 181.625Z" fill="white"/>
<path d="M79.7179 188.2C81.5334 188.2 83.0052 186.728 83.0052 184.913C83.0052 183.097 81.5334 181.625 79.7179 181.625C77.9023 181.625 76.4305 183.097 76.4305 184.913C76.4305 186.728 77.9023 188.2 79.7179 188.2Z" fill="white"/>
<path d="M86.2926 23.8335C88.1081 23.8335 89.5799 22.3617 89.5799 20.5461C89.5799 18.7306 88.1081 17.2588 86.2926 17.2588C84.477 17.2588 83.0052 18.7306 83.0052 20.5461C83.0052 22.3617 84.477 23.8335 86.2926 23.8335Z" fill="white"/>
<path d="M86.2926 43.5576C88.1081 43.5576 89.5799 42.0858 89.5799 40.2702C89.5799 38.4547 88.1081 36.9829 86.2926 36.9829C84.477 36.9829 83.0052 38.4547 83.0052 40.2702C83.0052 42.0858 84.477 43.5576 86.2926 43.5576Z" fill="white"/>
<path d="M86.2926 50.1323C88.1081 50.1323 89.5799 48.6605 89.5799 46.845C89.5799 45.0294 88.1081 43.5576 86.2926 43.5576C84.477 43.5576 83.0052 45.0294 83.0052 46.845C83.0052 48.6605 84.477 50.1323 86.2926 50.1323Z" fill="white"/>
<path d="M86.2926 63.2817C88.1081 63.2817 89.5799 61.8099 89.5799 59.9944C89.5799 58.1788 88.1081 56.707 86.2926 56.707C84.477 56.707 83.0052 58.1788 83.0052 59.9944C83.0052 61.8099 84.477 63.2817 86.2926 63.2817Z" fill="white"/>
<path d="M86.2926 102.729C88.1081 102.729 89.5799 101.258 89.5799 99.4421C89.5799 97.6266 88.1081 96.1548 86.2926 96.1548C84.477 96.1548 83.0052 97.6266 83.0052 99.4421C83.0052 101.258 84.477 102.729 86.2926 102.729Z" fill="white"/>
<path d="M86.2926 109.304C88.1081 109.304 89.5799 107.832 89.5799 106.017C89.5799 104.201 88.1081 102.729 86.2926 102.729C84.477 102.729 83.0052 104.201 83.0052 106.017C83.0052 107.832 84.477 109.304 86.2926 109.304Z" fill="white"/>
<path d="M86.2926 115.879C88.1081 115.879 89.5799 114.407 89.5799 112.592C89.5799 110.776 88.1081 109.304 86.2926 109.304C84.477 109.304 83.0052 110.776 83.0052 112.592C83.0052 114.407 84.477 115.879 86.2926 115.879Z" fill="white"/>
<path d="M86.2926 122.454C88.1081 122.454 89.5799 120.982 89.5799 119.166C89.5799 117.351 88.1081 115.879 86.2926 115.879C84.477 115.879 83.0052 117.351 83.0052 119.166C83.0052 120.982 84.477 122.454 86.2926 122.454Z" fill="white"/>
<path d="M86.2926 129.028C88.1081 129.028 89.5799 127.556 89.5799 125.741C89.5799 123.925 88.1081 122.454 86.2926 122.454C84.477 122.454 83.0052 123.925 83.0052 125.741C83.0052 127.556 84.477 129.028 86.2926 129.028Z" fill="white"/>
<path d="M86.2926 135.603C88.1081 135.603 89.5799 134.131 89.5799 132.316C89.5799 130.5 88.1081 129.028 86.2926 129.028C84.477 129.028 83.0052 130.5 83.0052 132.316C83.0052 134.131 84.477 135.603 86.2926 135.603Z" fill="white"/>
<path d="M86.2926 142.178C88.1081 142.178 89.5799 140.706 89.5799 138.89C89.5799 137.075 88.1081 135.603 86.2926 135.603C84.477 135.603 83.0052 137.075 83.0052 138.89C83.0052 140.706 84.477 142.178 86.2926 142.178Z" fill="white"/>
<path d="M86.2926 148.752C88.1081 148.752 89.5799 147.281 89.5799 145.465C89.5799 143.65 88.1081 142.178 86.2926 142.178C84.477 142.178 83.0052 143.65 83.0052 145.465C83.0052 147.281 84.477 148.752 86.2926 148.752Z" fill="white"/>
<path d="M86.2926 168.476C88.1081 168.476 89.5799 167.004 89.5799 165.189C89.5799 163.373 88.1081 161.901 86.2926 161.901C84.477 161.901 83.0052 163.373 83.0052 165.189C83.0052 167.004 84.477 168.476 86.2926 168.476Z" fill="white"/>
<path d="M86.2926 181.625C88.1081 181.625 89.5799 180.154 89.5799 178.338C89.5799 176.523 88.1081 175.051 86.2926 175.051C84.477 175.051 83.0052 176.523 83.0052 178.338C83.0052 180.154 84.477 181.625 86.2926 181.625Z" fill="white"/>
<path d="M86.2926 201.35C88.1081 201.35 89.5799 199.878 89.5799 198.062C89.5799 196.247 88.1081 194.775 86.2926 194.775C84.477 194.775 83.0052 196.247 83.0052 198.062C83.0052 199.878 84.477 201.35 86.2926 201.35Z" fill="white"/>
<path d="M92.8673 23.8335C94.6828 23.8335 96.1546 22.3617 96.1546 20.5461C96.1546 18.7306 94.6828 17.2588 92.8673 17.2588C91.0517 17.2588 89.58 18.7306 89.58 20.5461C89.58 22.3617 91.0517 23.8335 92.8673 23.8335Z" fill="white"/>
<path d="M92.8673 50.1323C94.6828 50.1323 96.1546 48.6605 96.1546 46.845C96.1546 45.0294 94.6828 43.5576 92.8673 43.5576C91.0517 43.5576 89.58 45.0294 89.58 46.845C89.58 48.6605 91.0517 50.1323 92.8673 50.1323Z" fill="white"/>
<path d="M92.8673 56.707C94.6828 56.707 96.1546 55.2352 96.1546 53.4197C96.1546 51.6041 94.6828 50.1323 92.8673 50.1323C91.0517 50.1323 89.58 51.6041 89.58 53.4197C89.58 55.2352 91.0517 56.707 92.8673 56.707Z" fill="white"/>
<path d="M92.8673 63.2817C94.6828 63.2817 96.1546 61.8099 96.1546 59.9944C96.1546 58.1788 94.6828 56.707 92.8673 56.707C91.0517 56.707 89.58 58.1788 89.58 59.9944C89.58 61.8099 91.0517 63.2817 92.8673 63.2817Z" fill="white"/>
<path d="M92.8673 69.8559C94.6828 69.8559 96.1546 68.3841 96.1546 66.5686C96.1546 64.753 94.6828 63.2812 92.8673 63.2812C91.0517 63.2812 89.58 64.753 89.58 66.5686C89.58 68.3841 91.0517 69.8559 92.8673 69.8559Z" fill="white"/>
<path d="M92.8673 83.0053C94.6828 83.0053 96.1546 81.5335 96.1546 79.718C96.1546 77.9025 94.6828 76.4307 92.8673 76.4307C91.0517 76.4307 89.58 77.9025 89.58 79.718C89.58 81.5335 91.0517 83.0053 92.8673 83.0053Z" fill="white"/>
<path d="M92.8673 96.1548C94.6828 96.1548 96.1546 94.683 96.1546 92.8674C96.1546 91.0519 94.6828 89.5801 92.8673 89.5801C91.0517 89.5801 89.58 91.0519 89.58 92.8674C89.58 94.683 91.0517 96.1548 92.8673 96.1548Z" fill="white"/>
<path d="M92.8673 102.729C94.6828 102.729 96.1546 101.258 96.1546 99.4421C96.1546 97.6266 94.6828 96.1548 92.8673 96.1548C91.0517 96.1548 89.58 97.6266 89.58 99.4421C89.58 101.258 91.0517 102.729 92.8673 102.729Z" fill="white"/>
<path d="M92.8673 109.304C94.6828 109.304 96.1546 107.832 96.1546 106.017C96.1546 104.201 94.6828 102.729 92.8673 102.729C91.0517 102.729 89.58 104.201 89.58 106.017C89.58 107.832 91.0517 109.304 92.8673 109.304Z" fill="white"/>
<path d="M92.8673 155.327C94.6828 155.327 96.1546 153.855 96.1546 152.04C96.1546 150.224 94.6828 148.752 92.8673 148.752C91.0517 148.752 89.58 150.224 89.58 152.04C89.58 153.855 91.0517 155.327 92.8673 155.327Z" fill="white"/>
<path d="M92.8673 161.902C94.6828 161.902 96.1546 160.43 96.1546 158.614C96.1546 156.799 94.6828 155.327 92.8673 155.327C91.0517 155.327 89.58 156.799 89.58 158.614C89.58 160.43 91.0517 161.902 92.8673 161.902Z" fill="white"/>
<path d="M92.8673 181.625C94.6828 181.625 96.1546 180.154 96.1546 178.338C96.1546 176.523 94.6828 175.051 92.8673 175.051C91.0517 175.051 89.58 176.523 89.58 178.338C89.58 180.154 91.0517 181.625 92.8673 181.625Z" fill="white"/>
<path d="M92.8673 194.775C94.6828 194.775 96.1546 193.303 96.1546 191.488C96.1546 189.672 94.6828 188.2 92.8673 188.2C91.0517 188.2 89.58 189.672 89.58 191.488C89.58 193.303 91.0517 194.775 92.8673 194.775Z" fill="white"/>
<path d="M99.4419 17.2588C101.257 17.2588 102.729 15.787 102.729 13.9714C102.729 12.1559 101.257 10.6841 99.4419 10.6841C97.6264 10.6841 96.1546 12.1559 96.1546 13.9714C96.1546 15.787 97.6264 17.2588 99.4419 17.2588Z" fill="white"/>
<path d="M99.4419 30.4082C101.257 30.4082 102.729 28.9364 102.729 27.1208C102.729 25.3053 101.257 23.8335 99.4419 23.8335C97.6264 23.8335 96.1546 25.3053 96.1546 27.1208C96.1546 28.9364 97.6264 30.4082 99.4419 30.4082Z" fill="white"/>
<path d="M99.4419 36.9829C101.257 36.9829 102.729 35.5111 102.729 33.6955C102.729 31.88 101.257 30.4082 99.4419 30.4082C97.6264 30.4082 96.1546 31.88 96.1546 33.6955C96.1546 35.5111 97.6264 36.9829 99.4419 36.9829Z" fill="white"/>
<path d="M99.4419 50.1323C101.257 50.1323 102.729 48.6605 102.729 46.845C102.729 45.0294 101.257 43.5576 99.4419 43.5576C97.6264 43.5576 96.1546 45.0294 96.1546 46.845C96.1546 48.6605 97.6264 50.1323 99.4419 50.1323Z" fill="white"/>
<path d="M99.4419 63.2817C101.257 63.2817 102.729 61.8099 102.729 59.9944C102.729 58.1788 101.257 56.707 99.4419 56.707C97.6264 56.707 96.1546 58.1788 96.1546 59.9944C96.1546 61.8099 97.6264 63.2817 99.4419 63.2817Z" fill="white"/>
<path d="M99.4419 69.8559C101.257 69.8559 102.729 68.3841 102.729 66.5686C102.729 64.753 101.257 63.2812 99.4419 63.2812C97.6264 63.2812 96.1546 64.753 96.1546 66.5686C96.1546 68.3841 97.6264 69.8559 99.4419 69.8559Z" fill="white"/>
<path d="M99.4419 89.58C101.257 89.58 102.729 88.1083 102.729 86.2927C102.729 84.4772 101.257 83.0054 99.4419 83.0054C97.6264 83.0054 96.1546 84.4772 96.1546 86.2927C96.1546 88.1083 97.6264 89.58 99.4419 89.58Z" fill="white"/>
<path d="M99.4419 115.879C101.257 115.879 102.729 114.407 102.729 112.592C102.729 110.776 101.257 109.304 99.4419 109.304C97.6264 109.304 96.1546 110.776 96.1546 112.592C96.1546 114.407 97.6264 115.879 99.4419 115.879Z" fill="white"/>
<path d="M99.4419 122.454C101.257 122.454 102.729 120.982 102.729 119.166C102.729 117.351 101.257 115.879 99.4419 115.879C97.6264 115.879 96.1546 117.351 96.1546 119.166C96.1546 120.982 97.6264 122.454 99.4419 122.454Z" fill="white"/>
<path d="M99.4419 135.603C101.257 135.603 102.729 134.131 102.729 132.316C102.729 130.5 101.257 129.028 99.4419 129.028C97.6264 129.028 96.1546 130.5 96.1546 132.316C96.1546 134.131 97.6264 135.603 99.4419 135.603Z" fill="white"/>
<path d="M99.4419 161.902C101.257 161.902 102.729 160.43 102.729 158.614C102.729 156.799 101.257 155.327 99.4419 155.327C97.6264 155.327 96.1546 156.799 96.1546 158.614C96.1546 160.43 97.6264 161.902 99.4419 161.902Z" fill="white"/>
<path d="M99.4419 175.051C101.257 175.051 102.729 173.579 102.729 171.763C102.729 169.948 101.257 168.476 99.4419 168.476C97.6264 168.476 96.1546 169.948 96.1546 171.763C96.1546 173.579 97.6264 175.051 99.4419 175.051Z" fill="white"/>
<path d="M99.4419 188.2C101.257 188.2 102.729 186.728 102.729 184.913C102.729 183.097 101.257 181.625 99.4419 181.625C97.6264 181.625 96.1546 183.097 96.1546 184.913C96.1546 186.728 97.6264 188.2 99.4419 188.2Z" fill="white"/>
<path d="M99.4419 201.35C101.257 201.35 102.729 199.878 102.729 198.062C102.729 196.247 101.257 194.775 99.4419 194.775C97.6264 194.775 96.1546 196.247 96.1546 198.062C96.1546 199.878 97.6264 201.35 99.4419 201.35Z" fill="white"/>
<path d="M106.017 17.2588C107.832 17.2588 109.304 15.787 109.304 13.9714C109.304 12.1559 107.832 10.6841 106.017 10.6841C104.201 10.6841 102.729 12.1559 102.729 13.9714C102.729 15.787 104.201 17.2588 106.017 17.2588Z" fill="white"/>
<path d="M106.017 23.8335C107.832 23.8335 109.304 22.3617 109.304 20.5461C109.304 18.7306 107.832 17.2588 106.017 17.2588C104.201 17.2588 102.729 18.7306 102.729 20.5461C102.729 22.3617 104.201 23.8335 106.017 23.8335Z" fill="white"/>
<path d="M106.017 30.4082C107.832 30.4082 109.304 28.9364 109.304 27.1208C109.304 25.3053 107.832 23.8335 106.017 23.8335C104.201 23.8335 102.729 25.3053 102.729 27.1208C102.729 28.9364 104.201 30.4082 106.017 30.4082Z" fill="white"/>
<path d="M106.017 43.5576C107.832 43.5576 109.304 42.0858 109.304 40.2702C109.304 38.4547 107.832 36.9829 106.017 36.9829C104.201 36.9829 102.729 38.4547 102.729 40.2702C102.729 42.0858 104.201 43.5576 106.017 43.5576Z" fill="white"/>
<path d="M106.017 50.1323C107.832 50.1323 109.304 48.6605 109.304 46.845C109.304 45.0294 107.832 43.5576 106.017 43.5576C104.201 43.5576 102.729 45.0294 102.729 46.845C102.729 48.6605 104.201 50.1323 106.017 50.1323Z" fill="white"/>
<path d="M106.017 56.707C107.832 56.707 109.304 55.2352 109.304 53.4197C109.304 51.6041 107.832 50.1323 106.017 50.1323C104.201 50.1323 102.729 51.6041 102.729 53.4197C102.729 55.2352 104.201 56.707 106.017 56.707Z" fill="white"/>
<path d="M106.017 63.2817C107.832 63.2817 109.304 61.8099 109.304 59.9944C109.304 58.1788 107.832 56.707 106.017 56.707C104.201 56.707 102.729 58.1788 102.729 59.9944C102.729 61.8099 104.201 63.2817 106.017 63.2817Z" fill="white"/>
<path d="M106.017 69.8559C107.832 69.8559 109.304 68.3841 109.304 66.5686C109.304 64.753 107.832 63.2812 106.017 63.2812C104.201 63.2812 102.729 64.753 102.729 66.5686C102.729 68.3841 104.201 69.8559 106.017 69.8559Z" fill="white"/>
<path d="M106.017 96.1548C107.832 96.1548 109.304 94.683 109.304 92.8674C109.304 91.0519 107.832 89.5801 106.017 89.5801C104.201 89.5801 102.729 91.0519 102.729 92.8674C102.729 94.683 104.201 96.1548 106.017 96.1548Z" fill="white"/>
<path d="M106.017 109.304C107.832 109.304 109.304 107.832 109.304 106.017C109.304 104.201 107.832 102.729 106.017 102.729C104.201 102.729 102.729 104.201 102.729 106.017C102.729 107.832 104.201 109.304 106.017 109.304Z" fill="white"/>
<path d="M106.017 122.454C107.832 122.454 109.304 120.982 109.304 119.166C109.304 117.351 107.832 115.879 106.017 115.879C104.201 115.879 102.729 117.351 102.729 119.166C102.729 120.982 104.201 122.454 106.017 122.454Z" fill="white"/>
<path d="M106.017 135.603C107.832 135.603 109.304 134.131 109.304 132.316C109.304 130.5 107.832 129.028 106.017 129.028C104.201 129.028 102.729 130.5 102.729 132.316C102.729 134.131 104.201 135.603 106.017 135.603Z" fill="white"/>
<path d="M106.017 142.178C107.832 142.178 109.304 140.706 109.304 138.89C109.304 137.075 107.832 135.603 106.017 135.603C104.201 135.603 102.729 137.075 102.729 138.89C102.729 140.706 104.201 142.178 106.017 142.178Z" fill="white"/>
<path d="M106.017 148.752C107.832 148.752 109.304 147.281 109.304 145.465C109.304 143.65 107.832 142.178 106.017 142.178C104.201 142.178 102.729 143.65 102.729 145.465C102.729 147.281 104.201 148.752 106.017 148.752Z" fill="white"/>
<path d="M106.017 168.476C107.832 168.476 109.304 167.004 109.304 165.189C109.304 163.373 107.832 161.901 106.017 161.901C104.201 161.901 102.729 163.373 102.729 165.189C102.729 167.004 104.201 168.476 106.017 168.476Z" fill="white"/>
<path d="M106.017 181.625C107.832 181.625 109.304 180.154 109.304 178.338C109.304 176.523 107.832 175.051 106.017 175.051C104.201 175.051 102.729 176.523 102.729 178.338C102.729 180.154 104.201 181.625 106.017 181.625Z" fill="white"/>
<path d="M106.017 201.35C107.832 201.35 109.304 199.878 109.304 198.062C109.304 196.247 107.832 194.775 106.017 194.775C104.201 194.775 102.729 196.247 102.729 198.062C102.729 199.878 104.201 201.35 106.017 201.35Z" fill="white"/>
<path d="M112.591 23.8335C114.407 23.8335 115.879 22.3617 115.879 20.5461C115.879 18.7306 114.407 17.2588 112.591 17.2588C110.776 17.2588 109.304 18.7306 109.304 20.5461C109.304 22.3617 110.776 23.8335 112.591 23.8335Z" fill="white"/>
<path d="M112.591 30.4082C114.407 30.4082 115.879 28.9364 115.879 27.1208C115.879 25.3053 114.407 23.8335 112.591 23.8335C110.776 23.8335 109.304 25.3053 109.304 27.1208C109.304 28.9364 110.776 30.4082 112.591 30.4082Z" fill="white"/>
<path d="M112.591 36.9829C114.407 36.9829 115.879 35.5111 115.879 33.6955C115.879 31.88 114.407 30.4082 112.591 30.4082C110.776 30.4082 109.304 31.88 109.304 33.6955C109.304 35.5111 110.776 36.9829 112.591 36.9829Z" fill="white"/>
<path d="M112.591 50.1323C114.407 50.1323 115.879 48.6605 115.879 46.845C115.879 45.0294 114.407 43.5576 112.591 43.5576C110.776 43.5576 109.304 45.0294 109.304 46.845C109.304 48.6605 110.776 50.1323 112.591 50.1323Z" fill="white"/>
<path d="M112.591 102.729C114.407 102.729 115.879 101.258 115.879 99.4421C115.879 97.6266 114.407 96.1548 112.591 96.1548C110.776 96.1548 109.304 97.6266 109.304 99.4421C109.304 101.258 110.776 102.729 112.591 102.729Z" fill="white"/>
<path d="M112.591 109.304C114.407 109.304 115.879 107.832 115.879 106.017C115.879 104.201 114.407 102.729 112.591 102.729C110.776 102.729 109.304 104.201 109.304 106.017C109.304 107.832 110.776 109.304 112.591 109.304Z" fill="white"/>
<path d="M112.591 115.879C114.407 115.879 115.879 114.407 115.879 112.592C115.879 110.776 114.407 109.304 112.591 109.304C110.776 109.304 109.304 110.776 109.304 112.592C109.304 114.407 110.776 115.879 112.591 115.879Z" fill="white"/>
<path d="M112.591 142.178C114.407 142.178 115.879 140.706 115.879 138.89C115.879 137.075 114.407 135.603 112.591 135.603C110.776 135.603 109.304 137.075 109.304 138.89C109.304 140.706 110.776 142.178 112.591 142.178Z" fill="white"/>
<path d="M112.591 155.327C114.407 155.327 115.879 153.855 115.879 152.04C115.879 150.224 114.407 148.752 112.591 148.752C110.776 148.752 109.304 150.224 109.304 152.04C109.304 153.855 110.776 155.327 112.591 155.327Z" fill="white"/>
<path d="M112.591 175.051C114.407 175.051 115.879 173.579 115.879 171.763C115.879 169.948 114.407 168.476 112.591 168.476C110.776 168.476 109.304 169.948 109.304 171.763C109.304 173.579 110.776 175.051 112.591 175.051Z" fill="white"/>
<path d="M112.591 181.625C114.407 181.625 115.879 180.154 115.879 178.338C115.879 176.523 114.407 175.051 112.591 175.051C110.776 175.051 109.304 176.523 109.304 178.338C109.304 180.154 110.776 181.625 112.591 181.625Z" fill="white"/>
<path d="M112.591 188.2C114.407 188.2 115.879 186.728 115.879 184.913C115.879 183.097 114.407 181.625 112.591 181.625C110.776 181.625 109.304 183.097 109.304 184.913C109.304 186.728 110.776 188.2 112.591 188.2Z" fill="white"/>
<path d="M112.591 194.775C114.407 194.775 115.879 193.303 115.879 191.488C115.879 189.672 114.407 188.2 112.591 188.2C110.776 188.2 109.304 189.672 109.304 191.488C109.304 193.303 110.776 194.775 112.591 194.775Z" fill="white"/>
<path d="M119.166 17.2588C120.982 17.2588 122.453 15.787 122.453 13.9714C122.453 12.1559 120.982 10.6841 119.166 10.6841C117.35 10.6841 115.879 12.1559 115.879 13.9714C115.879 15.787 117.35 17.2588 119.166 17.2588Z" fill="white"/>
<path d="M119.166 23.8335C120.982 23.8335 122.453 22.3617 122.453 20.5461C122.453 18.7306 120.982 17.2588 119.166 17.2588C117.35 17.2588 115.879 18.7306 115.879 20.5461C115.879 22.3617 117.35 23.8335 119.166 23.8335Z" fill="white"/>
<path d="M119.166 36.9829C120.982 36.9829 122.453 35.5111 122.453 33.6955C122.453 31.88 120.982 30.4082 119.166 30.4082C117.35 30.4082 115.879 31.88 115.879 33.6955C115.879 35.5111 117.35 36.9829 119.166 36.9829Z" fill="white"/>
<path d="M119.166 56.707C120.982 56.707 122.453 55.2352 122.453 53.4197C122.453 51.6041 120.982 50.1323 119.166 50.1323C117.35 50.1323 115.879 51.6041 115.879 53.4197C115.879 55.2352 117.35 56.707 119.166 56.707Z" fill="white"/>
<path d="M119.166 102.729C120.982 102.729 122.453 101.258 122.453 99.4421C122.453 97.6266 120.982 96.1548 119.166 96.1548C117.35 96.1548 115.879 97.6266 115.879 99.4421C115.879 101.258 117.35 102.729 119.166 102.729Z" fill="white"/>
<path d="M119.166 109.304C120.982 109.304 122.453 107.832 122.453 106.017C122.453 104.201 120.982 102.729 119.166 102.729C117.35 102.729 115.879 104.201 115.879 106.017C115.879 107.832 117.35 109.304 119.166 109.304Z" fill="white"/>
<path d="M119.166 115.879C120.982 115.879 122.453 114.407 122.453 112.592C122.453 110.776 120.982 109.304 119.166 109.304C117.35 109.304 115.879 110.776 115.879 112.592C115.879 114.407 117.35 115.879 119.166 115.879Z" fill="white"/>
<path d="M119.166 129.028C120.982 129.028 122.453 127.556 122.453 125.741C122.453 123.925 120.982 122.454 119.166 122.454C117.35 122.454 115.879 123.925 115.879 125.741C115.879 127.556 117.35 129.028 119.166 129.028Z" fill="white"/>
<path d="M119.166 135.603C120.982 135.603 122.453 134.131 122.453 132.316C122.453 130.5 120.982 129.028 119.166 129.028C117.35 129.028 115.879 130.5 115.879 132.316C115.879 134.131 117.35 135.603 119.166 135.603Z" fill="white"/>
<path d="M119.166 155.327C120.982 155.327 122.453 153.855 122.453 152.04C122.453 150.224 120.982 148.752 119.166 148.752C117.35 148.752 115.879 150.224 115.879 152.04C115.879 153.855 117.35 155.327 119.166 155.327Z" fill="white"/>
<path d="M119.166 168.476C120.982 168.476 122.453 167.004 122.453 165.189C122.453 163.373 120.982 161.901 119.166 161.901C117.35 161.901 115.879 163.373 115.879 165.189C115.879 167.004 117.35 168.476 119.166 168.476Z" fill="white"/>
<path d="M119.166 181.625C120.982 181.625 122.453 180.154 122.453 178.338C122.453 176.523 120.982 175.051 119.166 175.051C117.35 175.051 115.879 176.523 115.879 178.338C115.879 180.154 117.35 181.625 119.166 181.625Z" fill="white"/>
<path d="M119.166 194.775C120.982 194.775 122.453 193.303 122.453 191.488C122.453 189.672 120.982 188.2 119.166 188.2C117.35 188.2 115.879 189.672 115.879 191.488C115.879 193.303 117.35 194.775 119.166 194.775Z" fill="white"/>
<path d="M125.741 17.2588C127.556 17.2588 129.028 15.787 129.028 13.9714C129.028 12.1559 127.556 10.6841 125.741 10.6841C123.925 10.6841 122.453 12.1559 122.453 13.9714C122.453 15.787 123.925 17.2588 125.741 17.2588Z" fill="white"/>
<path d="M125.741 23.8335C127.556 23.8335 129.028 22.3617 129.028 20.5461C129.028 18.7306 127.556 17.2588 125.741 17.2588C123.925 17.2588 122.453 18.7306 122.453 20.5461C122.453 22.3617 123.925 23.8335 125.741 23.8335Z" fill="white"/>
<path d="M125.741 43.5576C127.556 43.5576 129.028 42.0858 129.028 40.2702C129.028 38.4547 127.556 36.9829 125.741 36.9829C123.925 36.9829 122.453 38.4547 122.453 40.2702C122.453 42.0858 123.925 43.5576 125.741 43.5576Z" fill="white"/>
<path d="M125.741 89.58C127.556 89.58 129.028 88.1083 129.028 86.2927C129.028 84.4772 127.556 83.0054 125.741 83.0054C123.925 83.0054 122.453 84.4772 122.453 86.2927C122.453 88.1083 123.925 89.58 125.741 89.58Z" fill="white"/>
<path d="M125.741 109.304C127.556 109.304 129.028 107.832 129.028 106.017C129.028 104.201 127.556 102.729 125.741 102.729C123.925 102.729 122.453 104.201 122.453 106.017C122.453 107.832 123.925 109.304 125.741 109.304Z" fill="white"/>
<path d="M125.741 129.028C127.556 129.028 129.028 127.556 129.028 125.741C129.028 123.925 127.556 122.454 125.741 122.454C123.925 122.454 122.453 123.925 122.453 125.741C122.453 127.556 123.925 129.028 125.741 129.028Z" fill="white"/>
<path d="M125.741 161.902C127.556 161.902 129.028 160.43 129.028 158.614C129.028 156.799 127.556 155.327 125.741 155.327C123.925 155.327 122.453 156.799 122.453 158.614C122.453 160.43 123.925 161.902 125.741 161.902Z" fill="white"/>
<path d="M125.741 175.051C127.556 175.051 129.028 173.579 129.028 171.763C129.028 169.948 127.556 168.476 125.741 168.476C123.925 168.476 122.453 169.948 122.453 171.763C122.453 173.579 123.925 175.051 125.741 175.051Z" fill="white"/>
<path d="M125.741 181.625C127.556 181.625 129.028 180.154 129.028 178.338C129.028 176.523 127.556 175.051 125.741 175.051C123.925 175.051 122.453 176.523 122.453 178.338C122.453 180.154 123.925 181.625 125.741 181.625Z" fill="white"/>
<path d="M125.741 188.2C127.556 188.2 129.028 186.728 129.028 184.913C129.028 183.097 127.556 181.625 125.741 181.625C123.925 181.625 122.453 183.097 122.453 184.913C122.453 186.728 123.925 188.2 125.741 188.2Z" fill="white"/>
<path d="M132.315 17.2588C134.131 17.2588 135.603 15.787 135.603 13.9714C135.603 12.1559 134.131 10.6841 132.315 10.6841C130.5 10.6841 129.028 12.1559 129.028 13.9714C129.028 15.787 130.5 17.2588 132.315 17.2588Z" fill="white"/>
<path d="M132.315 23.8335C134.131 23.8335 135.603 22.3617 135.603 20.5461C135.603 18.7306 134.131 17.2588 132.315 17.2588C130.5 17.2588 129.028 18.7306 129.028 20.5461C129.028 22.3617 130.5 23.8335 132.315 23.8335Z" fill="white"/>
<path d="M132.315 30.4082C134.131 30.4082 135.603 28.9364 135.603 27.1208C135.603 25.3053 134.131 23.8335 132.315 23.8335C130.5 23.8335 129.028 25.3053 129.028 27.1208C129.028 28.9364 130.5 30.4082 132.315 30.4082Z" fill="white"/>
<path d="M132.315 43.5576C134.131 43.5576 135.603 42.0858 135.603 40.2702C135.603 38.4547 134.131 36.9829 132.315 36.9829C130.5 36.9829 129.028 38.4547 129.028 40.2702C129.028 42.0858 130.5 43.5576 132.315 43.5576Z" fill="white"/>
<path d="M132.315 56.707C134.131 56.707 135.603 55.2352 135.603 53.4197C135.603 51.6041 134.131 50.1323 132.315 50.1323C130.5 50.1323 129.028 51.6041 129.028 53.4197C129.028 55.2352 130.5 56.707 132.315 56.707Z" fill="white"/>
<path d="M132.315 109.304C134.131 109.304 135.603 107.832 135.603 106.017C135.603 104.201 134.131 102.729 132.315 102.729C130.5 102.729 129.028 104.201 129.028 106.017C129.028 107.832 130.5 109.304 132.315 109.304Z" fill="white"/>
<path d="M132.315 122.454C134.131 122.454 135.603 120.982 135.603 119.166C135.603 117.351 134.131 115.879 132.315 115.879C130.5 115.879 129.028 117.351 129.028 119.166C129.028 120.982 130.5 122.454 132.315 122.454Z" fill="white"/>
<path d="M132.315 129.028C134.131 129.028 135.603 127.556 135.603 125.741C135.603 123.925 134.131 122.454 132.315 122.454C130.5 122.454 129.028 123.925 129.028 125.741C129.028 127.556 130.5 129.028 132.315 129.028Z" fill="white"/>
<path d="M132.315 135.603C134.131 135.603 135.603 134.131 135.603 132.316C135.603 130.5 134.131 129.028 132.315 129.028C130.5 129.028 129.028 130.5 129.028 132.316C129.028 134.131 130.5 135.603 132.315 135.603Z" fill="white"/>
<path d="M132.315 142.178C134.131 142.178 135.603 140.706 135.603 138.89C135.603 137.075 134.131 135.603 132.315 135.603C130.5 135.603 129.028 137.075 129.028 138.89C129.028 140.706 130.5 142.178 132.315 142.178Z" fill="white"/>
<path d="M132.315 168.476C134.131 168.476 135.603 167.004 135.603 165.189C135.603 163.373 134.131 161.901 132.315 161.901C130.5 161.901 129.028 163.373 129.028 165.189C129.028 167.004 130.5 168.476 132.315 168.476Z" fill="white"/>
<path d="M132.315 181.625C134.131 181.625 135.603 180.154 135.603 178.338C135.603 176.523 134.131 175.051 132.315 175.051C130.5 175.051 129.028 176.523 129.028 178.338C129.028 180.154 130.5 181.625 132.315 181.625Z" fill="white"/>
<path d="M132.315 188.2C134.131 188.2 135.603 186.728 135.603 184.913C135.603 183.097 134.131 181.625 132.315 181.625C130.5 181.625 129.028 183.097 129.028 184.913C129.028 186.728 130.5 188.2 132.315 188.2Z" fill="white"/>
<path d="M132.315 201.35C134.131 201.35 135.603 199.878 135.603 198.062C135.603 196.247 134.131 194.775 132.315 194.775C130.5 194.775 129.028 196.247 129.028 198.062C129.028 199.878 130.5 201.35 132.315 201.35Z" fill="white"/>
<path d="M138.89 17.2588C140.706 17.2588 142.177 15.787 142.177 13.9714C142.177 12.1559 140.706 10.6841 138.89 10.6841C137.074 10.6841 135.603 12.1559 135.603 13.9714C135.603 15.787 137.074 17.2588 138.89 17.2588Z" fill="white"/>
<path d="M138.89 23.8335C140.706 23.8335 142.177 22.3617 142.177 20.5461C142.177 18.7306 140.706 17.2588 138.89 17.2588C137.074 17.2588 135.603 18.7306 135.603 20.5461C135.603 22.3617 137.074 23.8335 138.89 23.8335Z" fill="white"/>
<path d="M138.89 36.9829C140.706 36.9829 142.177 35.5111 142.177 33.6955C142.177 31.88 140.706 30.4082 138.89 30.4082C137.074 30.4082 135.603 31.88 135.603 33.6955C135.603 35.5111 137.074 36.9829 138.89 36.9829Z" fill="white"/>
<path d="M138.89 43.5576C140.706 43.5576 142.177 42.0858 142.177 40.2702C142.177 38.4547 140.706 36.9829 138.89 36.9829C137.074 36.9829 135.603 38.4547 135.603 40.2702C135.603 42.0858 137.074 43.5576 138.89 43.5576Z" fill="white"/>
<path d="M138.89 76.4306C140.706 76.4306 142.177 74.9588 142.177 73.1433C142.177 71.3277 140.706 69.856 138.89 69.856C137.074 69.856 135.603 71.3277 135.603 73.1433C135.603 74.9588 137.074 76.4306 138.89 76.4306Z" fill="white"/>
<path d="M138.89 83.0053C140.706 83.0053 142.177 81.5335 142.177 79.718C142.177 77.9025 140.706 76.4307 138.89 76.4307C137.074 76.4307 135.603 77.9025 135.603 79.718C135.603 81.5335 137.074 83.0053 138.89 83.0053Z" fill="white"/>
<path d="M138.89 89.58C140.706 89.58 142.177 88.1083 142.177 86.2927C142.177 84.4772 140.706 83.0054 138.89 83.0054C137.074 83.0054 135.603 84.4772 135.603 86.2927C135.603 88.1083 137.074 89.58 138.89 89.58Z" fill="white"/>
<path d="M138.89 109.304C140.706 109.304 142.177 107.832 142.177 106.017C142.177 104.201 140.706 102.729 138.89 102.729C137.074 102.729 135.603 104.201 135.603 106.017C135.603 107.832 137.074 109.304 138.89 109.304Z" fill="white"/>
<path d="M138.89 115.879C140.706 115.879 142.177 114.407 142.177 112.592C142.177 110.776 140.706 109.304 138.89 109.304C137.074 109.304 135.603 110.776 135.603 112.592C135.603 114.407 137.074 115.879 138.89 115.879Z" fill="white"/>
<path d="M138.89 122.454C140.706 122.454 142.177 120.982 142.177 119.166C142.177 117.351 140.706 115.879 138.89 115.879C137.074 115.879 135.603 117.351 135.603 119.166C135.603 120.982 137.074 122.454 138.89 122.454Z" fill="white"/>
<path d="M138.89 142.178C140.706 142.178 142.177 140.706 142.177 138.89C142.177 137.075 140.706 135.603 138.89 135.603C137.074 135.603 135.603 137.075 135.603 138.89C135.603 140.706 137.074 142.178 138.89 142.178Z" fill="white"/>
<path d="M138.89 148.752C140.706 148.752 142.177 147.281 142.177 145.465C142.177 143.65 140.706 142.178 138.89 142.178C137.074 142.178 135.603 143.65 135.603 145.465C135.603 147.281 137.074 148.752 138.89 148.752Z" fill="white"/>
<path d="M138.89 155.327C140.706 155.327 142.177 153.855 142.177 152.04C142.177 150.224 140.706 148.752 138.89 148.752C137.074 148.752 135.603 150.224 135.603 152.04C135.603 153.855 137.074 155.327 138.89 155.327Z" fill="white"/>
<path d="M138.89 161.902C140.706 161.902 142.177 160.43 142.177 158.614C142.177 156.799 140.706 155.327 138.89 155.327C137.074 155.327 135.603 156.799 135.603 158.614C135.603 160.43 137.074 161.902 138.89 161.902Z" fill="white"/>
<path d="M138.89 168.476C140.706 168.476 142.177 167.004 142.177 165.189C142.177 163.373 140.706 161.901 138.89 161.901C137.074 161.901 135.603 163.373 135.603 165.189C135.603 167.004 137.074 168.476 138.89 168.476Z" fill="white"/>
<path d="M138.89 188.2C140.706 188.2 142.177 186.728 142.177 184.913C142.177 183.097 140.706 181.625 138.89 181.625C137.074 181.625 135.603 183.097 135.603 184.913C135.603 186.728 137.074 188.2 138.89 188.2Z" fill="white"/>
<path d="M138.89 194.775C140.706 194.775 142.177 193.303 142.177 191.488C142.177 189.672 140.706 188.2 138.89 188.2C137.074 188.2 135.603 189.672 135.603 191.488C135.603 193.303 137.074 194.775 138.89 194.775Z" fill="white"/>
<path d="M138.89 201.35C140.706 201.35 142.177 199.878 142.177 198.062C142.177 196.247 140.706 194.775 138.89 194.775C137.074 194.775 135.603 196.247 135.603 198.062C135.603 199.878 137.074 201.35 138.89 201.35Z" fill="white"/>
<path d="M145.465 17.2588C147.28 17.2588 148.752 15.787 148.752 13.9714C148.752 12.1559 147.28 10.6841 145.465 10.6841C143.649 10.6841 142.177 12.1559 142.177 13.9714C142.177 15.787 143.649 17.2588 145.465 17.2588Z" fill="white"/>
<path d="M145.465 23.8335C147.28 23.8335 148.752 22.3617 148.752 20.5461C148.752 18.7306 147.28 17.2588 145.465 17.2588C143.649 17.2588 142.177 18.7306 142.177 20.5461C142.177 22.3617 143.649 23.8335 145.465 23.8335Z" fill="white"/>
<path d="M145.465 36.9829C147.28 36.9829 148.752 35.5111 148.752 33.6955C148.752 31.88 147.28 30.4082 145.465 30.4082C143.649 30.4082 142.177 31.88 142.177 33.6955C142.177 35.5111 143.649 36.9829 145.465 36.9829Z" fill="white"/>
<path d="M145.465 56.707C147.28 56.707 148.752 55.2352 148.752 53.4197C148.752 51.6041 147.28 50.1323 145.465 50.1323C143.649 50.1323 142.177 51.6041 142.177 53.4197C142.177 55.2352 143.649 56.707 145.465 56.707Z" fill="white"/>
<path d="M145.465 63.2817C147.28 63.2817 148.752 61.8099 148.752 59.9944C148.752 58.1788 147.28 56.707 145.465 56.707C143.649 56.707 142.177 58.1788 142.177 59.9944C142.177 61.8099 143.649 63.2817 145.465 63.2817Z" fill="white"/>
<path d="M145.465 69.8559C147.28 69.8559 148.752 68.3841 148.752 66.5686C148.752 64.753 147.28 63.2812 145.465 63.2812C143.649 63.2812 142.177 64.753 142.177 66.5686C142.177 68.3841 143.649 69.8559 145.465 69.8559Z" fill="white"/>
<path d="M145.465 76.4306C147.28 76.4306 148.752 74.9588 148.752 73.1433C148.752 71.3277 147.28 69.856 145.465 69.856C143.649 69.856 142.177 71.3277 142.177 73.1433C142.177 74.9588 143.649 76.4306 145.465 76.4306Z" fill="white"/>
<path d="M145.465 89.58C147.28 89.58 148.752 88.1083 148.752 86.2927C148.752 84.4772 147.28 83.0054 145.465 83.0054C143.649 83.0054 142.177 84.4772 142.177 86.2927C142.177 88.1083 143.649 89.58 145.465 89.58Z" fill="white"/>
<path d="M145.465 96.1548C147.28 96.1548 148.752 94.683 148.752 92.8674C148.752 91.0519 147.28 89.5801 145.465 89.5801C143.649 89.5801 142.177 91.0519 142.177 92.8674C142.177 94.683 143.649 96.1548 145.465 96.1548Z" fill="white"/>
<path d="M145.465 102.729C147.28 102.729 148.752 101.258 148.752 99.4421C148.752 97.6266 147.28 96.1548 145.465 96.1548C143.649 96.1548 142.177 97.6266 142.177 99.4421C142.177 101.258 143.649 102.729 145.465 102.729Z" fill="white"/>
<path d="M145.465 109.304C147.28 109.304 148.752 107.832 148.752 106.017C148.752 104.201 147.28 102.729 145.465 102.729C143.649 102.729 142.177 104.201 142.177 106.017C142.177 107.832 143.649 109.304 145.465 109.304Z" fill="white"/>
<path d="M145.465 129.028C147.28 129.028 148.752 127.556 148.752 125.741C148.752 123.925 147.28 122.454 145.465 122.454C143.649 122.454 142.177 123.925 142.177 125.741C142.177 127.556 143.649 129.028 145.465 129.028Z" fill="white"/>
<path d="M145.465 142.178C147.28 142.178 148.752 140.706 148.752 138.89C148.752 137.075 147.28 135.603 145.465 135.603C143.649 135.603 142.177 137.075 142.177 138.89C142.177 140.706 143.649 142.178 145.465 142.178Z" fill="white"/>
<path d="M145.465 148.752C147.28 148.752 148.752 147.281 148.752 145.465C148.752 143.65 147.28 142.178 145.465 142.178C143.649 142.178 142.177 143.65 142.177 145.465C142.177 147.281 143.649 148.752 145.465 148.752Z" fill="white"/>
<path d="M145.465 155.327C147.28 155.327 148.752 153.855 148.752 152.04C148.752 150.224 147.28 148.752 145.465 148.752C143.649 148.752 142.177 150.224 142.177 152.04C142.177 153.855 143.649 155.327 145.465 155.327Z" fill="white"/>
<path d="M145.465 161.902C147.28 161.902 148.752 160.43 148.752 158.614C148.752 156.799 147.28 155.327 145.465 155.327C143.649 155.327 142.177 156.799 142.177 158.614C142.177 160.43 143.649 161.902 145.465 161.902Z" fill="white"/>
<path d="M145.465 168.476C147.28 168.476 148.752 167.004 148.752 165.189C148.752 163.373 147.28 161.901 145.465 161.901C143.649 161.901 142.177 163.373 142.177 165.189C142.177 167.004 143.649 168.476 145.465 168.476Z" fill="white"/>
<path d="M145.465 175.051C147.28 175.051 148.752 173.579 148.752 171.763C148.752 169.948 147.28 168.476 145.465 168.476C143.649 168.476 142.177 169.948 142.177 171.763C142.177 173.579 143.649 175.051 145.465 175.051Z" fill="white"/>
<path d="M145.465 181.625C147.28 181.625 148.752 180.154 148.752 178.338C148.752 176.523 147.28 175.051 145.465 175.051C143.649 175.051 142.177 176.523 142.177 178.338C142.177 180.154 143.649 181.625 145.465 181.625Z" fill="white"/>
<path d="M145.465 188.2C147.28 188.2 148.752 186.728 148.752 184.913C148.752 183.097 147.28 181.625 145.465 181.625C143.649 181.625 142.177 183.097 142.177 184.913C142.177 186.728 143.649 188.2 145.465 188.2Z" fill="white"/>
<path d="M145.465 201.35C147.28 201.35 148.752 199.878 148.752 198.062C148.752 196.247 147.28 194.775 145.465 194.775C143.649 194.775 142.177 196.247 142.177 198.062C142.177 199.878 143.649 201.35 145.465 201.35Z" fill="white"/>
<path d="M152.039 69.8559C153.855 69.8559 155.327 68.3841 155.327 66.5686C155.327 64.753 153.855 63.2812 152.039 63.2812C150.224 63.2812 148.752 64.753 148.752 66.5686C148.752 68.3841 150.224 69.8559 152.039 69.8559Z" fill="white"/>
<path d="M152.039 76.4306C153.855 76.4306 155.327 74.9588 155.327 73.1433C155.327 71.3277 153.855 69.856 152.039 69.856C150.224 69.856 148.752 71.3277 148.752 73.1433C148.752 74.9588 150.224 76.4306 152.039 76.4306Z" fill="white"/>
<path d="M152.039 83.0053C153.855 83.0053 155.327 81.5335 155.327 79.718C155.327 77.9025 153.855 76.4307 152.039 76.4307C150.224 76.4307 148.752 77.9025 148.752 79.718C148.752 81.5335 150.224 83.0053 152.039 83.0053Z" fill="white"/>
<path d="M152.039 89.58C153.855 89.58 155.327 88.1083 155.327 86.2927C155.327 84.4772 153.855 83.0054 152.039 83.0054C150.224 83.0054 148.752 84.4772 148.752 86.2927C148.752 88.1083 150.224 89.58 152.039 89.58Z" fill="white"/>
<path d="M152.039 102.729C153.855 102.729 155.327 101.258 155.327 99.4421C155.327 97.6266 153.855 96.1548 152.039 96.1548C150.224 96.1548 148.752 97.6266 148.752 99.4421C148.752 101.258 150.224 102.729 152.039 102.729Z" fill="white"/>
<path d="M152.039 109.304C153.855 109.304 155.327 107.832 155.327 106.017C155.327 104.201 153.855 102.729 152.039 102.729C150.224 102.729 148.752 104.201 148.752 106.017C148.752 107.832 150.224 109.304 152.039 109.304Z" fill="white"/>
<path d="M152.039 115.879C153.855 115.879 155.327 114.407 155.327 112.592C155.327 110.776 153.855 109.304 152.039 109.304C150.224 109.304 148.752 110.776 148.752 112.592C148.752 114.407 150.224 115.879 152.039 115.879Z" fill="white"/>
<path d="M152.039 129.028C153.855 129.028 155.327 127.556 155.327 125.741C155.327 123.925 153.855 122.454 152.039 122.454C150.224 122.454 148.752 123.925 148.752 125.741C148.752 127.556 150.224 129.028 152.039 129.028Z" fill="white"/>
<path d="M152.039 135.603C153.855 135.603 155.327 134.131 155.327 132.316C155.327 130.5 153.855 129.028 152.039 129.028C150.224 129.028 148.752 130.5 148.752 132.316C148.752 134.131 150.224 135.603 152.039 135.603Z" fill="white"/>
<path d="M152.039 142.178C153.855 142.178 155.327 140.706 155.327 138.89C155.327 137.075 153.855 135.603 152.039 135.603C150.224 135.603 148.752 137.075 148.752 138.89C148.752 140.706 150.224 142.178 152.039 142.178Z" fill="white"/>
<path d="M152.039 148.752C153.855 148.752 155.327 147.281 155.327 145.465C155.327 143.65 153.855 142.178 152.039 142.178C150.224 142.178 148.752 143.65 148.752 145.465C148.752 147.281 150.224 148.752 152.039 148.752Z" fill="white"/>
<path d="M152.039 175.051C153.855 175.051 155.327 173.579 155.327 171.763C155.327 169.948 153.855 168.476 152.039 168.476C150.224 168.476 148.752 169.948 148.752 171.763C148.752 173.579 150.224 175.051 152.039 175.051Z" fill="white"/>
<path d="M152.039 181.625C153.855 181.625 155.327 180.154 155.327 178.338C155.327 176.523 153.855 175.051 152.039 175.051C150.224 175.051 148.752 176.523 148.752 178.338C148.752 180.154 150.224 181.625 152.039 181.625Z" fill="white"/>
<path d="M152.039 188.2C153.855 188.2 155.327 186.728 155.327 184.913C155.327 183.097 153.855 181.625 152.039 181.625C150.224 181.625 148.752 183.097 148.752 184.913C148.752 186.728 150.224 188.2 152.039 188.2Z" fill="white"/>
<path d="M158.614 76.4306C160.43 76.4306 161.901 74.9588 161.901 73.1433C161.901 71.3277 160.43 69.856 158.614 69.856C156.798 69.856 155.327 71.3277 155.327 73.1433C155.327 74.9588 156.798 76.4306 158.614 76.4306Z" fill="white"/>
<path d="M158.614 89.58C160.43 89.58 161.901 88.1083 161.901 86.2927C161.901 84.4772 160.43 83.0054 158.614 83.0054C156.798 83.0054 155.327 84.4772 155.327 86.2927C155.327 88.1083 156.798 89.58 158.614 89.58Z" fill="white"/>
<path d="M158.614 102.729C160.43 102.729 161.901 101.258 161.901 99.4421C161.901 97.6266 160.43 96.1548 158.614 96.1548C156.798 96.1548 155.327 97.6266 155.327 99.4421C155.327 101.258 156.798 102.729 158.614 102.729Z" fill="white"/>
<path d="M158.614 109.304C160.43 109.304 161.901 107.832 161.901 106.017C161.901 104.201 160.43 102.729 158.614 102.729C156.798 102.729 155.327 104.201 155.327 106.017C155.327 107.832 156.798 109.304 158.614 109.304Z" fill="white"/>
<path d="M158.614 115.879C160.43 115.879 161.901 114.407 161.901 112.592C161.901 110.776 160.43 109.304 158.614 109.304C156.798 109.304 155.327 110.776 155.327 112.592C155.327 114.407 156.798 115.879 158.614 115.879Z" fill="white"/>
<path d="M158.614 142.178C160.43 142.178 161.901 140.706 161.901 138.89C161.901 137.075 160.43 135.603 158.614 135.603C156.798 135.603 155.327 137.075 155.327 138.89C155.327 140.706 156.798 142.178 158.614 142.178Z" fill="white"/>
<path d="M158.614 148.752C160.43 148.752 161.901 147.281 161.901 145.465C161.901 143.65 160.43 142.178 158.614 142.178C156.798 142.178 155.327 143.65 155.327 145.465C155.327 147.281 156.798 148.752 158.614 148.752Z" fill="white"/>
<path d="M158.614 161.902C160.43 161.902 161.901 160.43 161.901 158.614C161.901 156.799 160.43 155.327 158.614 155.327C156.798 155.327 155.327 156.799 155.327 158.614C155.327 160.43 156.798 161.902 158.614 161.902Z" fill="white"/>
<path d="M158.614 175.051C160.43 175.051 161.901 173.579 161.901 171.763C161.901 169.948 160.43 168.476 158.614 168.476C156.798 168.476 155.327 169.948 155.327 171.763C155.327 173.579 156.798 175.051 158.614 175.051Z" fill="white"/>
<path d="M158.614 188.2C160.43 188.2 161.901 186.728 161.901 184.913C161.901 183.097 160.43 181.625 158.614 181.625C156.798 181.625 155.327 183.097 155.327 184.913C155.327 186.728 156.798 188.2 158.614 188.2Z" fill="white"/>
<path d="M165.189 69.8559C167.004 69.8559 168.476 68.3841 168.476 66.5686C168.476 64.753 167.004 63.2812 165.189 63.2812C163.373 63.2812 161.901 64.753 161.901 66.5686C161.901 68.3841 163.373 69.8559 165.189 69.8559Z" fill="white"/>
<path d="M165.189 76.4306C167.004 76.4306 168.476 74.9588 168.476 73.1433C168.476 71.3277 167.004 69.856 165.189 69.856C163.373 69.856 161.901 71.3277 161.901 73.1433C161.901 74.9588 163.373 76.4306 165.189 76.4306Z" fill="white"/>
<path d="M165.189 89.58C167.004 89.58 168.476 88.1083 168.476 86.2927C168.476 84.4772 167.004 83.0054 165.189 83.0054C163.373 83.0054 161.901 84.4772 161.901 86.2927C161.901 88.1083 163.373 89.58 165.189 89.58Z" fill="white"/>
<path d="M165.189 96.1548C167.004 96.1548 168.476 94.683 168.476 92.8674C168.476 91.0519 167.004 89.5801 165.189 89.5801C163.373 89.5801 161.901 91.0519 161.901 92.8674C161.901 94.683 163.373 96.1548 165.189 96.1548Z" fill="white"/>
<path d="M165.189 102.729C167.004 102.729 168.476 101.258 168.476 99.4421C168.476 97.6266 167.004 96.1548 165.189 96.1548C163.373 96.1548 161.901 97.6266 161.901 99.4421C161.901 101.258 163.373 102.729 165.189 102.729Z" fill="white"/>
<path d="M165.189 109.304C167.004 109.304 168.476 107.832 168.476 106.017C168.476 104.201 167.004 102.729 165.189 102.729C163.373 102.729 161.901 104.201 161.901 106.017C161.901 107.832 163.373 109.304 165.189 109.304Z" fill="white"/>
<path d="M165.189 135.603C167.004 135.603 168.476 134.131 168.476 132.316C168.476 130.5 167.004 129.028 165.189 129.028C163.373 129.028 161.901 130.5 161.901 132.316C161.901 134.131 163.373 135.603 165.189 135.603Z" fill="white"/>
<path d="M165.189 142.178C167.004 142.178 168.476 140.706 168.476 138.89C168.476 137.075 167.004 135.603 165.189 135.603C163.373 135.603 161.901 137.075 161.901 138.89C161.901 140.706 163.373 142.178 165.189 142.178Z" fill="white"/>
<path d="M165.189 148.752C167.004 148.752 168.476 147.281 168.476 145.465C168.476 143.65 167.004 142.178 165.189 142.178C163.373 142.178 161.901 143.65 161.901 145.465C161.901 147.281 163.373 148.752 165.189 148.752Z" fill="white"/>
<path d="M165.189 175.051C167.004 175.051 168.476 173.579 168.476 171.763C168.476 169.948 167.004 168.476 165.189 168.476C163.373 168.476 161.901 169.948 161.901 171.763C161.901 173.579 163.373 175.051 165.189 175.051Z" fill="white"/>
<path d="M165.189 181.625C167.004 181.625 168.476 180.154 168.476 178.338C168.476 176.523 167.004 175.051 165.189 175.051C163.373 175.051 161.901 176.523 161.901 178.338C161.901 180.154 163.373 181.625 165.189 181.625Z" fill="white"/>
<path d="M165.189 194.775C167.004 194.775 168.476 193.303 168.476 191.488C168.476 189.672 167.004 188.2 165.189 188.2C163.373 188.2 161.901 189.672 161.901 191.488C161.901 193.303 163.373 194.775 165.189 194.775Z" fill="white"/>
<path d="M171.763 69.8559C173.579 69.8559 175.051 68.3841 175.051 66.5686C175.051 64.753 173.579 63.2812 171.763 63.2812C169.948 63.2812 168.476 64.753 168.476 66.5686C168.476 68.3841 169.948 69.8559 171.763 69.8559Z" fill="white"/>
<path d="M171.763 89.58C173.579 89.58 175.051 88.1083 175.051 86.2927C175.051 84.4772 173.579 83.0054 171.763 83.0054C169.948 83.0054 168.476 84.4772 168.476 86.2927C168.476 88.1083 169.948 89.58 171.763 89.58Z" fill="white"/>
<path d="M171.763 129.028C173.579 129.028 175.051 127.556 175.051 125.741C175.051 123.925 173.579 122.454 171.763 122.454C169.948 122.454 168.476 123.925 168.476 125.741C168.476 127.556 169.948 129.028 171.763 129.028Z" fill="white"/>
<path d="M171.763 142.178C173.579 142.178 175.051 140.706 175.051 138.89C175.051 137.075 173.579 135.603 171.763 135.603C169.948 135.603 168.476 137.075 168.476 138.89C168.476 140.706 169.948 142.178 171.763 142.178Z" fill="white"/>
<path d="M171.763 148.752C173.579 148.752 175.051 147.281 175.051 145.465C175.051 143.65 173.579 142.178 171.763 142.178C169.948 142.178 168.476 143.65 168.476 145.465C168.476 147.281 169.948 148.752 171.763 148.752Z" fill="white"/>
<path d="M171.763 155.327C173.579 155.327 175.051 153.855 175.051 152.04C175.051 150.224 173.579 148.752 171.763 148.752C169.948 148.752 168.476 150.224 168.476 152.04C168.476 153.855 169.948 155.327 171.763 155.327Z" fill="white"/>
<path d="M171.763 161.902C173.579 161.902 175.051 160.43 175.051 158.614C175.051 156.799 173.579 155.327 171.763 155.327C169.948 155.327 168.476 156.799 168.476 158.614C168.476 160.43 169.948 161.902 171.763 161.902Z" fill="white"/>
<path d="M171.763 168.476C173.579 168.476 175.051 167.004 175.051 165.189C175.051 163.373 173.579 161.901 171.763 161.901C169.948 161.901 168.476 163.373 168.476 165.189C168.476 167.004 169.948 168.476 171.763 168.476Z" fill="white"/>
<path d="M171.763 175.051C173.579 175.051 175.051 173.579 175.051 171.763C175.051 169.948 173.579 168.476 171.763 168.476C169.948 168.476 168.476 169.948 168.476 171.763C168.476 173.579 169.948 175.051 171.763 175.051Z" fill="white"/>
<path d="M171.763 194.775C173.579 194.775 175.051 193.303 175.051 191.488C175.051 189.672 173.579 188.2 171.763 188.2C169.948 188.2 168.476 189.672 168.476 191.488C168.476 193.303 169.948 194.775 171.763 194.775Z" fill="white"/>
<path d="M171.763 201.35C173.579 201.35 175.051 199.878 175.051 198.062C175.051 196.247 173.579 194.775 171.763 194.775C169.948 194.775 168.476 196.247 168.476 198.062C168.476 199.878 169.948 201.35 171.763 201.35Z" fill="white"/>
<path d="M178.338 69.8559C180.154 69.8559 181.625 68.3841 181.625 66.5686C181.625 64.753 180.154 63.2812 178.338 63.2812C176.523 63.2812 175.051 64.753 175.051 66.5686C175.051 68.3841 176.523 69.8559 178.338 69.8559Z" fill="white"/>
<path d="M178.338 83.0053C180.154 83.0053 181.625 81.5335 181.625 79.718C181.625 77.9025 180.154 76.4307 178.338 76.4307C176.523 76.4307 175.051 77.9025 175.051 79.718C175.051 81.5335 176.523 83.0053 178.338 83.0053Z" fill="white"/>
<path d="M178.338 89.58C180.154 89.58 181.625 88.1083 181.625 86.2927C181.625 84.4772 180.154 83.0054 178.338 83.0054C176.523 83.0054 175.051 84.4772 175.051 86.2927C175.051 88.1083 176.523 89.58 178.338 89.58Z" fill="white"/>
<path d="M178.338 102.729C180.154 102.729 181.625 101.258 181.625 99.4421C181.625 97.6266 180.154 96.1548 178.338 96.1548C176.523 96.1548 175.051 97.6266 175.051 99.4421C175.051 101.258 176.523 102.729 178.338 102.729Z" fill="white"/>
<path d="M178.338 129.028C180.154 129.028 181.625 127.556 181.625 125.741C181.625 123.925 180.154 122.454 178.338 122.454C176.523 122.454 175.051 123.925 175.051 125.741C175.051 127.556 176.523 129.028 178.338 129.028Z" fill="white"/>
<path d="M178.338 135.603C180.154 135.603 181.625 134.131 181.625 132.316C181.625 130.5 180.154 129.028 178.338 129.028C176.523 129.028 175.051 130.5 175.051 132.316C175.051 134.131 176.523 135.603 178.338 135.603Z" fill="white"/>
<path d="M178.338 168.476C180.154 168.476 181.625 167.004 181.625 165.189C181.625 163.373 180.154 161.901 178.338 161.901C176.523 161.901 175.051 163.373 175.051 165.189C175.051 167.004 176.523 168.476 178.338 168.476Z" fill="white"/>
<path d="M178.338 188.2C180.154 188.2 181.625 186.728 181.625 184.913C181.625 183.097 180.154 181.625 178.338 181.625C176.523 181.625 175.051 183.097 175.051 184.913C175.051 186.728 176.523 188.2 178.338 188.2Z" fill="white"/>
<path d="M178.338 194.775C180.154 194.775 181.625 193.303 181.625 191.488C181.625 189.672 180.154 188.2 178.338 188.2C176.523 188.2 175.051 189.672 175.051 191.488C175.051 193.303 176.523 194.775 178.338 194.775Z" fill="white"/>
<path d="M184.913 83.0053C186.728 83.0053 188.2 81.5335 188.2 79.718C188.2 77.9025 186.728 76.4307 184.913 76.4307C183.097 76.4307 181.625 77.9025 181.625 79.718C181.625 81.5335 183.097 83.0053 184.913 83.0053Z" fill="white"/>
<path d="M184.913 102.729C186.728 102.729 188.2 101.258 188.2 99.4421C188.2 97.6266 186.728 96.1548 184.913 96.1548C183.097 96.1548 181.625 97.6266 181.625 99.4421C181.625 101.258 183.097 102.729 184.913 102.729Z" fill="white"/>
<path d="M184.913 109.304C186.728 109.304 188.2 107.832 188.2 106.017C188.2 104.201 186.728 102.729 184.913 102.729C183.097 102.729 181.625 104.201 181.625 106.017C181.625 107.832 183.097 109.304 184.913 109.304Z" fill="white"/>
<path d="M184.913 115.879C186.728 115.879 188.2 114.407 188.2 112.592C188.2 110.776 186.728 109.304 184.913 109.304C183.097 109.304 181.625 110.776 181.625 112.592C181.625 114.407 183.097 115.879 184.913 115.879Z" fill="white"/>
<path d="M184.913 148.752C186.728 148.752 188.2 147.281 188.2 145.465C188.2 143.65 186.728 142.178 184.913 142.178C183.097 142.178 181.625 143.65 181.625 145.465C181.625 147.281 183.097 148.752 184.913 148.752Z" fill="white"/>
<path d="M184.913 155.327C186.728 155.327 188.2 153.855 188.2 152.04C188.2 150.224 186.728 148.752 184.913 148.752C183.097 148.752 181.625 150.224 181.625 152.04C181.625 153.855 183.097 155.327 184.913 155.327Z" fill="white"/>
<path d="M184.913 168.476C186.728 168.476 188.2 167.004 188.2 165.189C188.2 163.373 186.728 161.901 184.913 161.901C183.097 161.901 181.625 163.373 181.625 165.189C181.625 167.004 183.097 168.476 184.913 168.476Z" fill="white"/>
<path d="M184.913 175.051C186.728 175.051 188.2 173.579 188.2 171.763C188.2 169.948 186.728 168.476 184.913 168.476C183.097 168.476 181.625 169.948 181.625 171.763C181.625 173.579 183.097 175.051 184.913 175.051Z" fill="white"/>
<path d="M184.913 194.775C186.728 194.775 188.2 193.303 188.2 191.488C188.2 189.672 186.728 188.2 184.913 188.2C183.097 188.2 181.625 189.672 181.625 191.488C181.625 193.303 183.097 194.775 184.913 194.775Z" fill="white"/>
<path d="M184.913 201.35C186.728 201.35 188.2 199.878 188.2 198.062C188.2 196.247 186.728 194.775 184.913 194.775C183.097 194.775 181.625 196.247 181.625 198.062C181.625 199.878 183.097 201.35 184.913 201.35Z" fill="white"/>
<path d="M191.487 69.8559C193.303 69.8559 194.775 68.3841 194.775 66.5686C194.775 64.753 193.303 63.2812 191.487 63.2812C189.672 63.2812 188.2 64.753 188.2 66.5686C188.2 68.3841 189.672 69.8559 191.487 69.8559Z" fill="white"/>
<path d="M191.487 76.4306C193.303 76.4306 194.775 74.9588 194.775 73.1433C194.775 71.3277 193.303 69.856 191.487 69.856C189.672 69.856 188.2 71.3277 188.2 73.1433C188.2 74.9588 189.672 76.4306 191.487 76.4306Z" fill="white"/>
<path d="M191.487 122.454C193.303 122.454 194.775 120.982 194.775 119.166C194.775 117.351 193.303 115.879 191.487 115.879C189.672 115.879 188.2 117.351 188.2 119.166C188.2 120.982 189.672 122.454 191.487 122.454Z" fill="white"/>
<path d="M191.487 135.603C193.303 135.603 194.775 134.131 194.775 132.316C194.775 130.5 193.303 129.028 191.487 129.028C189.672 129.028 188.2 130.5 188.2 132.316C188.2 134.131 189.672 135.603 191.487 135.603Z" fill="white"/>
<path d="M191.487 148.752C193.303 148.752 194.775 147.281 194.775 145.465C194.775 143.65 193.303 142.178 191.487 142.178C189.672 142.178 188.2 143.65 188.2 145.465C188.2 147.281 189.672 148.752 191.487 148.752Z" fill="white"/>
<path d="M191.487 155.327C193.303 155.327 194.775 153.855 194.775 152.04C194.775 150.224 193.303 148.752 191.487 148.752C189.672 148.752 188.2 150.224 188.2 152.04C188.2 153.855 189.672 155.327 191.487 155.327Z" fill="white"/>
<path d="M191.487 175.051C193.303 175.051 194.775 173.579 194.775 171.763C194.775 169.948 193.303 168.476 191.487 168.476C189.672 168.476 188.2 169.948 188.2 171.763C188.2 173.579 189.672 175.051 191.487 175.051Z" fill="white"/>
<path d="M191.487 188.2C193.303 188.2 194.775 186.728 194.775 184.913C194.775 183.097 193.303 181.625 191.487 181.625C189.672 181.625 188.2 183.097 188.2 184.913C188.2 186.728 189.672 188.2 191.487 188.2Z" fill="white"/>
<path d="M191.487 201.35C193.303 201.35 194.775 199.878 194.775 198.062C194.775 196.247 193.303 194.775 191.487 194.775C189.672 194.775 188.2 196.247 188.2 198.062C188.2 199.878 189.672 201.35 191.487 201.35Z" fill="white"/>
<path d="M198.062 109.304C199.878 109.304 201.349 107.832 201.349 106.017C201.349 104.201 199.878 102.729 198.062 102.729C196.247 102.729 194.775 104.201 194.775 106.017C194.775 107.832 196.247 109.304 198.062 109.304Z" fill="white"/>
<path d="M198.062 115.879C199.878 115.879 201.349 114.407 201.349 112.592C201.349 110.776 199.878 109.304 198.062 109.304C196.247 109.304 194.775 110.776 194.775 112.592C194.775 114.407 196.247 115.879 198.062 115.879Z" fill="white"/>
<path d="M198.062 142.178C199.878 142.178 201.349 140.706 201.349 138.89C201.349 137.075 199.878 135.603 198.062 135.603C196.247 135.603 194.775 137.075 194.775 138.89C194.775 140.706 196.247 142.178 198.062 142.178Z" fill="white"/>
<path d="M198.062 155.327C199.878 155.327 201.349 153.855 201.349 152.04C201.349 150.224 199.878 148.752 198.062 148.752C196.247 148.752 194.775 150.224 194.775 152.04C194.775 153.855 196.247 155.327 198.062 155.327Z" fill="white"/>
<path d="M198.062 161.902C199.878 161.902 201.349 160.43 201.349 158.614C201.349 156.799 199.878 155.327 198.062 155.327C196.247 155.327 194.775 156.799 194.775 158.614C194.775 160.43 196.247 161.902 198.062 161.902Z" fill="white"/>
<path d="M198.062 168.476C199.878 168.476 201.349 167.004 201.349 165.189C201.349 163.373 199.878 161.901 198.062 161.901C196.247 161.901 194.775 163.373 194.775 165.189C194.775 167.004 196.247 168.476 198.062 168.476Z" fill="white"/>
<path d="M198.062 175.051C199.878 175.051 201.349 173.579 201.349 171.763C201.349 169.948 199.878 168.476 198.062 168.476C196.247 168.476 194.775 169.948 194.775 171.763C194.775 173.579 196.247 175.051 198.062 175.051Z" fill="white"/>
</mask>
<g mask="url(#mask0_17859_45139)">
<path d="M213.019 0H0V213.019H213.019V0Z" fill="url(#paint0_linear_17859_45139)"/>
</g>
<mask id="mask1_17859_45139" style="mask-type:luminance" maskUnits="userSpaceOnUse" x="10" y="10" width="47" height="47">
<path fill-rule="evenodd" clip-rule="evenodd" d="M33.6952 10.6841C27.5958 10.695 21.7502 13.127 17.4431 17.4457C13.1359 21.7644 10.7195 27.6165 10.725 33.716C10.7304 39.8154 13.1572 45.6631 17.4721 49.9742C21.787 54.2852 27.6369 56.7068 33.7363 56.7068C39.8358 56.7068 45.6857 54.2852 50.0006 49.9742C54.3154 45.6631 56.7422 39.8154 56.7477 33.716C56.7531 27.6165 54.3368 21.7644 50.0296 17.4457C45.7224 13.127 39.8769 10.695 33.7774 10.6841H33.6952ZM33.6952 17.2588C38.051 17.2696 42.2242 19.009 45.2984 22.0947C48.3726 25.1804 50.0963 29.3602 50.0908 33.7159C50.0854 38.0717 48.3513 42.2471 45.2694 45.3251C42.1875 48.4032 38.0099 50.1321 33.6542 50.1321C29.2984 50.1321 25.1208 48.4032 22.0389 45.3251C18.957 42.2471 17.2229 38.0717 17.2175 33.7159C17.212 29.3602 18.9357 25.1804 22.0099 22.0947C25.0841 19.009 29.2574 17.2696 33.6131 17.2588H33.6952Z" fill="white"/>
</mask>
<g mask="url(#mask1_17859_45139)">
<path d="M56.7066 10.6841H10.6838V56.7068H56.7066V10.6841Z" fill="url(#paint1_linear_17859_45139)"/>
</g>
<mask id="mask2_17859_45139" style="mask-type:luminance" maskUnits="userSpaceOnUse" x="23" y="23" width="21" height="21">
<path d="M33.6953 43.557C39.1419 43.557 43.5573 39.1417 43.5573 33.695C43.5573 28.2484 39.1419 23.833 33.6953 23.833C28.2486 23.833 23.8333 28.2484 23.8333 33.695C23.8333 39.1417 28.2486 43.557 33.6953 43.557Z" fill="white"/>
</mask>
<g mask="url(#mask2_17859_45139)">
<path d="M43.5573 23.833H23.8333V43.557H43.5573V23.833Z" fill="url(#paint2_linear_17859_45139)"/>
</g>
<mask id="mask3_17859_45139" style="mask-type:luminance" maskUnits="userSpaceOnUse" x="155" y="10" width="47" height="47">
<path fill-rule="evenodd" clip-rule="evenodd" d="M201.349 33.6954C201.339 27.5959 198.907 21.7504 194.588 17.4432C190.269 13.136 184.417 10.7197 178.318 10.7251C172.218 10.7306 166.37 13.1574 162.059 17.4722C157.748 21.7871 155.327 27.637 155.327 33.7365C155.327 39.8359 157.748 45.6858 162.059 50.0007C166.37 54.3156 172.218 56.7424 178.318 56.7478C184.417 56.7533 190.269 54.3369 194.588 50.0297C198.907 45.7226 201.339 39.877 201.349 33.7776V33.6954ZM194.775 33.6954C194.764 38.0511 193.025 42.2244 189.939 45.2985C186.853 48.3727 182.673 50.0964 178.318 50.0909C173.962 50.0855 169.786 48.3514 166.708 45.2695C163.63 42.1876 161.901 38.01 161.901 33.6543C161.901 29.2985 163.63 25.1209 166.708 22.039C169.786 18.9572 173.962 17.223 178.318 17.2176C182.673 17.2121 186.853 18.9358 189.939 22.01C193.025 25.0842 194.764 29.2575 194.775 33.6132V33.6954Z" fill="white"/>
</mask>
<g mask="url(#mask3_17859_45139)">
<path d="M201.349 10.6841H155.327V56.7068H201.349V10.6841Z" fill="url(#paint3_linear_17859_45139)"/>
</g>
<mask id="mask4_17859_45139" style="mask-type:luminance" maskUnits="userSpaceOnUse" x="168" y="23" width="21" height="21">
<path d="M168.476 33.695C168.476 39.1417 172.891 43.557 178.338 43.557C183.785 43.557 188.2 39.1417 188.2 33.695C188.2 28.2484 183.785 23.833 178.338 23.833C172.891 23.833 168.476 28.2484 168.476 33.695Z" fill="white"/>
</mask>
<g mask="url(#mask4_17859_45139)">
<path d="M188.2 23.833H168.476V43.557H188.2V23.833Z" fill="url(#paint4_linear_17859_45139)"/>
</g>
<mask id="mask5_17859_45139" style="mask-type:luminance" maskUnits="userSpaceOnUse" x="10" y="155" width="47" height="47">
<path fill-rule="evenodd" clip-rule="evenodd" d="M10.6838 178.338C10.6947 184.438 13.1268 190.283 17.4455 194.59C21.7642 198.898 27.6163 201.314 33.7157 201.309C39.8151 201.303 45.6629 198.876 49.9739 194.561C54.2849 190.247 56.7065 184.397 56.7065 178.297C56.7065 172.198 54.2849 166.348 49.9739 162.033C45.6629 157.718 39.8151 155.291 33.7157 155.286C27.6163 155.28 21.7642 157.697 17.4455 162.004C13.1268 166.311 10.6947 172.157 10.6838 178.256V178.338ZM17.2585 178.338C17.2694 173.983 19.0087 169.809 22.0945 166.735C25.1802 163.661 29.36 161.937 33.7157 161.943C38.0714 161.948 42.2469 163.682 45.3249 166.764C48.4029 169.846 50.1318 174.024 50.1318 178.379C50.1318 182.735 48.4029 186.913 45.3249 189.995C42.2469 193.077 38.0714 194.811 33.7157 194.816C29.36 194.822 25.1802 193.098 22.0945 190.024C19.0087 186.95 17.2694 182.776 17.2585 178.421V178.338Z" fill="white"/>
</mask>
<g mask="url(#mask5_17859_45139)">
<path d="M56.7066 155.327H10.6838V201.349H56.7066V155.327Z" fill="url(#paint5_linear_17859_45139)"/>
</g>
<mask id="mask6_17859_45139" style="mask-type:luminance" maskUnits="userSpaceOnUse" x="23" y="168" width="21" height="21">
<path d="M43.5573 178.338C43.5573 172.892 39.1419 168.476 33.6953 168.476C28.2486 168.476 23.8333 172.892 23.8333 178.338C23.8333 183.785 28.2486 188.2 33.6953 188.2C39.1419 188.2 43.5573 183.785 43.5573 178.338Z" fill="white"/>
</mask>
<g mask="url(#mask6_17859_45139)">
<path d="M43.5573 168.476H23.8333V188.2H43.5573V168.476Z" fill="url(#paint6_linear_17859_45139)"/>
</g>
</g>
<defs>
<linearGradient id="paint0_linear_17859_45139" x1="106.51" y1="0" x2="106.51" y2="213.019" gradientUnits="userSpaceOnUse">
<stop/>
<stop offset="1" stop-color="#484848"/>
</linearGradient>
<linearGradient id="paint1_linear_17859_45139" x1="33.6952" y1="10.6841" x2="33.6952" y2="56.7068" gradientUnits="userSpaceOnUse">
<stop/>
<stop offset="1" stop-color="#484848"/>
</linearGradient>
<linearGradient id="paint2_linear_17859_45139" x1="33.6953" y1="23.833" x2="33.6953" y2="43.557" gradientUnits="userSpaceOnUse">
<stop/>
<stop offset="1" stop-color="#484848"/>
</linearGradient>
<linearGradient id="paint3_linear_17859_45139" x1="178.338" y1="10.6841" x2="178.338" y2="56.7068" gradientUnits="userSpaceOnUse">
<stop/>
<stop offset="1" stop-color="#484848"/>
</linearGradient>
<linearGradient id="paint4_linear_17859_45139" x1="178.338" y1="23.833" x2="178.338" y2="43.557" gradientUnits="userSpaceOnUse">
<stop/>
<stop offset="1" stop-color="#484848"/>
</linearGradient>
<linearGradient id="paint5_linear_17859_45139" x1="33.6952" y1="155.327" x2="33.6952" y2="201.349" gradientUnits="userSpaceOnUse">
<stop/>
<stop offset="1" stop-color="#484848"/>
</linearGradient>
<linearGradient id="paint6_linear_17859_45139" x1="33.6953" y1="168.476" x2="33.6953" y2="188.2" gradientUnits="userSpaceOnUse">
<stop/>
<stop offset="1" stop-color="#484848"/>
</linearGradient>
<clipPath id="clip0_17859_45139">
<rect width="209" height="210" fill="white"/>
</clipPath>
</defs>
</svg>
