<svg width="24" height="24" viewBox="0 0 24 24" fill="none" xmlns="http://www.w3.org/2000/svg">
<path d="M19.0821 6.17225C19.0821 5.55166 18.593 5.07776 18.0254 5.07751H5.22455C4.65696 5.07776 4.16795 5.55166 4.16786 6.17225V20.2977C4.16809 21.0788 4.91372 21.5732 5.57812 21.3294L7.00547 20.8055C7.64348 20.5714 8.34652 20.5994 8.96417 20.8827L11.1971 21.9063C11.4697 22.0313 11.7803 22.0313 12.0529 21.9063L14.2858 20.8827C14.9035 20.5994 15.6065 20.5714 16.2445 20.8055L17.6719 21.3294C18.3363 21.5732 19.0819 21.0788 19.0821 20.2977V6.17225ZM15.2823 14.4892C15.7082 14.4893 16.0535 14.8338 16.0537 15.2584C16.0537 15.6832 15.7083 16.0276 15.2823 16.0277H7.96775C7.54175 16.0276 7.19632 15.6832 7.19632 15.2584C7.19648 14.8338 7.54185 14.4893 7.96775 14.4892H15.2823ZM11.625 10.7613C12.051 10.7613 12.3964 11.1057 12.3964 11.5305C12.3964 11.9553 12.051 12.2997 11.625 12.2997H7.96775C7.54177 12.2997 7.19635 11.9553 7.19632 11.5305C7.19632 11.1057 7.54175 10.7613 7.96775 10.7613H11.625ZM20.625 20.2977C20.6248 22.0984 18.858 23.404 17.1395 22.7737L15.7112 22.2488C15.457 22.1556 15.1777 22.1666 14.9307 22.2799L12.6978 23.3045C12.016 23.6172 11.234 23.6172 10.5522 23.3045L8.31931 22.2799C8.07225 22.1666 7.79298 22.1556 7.53884 22.2488L6.11049 22.7737C4.39204 23.404 2.62524 22.0984 2.625 20.2977V6.17225C2.62509 4.73425 3.77288 3.53931 5.22455 3.53906H18.0254C19.4771 3.53931 20.6249 4.73425 20.625 6.17225V20.2977Z" fill="white"/>
<ellipse cx="16.375" cy="7.03906" rx="5" ry="5.5" fill="#009859"/>
<path d="M18.0523 4.59365C18.0523 3.92218 17.49 3.37786 16.7964 3.37786C16.1027 3.37786 15.5404 3.92218 15.5404 4.59365C15.5404 5.26511 16.1027 5.80943 16.7964 5.80943C18.3224 5.80943 19.5595 7.00696 19.5595 8.48417C19.5595 9.70814 18.7092 10.7366 17.5499 11.0544V11.8884C17.5499 12.2913 17.2126 12.6179 16.7964 12.6179C16.3802 12.6179 16.0428 12.2913 16.0428 11.8884V11.0544C14.8835 10.7366 14.0332 9.70814 14.0332 8.48417C14.0332 8.08129 14.3706 7.7547 14.7868 7.7547C15.203 7.7547 15.5404 8.08129 15.5404 8.48417C15.5404 9.15563 16.1027 9.69996 16.7964 9.69996C17.49 9.69996 18.0523 9.15563 18.0523 8.48417C18.0523 7.81271 17.49 7.26838 16.7964 7.26838C15.2703 7.26838 14.0332 6.07086 14.0332 4.59365C14.0332 3.36959 14.8834 2.34022 16.0428 2.02244V1.18943C16.0428 0.786557 16.3802 0.459961 16.7964 0.459961C17.2126 0.459961 17.5499 0.786557 17.5499 1.18943V2.02244C18.7093 2.34022 19.5595 3.36959 19.5595 4.59365C19.5595 4.99652 19.2221 5.32312 18.8059 5.32312C18.3897 5.32312 18.0523 4.99652 18.0523 4.59365Z" fill="white"/>
</svg>
