<svg width="17" height="17" viewBox="0 0 17 17" fill="none" xmlns="http://www.w3.org/2000/svg">
<path d="M5.30273 5.30273H0V0H5.30273V5.30273ZM1.55957 1.55957V3.74316H3.74316V1.55957H1.55957Z" fill="#0C3124"/>
<path d="M5.30273 16.6875H0V11.3848H5.30273V16.6875ZM1.55957 12.9443V15.1279H3.74316V12.9443H1.55957Z" fill="#0C3124"/>
<path d="M16.8432 5.30273H11.5405V0H16.8432V5.30273ZM13.101 1.55957V3.74316H15.2836V1.55957H13.101Z" fill="#0C3124"/>
<rect x="7.64154" width="1.71549" height="1.71549" fill="#0C3124"/>
<rect x="13.2562" y="14.9717" width="1.71549" height="1.71549" fill="#0C3124"/>
<rect x="14.9714" y="11.541" width="1.71549" height="3.43099" fill="#0C3124"/>
<rect y="7.48633" width="3.58694" height="1.71549" fill="#0C3124"/>
<path d="M13.1005 10.918H11.3846V7.48633H14.9716V9.20215H13.1005V10.918Z" fill="#0C3124"/>
<path d="M9.35699 9.20215H5.92633V7.48633H7.64117V3.89941H9.35699V9.20215Z" fill="#0C3124"/>
<path d="M11.3843 16.6875H9.66852V14.5039H7.95367V12.7891H9.66852V11.0732H11.3843V16.6875Z" fill="#0C3124"/>
</svg>
