<svg width="25" height="25" viewBox="0 0 25 25" fill="none" xmlns="http://www.w3.org/2000/svg">
<rect width="25" height="25" rx="12.5" fill="#F2F8F5"/>
<path d="M18.093 9.67949C18.093 8.66697 17.2132 7.84615 16.1279 7.84615H8.87209C7.78679 7.84615 6.90698 8.66697 6.90698 9.67949V15.3205C6.90698 16.333 7.78679 17.1538 8.87209 17.1538H16.1279C17.2132 17.1538 18.093 16.333 18.093 15.3205V14.6154H16.1279C14.8756 14.6154 13.8605 13.6683 13.8605 12.5C13.8605 11.3317 14.8756 10.3846 16.1279 10.3846H18.093V9.67949ZM14.7674 12.5C14.7674 13.201 15.3765 13.7692 16.1279 13.7692H18.093V11.2308H16.1279C15.3765 11.2308 14.7674 11.799 14.7674 12.5ZM19 15.3205C19 16.8004 17.7141 18 16.1279 18H8.87209C7.28588 18 6 16.8004 6 15.3205V9.67949C6 8.19965 7.28588 7 8.87209 7H16.1279C17.7141 7 19 8.19965 19 9.67949V15.3205Z" fill="#009859"/>
</svg>
