<svg width="24" height="24" viewBox="0 0 24 24" fill="none" xmlns="http://www.w3.org/2000/svg">
<path d="M18.541 18.5409C22.1533 14.9285 22.1533 9.07177 18.541 5.45942C14.9286 1.84707 9.07186 1.84707 5.45951 5.45942C1.84716 9.07177 1.84716 14.9285 5.45951 18.5409C9.07186 22.1532 14.9286 22.1532 18.541 18.5409ZM8.64149 14.2983L13.0181 9.92165H10.586C10.1718 9.92165 9.83611 9.58595 9.83611 9.17173C9.83611 8.75752 10.1718 8.42181 10.586 8.42181H14.8287L14.9053 8.42526C15.2835 8.46364 15.5786 8.78338 15.5786 9.17173V13.4144C15.5786 13.8286 15.2429 14.1643 14.8287 14.1643C14.4145 14.1643 14.0788 13.8286 14.0788 13.4144V10.9823L9.70215 15.3589C9.40925 15.6518 8.93438 15.6518 8.64149 15.3589C8.34859 15.066 8.34859 14.5911 8.64149 14.2983ZM19.6016 19.6016C15.4035 23.7997 8.59698 23.7997 4.39885 19.6016C0.20071 15.4034 0.20071 8.5969 4.39885 4.39876C8.59698 0.200625 15.4035 0.200625 19.6016 4.39876C23.7998 8.5969 23.7998 15.4034 19.6016 19.6016Z" fill="#009859"/>
</svg>
