<svg width="24" height="24" viewBox="0 0 24 24" fill="none" xmlns="http://www.w3.org/2000/svg">
<path d="M9.55556 13.2222C14.2807 13.2222 18.1111 15.4111 18.1111 18.1111C18.1111 20.8112 14.2807 23 9.55556 23C4.83045 23 1 20.8112 1 18.1111C1 15.4111 4.83045 13.2222 9.55556 13.2222Z" fill="#009859"/>
<path d="M16.7504 13.2616C20.2866 13.5235 23 15.048 23 16.8889C22.9999 18.206 21.611 19.3612 19.5255 20.0077C19.7983 19.4063 19.9444 18.7696 19.9444 18.1111C19.9444 16.2056 18.719 14.4849 16.7504 13.2616Z" fill="#009859"/>
<path d="M9.55556 1C12.2556 1 14.4444 3.18883 14.4444 5.88889C14.4444 8.58895 12.2556 10.7778 9.55556 10.7778C6.8555 10.7778 4.66667 8.58895 4.66667 5.88889C4.66667 3.18883 6.8555 1 9.55556 1Z" fill="#009859"/>
<path d="M15.8206 3.44803C17.7741 3.52882 19.3333 5.13776 19.3333 7.11111C19.3333 9.13613 17.6917 10.7777 15.6667 10.7778C15.2207 10.7778 14.7933 10.698 14.3979 10.5522C15.5621 9.34351 16.2778 7.69962 16.2778 5.88889C16.2778 5.02784 16.1157 4.20467 15.8206 3.44803Z" fill="#009859"/>
</svg>
