<svg width="24" height="27" viewBox="0 0 24 27" fill="none" xmlns="http://www.w3.org/2000/svg">
<path fill-rule="evenodd" clip-rule="evenodd" d="M17.4545 3.44394C18.6595 3.44394 19.6364 4.47188 19.6364 5.73991V23.1368C19.6364 24.727 18.137 25.8357 16.7152 25.2971L15.0117 24.6513C14.4794 24.4497 13.8934 24.4743 13.3775 24.7186L10.7131 25.9798C10.1439 26.2492 9.49243 26.2492 8.9233 25.9798L6.25888 24.7186C5.74294 24.4743 5.15698 24.4497 4.62465 24.6513L2.92116 25.2971C1.49936 25.8357 0 24.727 0 23.1368V5.73991C2.81134e-07 4.47188 0.976834 3.44394 2.18182 3.44394H17.4545ZM4.36364 17.5067C3.91177 17.5067 3.54545 17.8922 3.54545 18.3677C3.54545 18.8432 3.91177 19.2287 4.36364 19.2287H9.81818C10.2701 19.2287 10.6364 18.8432 10.6364 18.3677C10.6364 17.8922 10.2701 17.5067 9.81818 17.5067H4.36364ZM4.36364 12.9148C3.91177 12.9148 3.54545 13.3003 3.54545 13.7758C3.54545 14.2513 3.91177 14.6368 4.36364 14.6368H15.2727C15.7246 14.6368 16.0909 14.2513 16.0909 13.7758C16.0909 13.3003 15.7246 12.9148 15.2727 12.9148H4.36364ZM4.36364 8.32287C3.91177 8.32287 3.54545 8.70834 3.54545 9.18385C3.54545 9.65936 3.91177 10.0448 4.36364 10.0448H15.2727C15.7246 10.0448 16.0909 9.65936 16.0909 9.18385C16.0909 8.70834 15.7246 8.32287 15.2727 8.32287H4.36364Z" fill="#009859"/>
<path d="M24 8.03587C24 12.474 20.5811 16.0717 16.3636 16.0717C12.1462 16.0717 8.72727 12.474 8.72727 8.03587C8.72727 3.59778 12.1462 0 16.3636 0C20.5811 0 24 3.59778 24 8.03587Z" fill="white"/>
<path d="M22.9091 8.03587C22.9091 11.8399 19.9786 14.9238 16.3636 14.9238C12.7487 14.9238 9.81818 11.8399 9.81818 8.03587C9.81818 4.23179 12.7487 1.14798 16.3636 1.14798C19.9786 1.14798 22.9091 4.23179 22.9091 8.03587Z" fill="white"/>
<path fill-rule="evenodd" clip-rule="evenodd" d="M16.3636 1.14798C19.9786 1.14798 22.9091 4.23179 22.9091 8.03587C22.9091 11.8399 19.9786 14.9238 16.3636 14.9238C12.7487 14.9238 9.81818 11.8399 9.81818 8.03587C9.81818 4.23179 12.7487 1.14798 16.3636 1.14798ZM16.3636 3.73094C16.0925 3.73094 15.8727 3.96223 15.8727 4.24753V4.83744C15.1175 5.06248 14.5636 5.79145 14.5636 6.65829C14.5636 7.68617 15.3417 8.52023 16.3119 8.5491C16.3289 8.55098 16.3461 8.55246 16.3636 8.55246C16.8155 8.55246 17.1818 8.93794 17.1818 9.41345C17.1818 9.88896 16.8155 10.2744 16.3636 10.2744C15.9118 10.2744 15.5455 9.88896 15.5455 9.41345C15.5455 9.12814 15.3257 8.89686 15.0545 8.89686C14.7834 8.89686 14.5636 9.12814 14.5636 9.41345C14.5636 10.2802 15.1176 11.0085 15.8727 11.2336V11.8242C15.8727 12.1095 16.0925 12.3408 16.3636 12.3408C16.6348 12.3408 16.8545 12.1095 16.8545 11.8242V11.2336C17.6097 11.0085 18.1636 10.2802 18.1636 9.41345C18.1636 8.38534 17.3852 7.55049 16.4148 7.52197C16.398 7.52014 16.3809 7.51928 16.3636 7.51928C15.9118 7.51928 15.5455 7.1338 15.5455 6.65829C15.5455 6.18278 15.9118 5.79731 16.3636 5.79731C16.8155 5.79731 17.1818 6.18278 17.1818 6.65829C17.1818 6.9436 17.4016 7.17488 17.6727 7.17488C17.9438 7.17488 18.1636 6.9436 18.1636 6.65829C18.1636 5.79145 17.6098 5.06248 16.8545 4.83744V4.24753C16.8545 3.96223 16.6348 3.73094 16.3636 3.73094Z" fill="#009859"/>
</svg>
