<svg width="24" height="24" viewBox="0 0 24 24" fill="none" xmlns="http://www.w3.org/2000/svg">
<g clip-path="url(#clip0_14410_6662)">
<path d="M18.6 2C21.0301 2 23 3.98985 23 6.44444V17.5556C23 20.0102 21.0301 22 18.6 22H5.4C2.96995 22 1 20.0102 1 17.5556V15.8889H5.4C7.5263 15.8889 9.25 14.1478 9.25 12C9.25 9.85223 7.5263 8.11111 5.4 8.11111H1V6.44444C1 3.98985 2.96995 2 5.4 2H18.6Z" fill="#009859"/>
<path d="M5.4 9.77778C6.61503 9.77778 7.6 10.7727 7.6 12C7.6 13.2273 6.61503 14.2222 5.4 14.2222H1V9.77778H5.4Z" fill="#009859"/>
</g>
<defs>
<clipPath id="clip0_14410_6662">
<rect width="24" height="24" fill="white"/>
</clipPath>
</defs>
</svg>
