<svg width="24" height="24" viewBox="0 0 24 24" fill="none" xmlns="http://www.w3.org/2000/svg">
<path d="M16.3551 18C16.3551 17.3772 15.8629 16.5762 14.561 15.878C13.3083 15.2061 11.5203 14.7647 9.50024 14.7647C7.4802 14.7647 5.69214 15.2061 4.43945 15.878C3.13761 16.5762 2.64541 17.3772 2.64541 18C2.64541 18.6228 3.13761 19.4238 4.43945 20.122C5.69214 20.7939 7.4802 21.2353 9.50024 21.2353C11.5203 21.2353 13.3083 20.7939 14.561 20.122C15.8629 19.4238 16.3551 18.6228 16.3551 18ZM18.0002 18C18.0002 19.6513 16.7736 20.9085 15.2969 21.7006C13.7709 22.519 11.7203 23 9.50024 23C7.28017 23 5.22961 22.519 3.70362 21.7006C2.22687 20.9085 1.00024 19.6513 1.00024 18C1.00024 16.3487 2.22687 15.0915 3.70362 14.2994C5.22961 13.481 7.28017 13 9.50024 13C11.7203 13 13.7709 13.481 15.2969 14.2994C16.7736 15.0915 18.0002 16.3487 18.0002 18Z" fill="#0C3124"/>
<path d="M13.2634 6.5C13.2634 4.42167 11.5786 2.73684 9.50024 2.73684C7.42191 2.73684 5.73709 4.42167 5.73709 6.5C5.73709 8.57833 7.42191 10.2632 9.50024 10.2632C11.5786 10.2632 13.2634 8.57833 13.2634 6.5ZM15.0002 6.5C15.0002 9.53757 12.5378 12 9.50024 12C6.46268 12 4.00024 9.53757 4.00024 6.5C4.00024 3.46243 6.46268 1 9.50024 1C12.5378 1 15.0002 3.46243 15.0002 6.5Z" fill="#0C3124"/>
<path d="M15.8023 3C18.1554 3.20674 20.0001 5.13819 20.0002 7.49061C20.0002 9.98092 17.9332 11.9997 15.3839 12C14.9019 12 14.437 11.9272 14.0002 11.7933C14.5563 11.3329 15.0402 10.7933 15.4368 10.1927C16.9419 10.1649 18.1537 8.96744 18.1537 7.49061C18.1536 6.38359 17.472 5.43281 16.4971 5.01396C16.367 4.30071 16.1302 3.62419 15.8023 3Z" fill="#0C3124"/>
<path d="M16.0002 13C17.6808 13.0827 19.2182 13.3984 20.4109 13.892C21.1074 14.1803 21.7287 14.5455 22.1888 14.9956C22.652 15.4489 23.0002 16.0406 23.0002 16.7434C23.0002 17.4462 22.652 18.0378 22.1888 18.4911C21.7287 18.9412 21.1073 19.3065 20.4109 19.5948C20.0405 19.748 19.6358 19.8824 19.2051 20C19.5717 19.3616 19.776 18.6785 19.7874 17.9659C20.3306 17.7357 20.7193 17.4873 20.9602 17.2516C21.2052 17.0118 21.2497 16.8406 21.2497 16.7434C21.2496 16.6461 21.2052 16.4749 20.9602 16.2351C20.7118 15.9921 20.3074 15.7331 19.7373 15.4971C19.4487 15.3776 19.1278 15.2687 18.78 15.1722C18.1213 14.3302 17.168 13.5897 16.0002 13Z" fill="#0C3124"/>
</svg>
