<svg width="24" height="24" viewBox="0 0 24 24" fill="none" xmlns="http://www.w3.org/2000/svg">
<path d="M16.141 16.7949C16.141 16.3334 15.7038 15.7398 14.5472 15.2224C13.4344 14.7245 11.8459 14.3974 10.0513 14.3974C8.2567 14.3974 6.66821 14.7245 5.55534 15.2224C4.39881 15.7398 3.96154 16.3334 3.96154 16.7949C3.96154 17.2564 4.39881 17.8499 5.55534 18.3673C6.66821 18.8652 8.2567 19.1923 10.0513 19.1923C11.8459 19.1923 13.4344 18.8652 14.5472 18.3673C15.7038 17.8499 16.141 17.2564 16.141 16.7949ZM18.0897 12.8718V11.7821H16.8718C16.4682 11.7821 16.141 11.4893 16.141 11.1282C16.141 10.7671 16.4682 10.4744 16.8718 10.4744H18.0897V9.38462C18.0897 9.02351 18.4169 8.73077 18.8205 8.73077C19.2241 8.73077 19.5513 9.02351 19.5513 9.38462V10.4744H20.7692C21.1728 10.4744 21.5 10.7671 21.5 11.1282C21.5 11.4893 21.1728 11.7821 20.7692 11.7821H19.5513V12.8718C19.5513 13.2329 19.2241 13.5256 18.8205 13.5256C18.4169 13.5256 18.0897 13.2329 18.0897 12.8718ZM13.2179 7.64103C13.2179 6.07622 11.8002 4.80769 10.0513 4.80769C8.30238 4.80769 6.88462 6.07622 6.88462 7.64103C6.88462 9.20583 8.30238 10.4744 10.0513 10.4744C11.8002 10.4744 13.2179 9.20583 13.2179 7.64103ZM17.6026 16.7949C17.6026 18.0185 16.5128 18.9502 15.2009 19.5371C13.8453 20.1436 12.0236 20.5 10.0513 20.5C8.079 20.5 6.25731 20.1436 4.90164 19.5371C3.58972 18.9502 2.5 18.0185 2.5 16.7949C2.5 15.5712 3.58972 14.6396 4.90164 14.0526C6.25731 13.4462 8.079 13.0897 10.0513 13.0897C12.0236 13.0897 13.8453 13.4462 15.2009 14.0526C16.5128 14.6396 17.6026 15.5712 17.6026 16.7949ZM14.6795 7.64103C14.6795 9.92805 12.6074 11.7821 10.0513 11.7821C7.49519 11.7821 5.42308 9.92805 5.42308 7.64103C5.42308 5.354 7.49519 3.5 10.0513 3.5C12.6074 3.5 14.6795 5.354 14.6795 7.64103Z" fill="#0C3124"/>
</svg>
