<svg width="32" height="32" viewBox="0 0 32 32" fill="none" xmlns="http://www.w3.org/2000/svg">
<rect width="32" height="32" rx="16" fill="#F2F8F5"/>
<g clip-path="url(#clip0_21672_98334)">
<path d="M12.6667 12.6667V11C12.6667 9.15907 14.1591 7.66669 16.0001 7.66669L21.0001 7.66669C22.841 7.66669 24.3334 9.15907 24.3334 11V16C24.3334 17.841 22.841 19.3334 21.0001 19.3334H19.3334M12.6667 12.6667H11.0001C9.15913 12.6667 7.66675 14.1591 7.66675 16V21C7.66675 22.841 9.15913 24.3334 11.0001 24.3334H16.0001C17.841 24.3334 19.3334 22.841 19.3334 21V19.3334M12.6667 12.6667H16.0001C17.841 12.6667 19.3334 14.1591 19.3334 16V19.3334" stroke="#009859" stroke-width="1.5" stroke-linejoin="round"/>
</g>
<defs>
<clipPath id="clip0_21672_98334">
<rect width="20" height="20" fill="white" transform="translate(6 6)"/>
</clipPath>
</defs>
</svg>
