<svg width="32" height="32" viewBox="0 0 32 32" fill="none" xmlns="http://www.w3.org/2000/svg">
<rect width="32" height="32" rx="16" fill="#F2F8F5"/>
<path d="M16.2844 10.8117C16.2844 10.8117 16.2844 12.4463 17.919 14.081C19.5537 15.7156 21.1883 15.7156 21.1883 15.7156M9.81963 23.4881L13.2523 22.9977C13.7475 22.9269 14.2064 22.6975 14.56 22.3438L22.8229 14.081C23.7257 13.1782 23.7257 11.7145 22.8229 10.8117L21.1883 9.17708C20.2855 8.27431 18.8218 8.27431 17.919 9.17708L9.65616 17.44C9.30248 17.7936 9.07305 18.2525 9.00231 18.7477L8.51193 22.1804C8.40295 22.9432 9.0568 23.597 9.81963 23.4881Z" stroke="#009859" stroke-width="1.5" stroke-linecap="round"/>
</svg>
