<svg width="12" height="15" viewBox="0 0 12 15" fill="none" xmlns="http://www.w3.org/2000/svg">
<path d="M10.2815 5.33569C10.605 5.59445 11.0769 5.54201 11.3357 5.21856C11.5944 4.89512 11.542 4.42315 11.2185 4.16439L6.21855 0.16439C5.94463 -0.0547414 5.55542 -0.0547414 5.28151 0.16439L0.281506 4.16439C-0.04194 4.42315 -0.0943816 4.89512 0.164376 5.21856C0.423133 5.54201 0.895102 5.59445 1.21855 5.33569L5.75003 1.71051L10.2815 5.33569Z" fill="black"/>
<path d="M1.21855 8.75017C0.895104 8.49141 0.423134 8.54385 0.164377 8.8673C-0.0943799 9.19074 -0.0419389 9.66271 0.281508 9.92147L5.28151 13.9215C5.55542 14.1406 5.94463 14.1406 6.21855 13.9215L11.2185 9.92147C11.542 9.66271 11.5944 9.19074 11.3357 8.8673C11.0769 8.54385 10.605 8.49141 10.2815 8.75017L5.75003 12.3754L1.21855 8.75017Z" fill="black"/>
</svg>
