<svg width="116" height="116" viewBox="0 0 116 116" fill="none" xmlns="http://www.w3.org/2000/svg">
<rect width="116" height="116" rx="58" fill="#FAFBFA"/>
<path d="M78.4271 58.0003C78.4271 46.7188 69.2816 37.5732 58 37.5732C57.0853 37.5732 56.3438 36.8317 56.3438 35.917C56.3438 35.0023 57.0853 34.2607 58 34.2607C71.111 34.2607 81.7396 44.8893 81.7396 58.0003C81.7396 58.915 80.9981 59.6566 80.0833 59.6566C79.1686 59.6566 78.4271 58.915 78.4271 58.0003Z" fill="black"/>
<path d="M58.5759 78.4188C59.49 78.3938 60.2522 79.1155 60.2774 80.0297C60.3025 80.9439 59.5807 81.706 58.6665 81.7313C58.445 81.7374 58.2229 81.7399 58.0001 81.7399C57.7773 81.7399 57.5551 81.7374 57.3337 81.7313C56.4195 81.706 55.6977 80.9439 55.7227 80.0297C55.748 79.1155 56.5101 78.3938 57.4243 78.4188C57.6154 78.4241 57.8076 78.4274 58.0001 78.4274C58.1925 78.4274 58.3848 78.4241 58.5759 78.4188ZM47.4674 77.485C47.8415 76.651 48.8198 76.2772 49.6541 76.6504C50.0018 76.8062 50.3554 76.9537 50.713 77.0903C51.5675 77.4167 51.9947 78.373 51.6684 79.2275C51.342 80.0819 50.3857 80.5112 49.5312 80.185C49.1152 80.0261 48.7042 79.8551 48.2998 79.6739C47.4655 79.2996 47.0933 78.3195 47.4674 77.485ZM66.346 76.6504C67.1803 76.2772 68.1587 76.651 68.5328 77.485C68.9068 78.3195 68.5347 79.2996 67.7004 79.6739C67.296 79.8551 66.885 80.0261 66.469 80.185C65.6145 80.5112 64.6581 80.0819 64.3318 79.2275C64.0055 78.373 64.4327 77.4167 65.2871 77.0903C65.6447 76.9537 65.9984 76.8062 66.346 76.6504ZM40.8143 71.9685C41.4789 71.34 42.5278 71.3687 43.1564 72.0332C43.419 72.3109 43.6895 72.5814 43.9672 72.844C44.6317 73.4726 44.6604 74.5215 44.0319 75.1861C43.4034 75.8502 42.3543 75.8792 41.6899 75.2508C41.3678 74.9461 41.0543 74.6326 40.7496 74.3105C40.1212 73.6461 40.1502 72.597 40.8143 71.9685ZM72.8438 72.0332C73.4723 71.3687 74.5213 71.34 75.1858 71.9685C75.85 72.597 75.8789 73.6461 75.2505 74.3105C74.9459 74.6326 74.6323 74.9462 74.3103 75.2508C73.6458 75.8792 72.5968 75.8502 71.9682 75.1861C71.3397 74.5215 71.3684 73.4726 72.0329 72.844C72.3106 72.5814 72.5812 72.3109 72.8438 72.0332ZM36.7729 64.332C37.6274 64.0057 38.5837 64.4329 38.9101 65.2874C39.0467 65.645 39.1942 65.9986 39.35 66.3463C39.7232 67.1806 39.3494 68.1589 38.5154 68.533C37.6809 68.9071 36.7008 68.5349 36.3265 67.7006C36.1453 67.2962 35.9743 66.8852 35.8154 66.4692C35.4892 65.6147 35.9185 64.6584 36.7729 64.332ZM77.0901 65.2874C77.4165 64.4329 78.3728 64.0057 79.2273 64.332C80.0817 64.6584 80.511 65.6147 80.1848 66.4692C80.0259 66.8852 79.8549 67.2962 79.6737 67.7006C79.2994 68.5349 78.3193 68.9071 77.4847 68.533C76.6507 68.1589 76.277 67.1806 76.6501 66.3463C76.8059 65.9986 76.9535 65.645 77.0901 65.2874ZM34.2605 58.0003C34.2605 57.7775 34.263 57.5554 34.2691 57.3339C34.2944 56.4197 35.0565 55.6979 35.9707 55.723C36.8849 55.7482 37.6066 56.5104 37.5816 57.4245C37.5763 57.6156 37.573 57.8079 37.573 58.0003C37.573 58.1928 37.5763 58.385 37.5816 58.5761C37.6066 59.4903 36.8849 60.2524 35.9707 60.2777C35.0565 60.3027 34.2944 59.581 34.2691 58.6667C34.263 58.4453 34.2605 58.2231 34.2605 58.0003ZM78.4272 58.0003C78.4272 57.0856 79.1687 56.3441 80.0834 56.3441C80.9981 56.3441 81.7397 57.0856 81.7397 58.0003C81.7397 58.2231 81.7371 58.4453 81.731 58.6667C81.7058 59.581 80.9437 60.3027 80.0295 60.2777C79.1153 60.2524 78.3936 59.4903 78.4185 58.5761C78.4238 58.385 78.4272 58.1928 78.4272 58.0003ZM36.3265 48.3C36.7008 47.4657 37.6809 47.0936 38.5154 47.4676C39.3494 47.8417 39.7232 48.8201 39.35 49.6544C39.1942 50.002 39.0467 50.3557 38.9101 50.7133C38.5837 51.5677 37.6274 51.9949 36.7729 51.6686C35.9185 51.3423 35.4892 50.3859 35.8154 49.5315C35.9743 49.1154 36.1453 48.7044 36.3265 48.3ZM41.6899 40.7499C42.3543 40.1215 43.4034 40.1504 44.0319 40.8146C44.6604 41.4791 44.6317 42.5281 43.9672 43.1566C43.6895 43.4193 43.419 43.6898 43.1564 43.9675C42.5278 44.632 41.4789 44.6607 40.8143 44.0322C40.1502 43.4036 40.1212 42.3546 40.7496 41.6901C41.0543 41.3681 41.3678 41.0545 41.6899 40.7499ZM49.5312 35.8156C50.3857 35.4894 51.342 35.9187 51.6684 36.7732C51.9947 37.6276 51.5675 38.5839 50.713 38.9103C50.3554 39.0469 50.0018 39.1945 49.6541 39.3503C48.8198 39.7234 47.8415 39.3497 47.4674 38.5157C47.0933 37.6811 47.4655 36.701 48.2998 36.3267C48.7042 36.1455 49.1152 35.9745 49.5312 35.8156ZM58.0001 34.2607C58.9148 34.2607 59.6563 35.0023 59.6563 35.917C59.6563 36.8317 58.9148 37.5732 58.0001 37.5732C57.8076 37.5732 57.6154 37.5766 57.4243 37.5819C56.5101 37.6068 55.748 36.8851 55.7227 35.9709C55.6977 35.0567 56.4195 34.2946 57.3337 34.2694C57.5551 34.2633 57.7773 34.2607 58.0001 34.2607Z" fill="black"/>
<path d="M59.6562 58C59.6562 57.0853 58.9147 56.3437 58 56.3437C57.0853 56.3437 56.3437 57.0853 56.3437 58C56.3437 58.9147 57.0853 59.6562 58 59.6562C58.9147 59.6562 59.6562 58.9147 59.6562 58ZM62.9687 58C62.9687 60.7442 60.7442 62.9687 58 62.9687C55.2558 62.9687 53.0312 60.7442 53.0312 58C53.0312 55.2558 55.2558 53.0312 58 53.0312C60.7442 53.0312 62.9687 55.2558 62.9687 58Z" fill="black"/>
<path d="M61.3124 56.3437C60.3977 56.3437 59.6562 57.0853 59.6562 58C59.6562 58.9147 60.3977 59.6562 61.3124 59.6562H66.8333C67.748 59.6562 68.4895 58.9147 68.4895 58C68.4895 57.0853 67.748 56.3437 66.8333 56.3437H61.3124ZM59.6562 54.6875V44.75C59.6562 43.8353 58.9146 43.0938 57.9999 43.0938C57.0852 43.0938 56.3437 43.8353 56.3437 44.75V54.6875C56.3437 55.6022 57.0852 56.3437 57.9999 56.3437C58.9146 56.3437 59.6562 55.6022 59.6562 54.6875Z" fill="black"/>
</svg>
