<svg width="24" height="25" viewBox="0 0 24 25" fill="none" xmlns="http://www.w3.org/2000/svg">
<path d="M19.5543 6.09292C19.5542 5.43095 19.0326 4.92546 18.4271 4.92519H4.77286C4.16742 4.92546 3.64581 5.43095 3.64571 6.09292V21.1601C3.64596 21.9932 4.44131 22.5206 5.15 22.2605L6.6725 21.7018C7.35304 21.452 8.10296 21.4818 8.76179 21.784L11.1436 22.8759C11.4343 23.0093 11.7657 23.0093 12.0564 22.8759L14.4382 21.784C15.097 21.4818 15.847 21.452 16.5275 21.7018L18.05 22.2605C18.7587 22.5206 19.554 21.9932 19.5543 21.1601V6.09292ZM15.5011 14.9643C15.9554 14.9644 16.3238 15.3319 16.3239 15.7849C16.3239 16.238 15.9555 16.6053 15.5011 16.6054H7.69893C7.24453 16.6053 6.87607 16.238 6.87607 15.7849C6.87624 15.3319 7.24464 14.9644 7.69893 14.9643H15.5011ZM11.6 10.9879C12.0545 10.9879 12.4229 11.3552 12.4229 11.8084C12.4228 12.2615 12.0544 12.6289 11.6 12.6289H7.69893C7.24455 12.6288 6.87611 12.2615 6.87607 11.8084C6.87607 11.3553 7.24453 10.9879 7.69893 10.9879H11.6ZM21.2 21.1601C21.1997 23.0808 19.3152 24.4735 17.4821 23.8011L15.9586 23.2413C15.6875 23.1418 15.3896 23.1536 15.1261 23.2744L12.7443 24.3673C12.0171 24.7009 11.1829 24.7009 10.4557 24.3673L8.07393 23.2744C7.8104 23.1536 7.51251 23.1418 7.24143 23.2413L5.71786 23.8011C3.88484 24.4735 2.00026 23.0808 2 21.1601V6.09292C2.0001 4.55904 3.22441 3.28444 4.77286 3.28418H18.4271C19.9756 3.28444 21.1999 4.55904 21.2 6.09292V21.1601Z" fill="#009859"/>
<ellipse cx="16.6667" cy="7.01803" rx="5.33333" ry="5.86667" fill="white"/>
<path d="M18.4554 4.40926C18.4554 3.69304 17.8556 3.11242 17.1157 3.11242C16.3758 3.11242 15.776 3.69304 15.776 4.40926C15.776 5.12549 16.3758 5.7061 17.1157 5.7061C18.7435 5.7061 20.0631 6.98346 20.0631 8.55916C20.0631 9.86472 19.1561 10.9617 17.9195 11.3008V12.1903C17.9195 12.6201 17.5596 12.9684 17.1157 12.9684C16.6718 12.9684 16.3119 12.6201 16.3119 12.1903V11.3008C15.0753 10.9617 14.1683 9.86472 14.1683 8.55916C14.1683 8.12942 14.5282 7.78105 14.9722 7.78105C15.4161 7.78105 15.776 8.12942 15.776 8.55916C15.776 9.27538 16.3758 9.856 17.1157 9.856C17.8556 9.856 18.4554 9.27538 18.4554 8.55916C18.4554 7.84293 17.8556 7.26232 17.1157 7.26232C15.4879 7.26232 14.1683 5.98496 14.1683 4.40926C14.1683 3.1036 15.0752 2.00561 16.3119 1.66664V0.778105C16.3119 0.348369 16.6718 0 17.1157 0C17.5596 0 17.9195 0.348369 17.9195 0.778105V1.66664C19.1562 2.00561 20.0631 3.1036 20.0631 4.40926C20.0631 4.839 19.7032 5.18737 19.2592 5.18737C18.8153 5.18737 18.4554 4.839 18.4554 4.40926Z" fill="#009859"/>
</svg>
