<svg width="80" height="30" viewBox="0 0 80 30" fill="none" xmlns="http://www.w3.org/2000/svg">
<path d="M0.558594 19.4043C0.867088 19.4043 1.11719 19.6544 1.11719 19.9629V22.4336C1.11719 23.7841 2.21592 24.8828 3.56641 24.8828H6.03711C6.3456 24.8828 6.5957 25.1329 6.5957 25.4414C6.5957 25.7499 6.3456 26 6.03711 26H3.56641C1.5999 26 1.7806e-08 24.4001 0 22.4336V19.9629C0 19.6544 0.2501 19.4043 0.558594 19.4043ZM21.4414 19.4043C21.7499 19.4043 22 19.6544 22 19.9629V22.4336C22 24.4001 20.4001 26 18.4336 26H15.9629C15.6544 26 15.4043 25.7499 15.4043 25.4414C15.4043 25.1329 15.6544 24.8828 15.9629 24.8828H18.4336C19.7841 24.8828 20.8828 23.7841 20.8828 22.4336V19.9629C20.8828 19.6544 21.1329 19.4043 21.4414 19.4043ZM14.0674 19.4082C14.3027 19.1908 14.6703 19.2051 14.8877 19.4404C15.1049 19.6758 15.0898 20.0424 14.8545 20.2598C13.8021 21.2318 12.4335 21.7676 11 21.7676C9.56654 21.7676 8.19791 21.2318 7.14551 20.2598C6.91021 20.0424 6.89505 19.6758 7.1123 19.4404C7.32971 19.2051 7.69723 19.1908 7.93262 19.4082C8.76996 20.1815 9.85933 20.6074 11 20.6074C12.1407 20.6074 13.23 20.1815 14.0674 19.4082ZM11.5801 11.7129C11.9005 11.7129 12.1602 11.9726 12.1602 12.293V16.418C12.1602 17.2354 11.4952 17.9004 10.6777 17.9004H10.2051C9.8847 17.9004 9.625 17.6407 9.625 17.3203C9.625 16.9999 9.8847 16.7402 10.2051 16.7402H10.6777C10.8554 16.7402 11 16.5957 11 16.418V12.293C11 11.9726 11.2597 11.7129 11.5801 11.7129ZM6.52051 11.7129C6.82307 11.7129 7.06836 11.9582 7.06836 12.2607V13.915C7.06836 14.2176 6.82307 14.4629 6.52051 14.4629C6.21794 14.4629 5.97266 14.2176 5.97266 13.915V12.2607C5.97266 11.9582 6.21794 11.7129 6.52051 11.7129ZM15.6084 11.7129C15.911 11.7129 16.1562 11.9582 16.1562 12.2607V13.915C16.1562 14.2176 15.911 14.4629 15.6084 14.4629C15.3058 14.4629 15.0605 14.2176 15.0605 13.915V12.2607C15.0605 11.9582 15.3058 11.7129 15.6084 11.7129ZM6.03711 4C6.3456 4 6.5957 4.2501 6.5957 4.55859C6.5957 4.86709 6.3456 5.11719 6.03711 5.11719H3.56641C2.21592 5.11719 1.11719 6.2159 1.11719 7.56641V10.0371C1.11719 10.3456 0.867088 10.5957 0.558594 10.5957C0.2501 10.5957 3.53607e-08 10.3456 0 10.0371V7.56641C0 5.59988 1.5999 4 3.56641 4H6.03711ZM18.4336 4C20.4001 4 22 5.59988 22 7.56641V10.0371C22 10.3456 21.7499 10.5957 21.4414 10.5957C21.1329 10.5957 20.8828 10.3456 20.8828 10.0371V7.56641C20.8828 6.2159 19.7841 5.11719 18.4336 5.11719H15.9629C15.6544 5.11719 15.4043 4.86709 15.4043 4.55859C15.4043 4.2501 15.6544 4 15.9629 4H18.4336Z" fill="#0C3124"/>
<line opacity="0.2" x1="38.5" y1="2.18557e-08" x2="38.5" y2="30" stroke="#83968F"/>
<path d="M73.2942 6.52875C73.2075 6.52875 73.1208 6.50625 73.045 6.46125C70.965 5.3475 69.1667 4.875 67.0108 4.875C64.8658 4.875 62.8292 5.40375 60.9767 6.46125C60.7167 6.6075 60.3917 6.50625 60.24 6.23625C60.0992 5.96625 60.1967 5.6175 60.4567 5.47125C62.4717 4.335 64.6817 3.75 67.0108 3.75C69.3183 3.75 71.3333 4.27875 73.5433 5.46C73.8142 5.60625 73.9117 5.94375 73.7708 6.21375C73.6733 6.41625 73.4892 6.52875 73.2942 6.52875ZM57.7917 12.435C57.6833 12.435 57.575 12.4012 57.4775 12.3337C57.2283 12.1538 57.1742 11.805 57.3475 11.5463C58.42 9.97125 59.785 8.73375 61.41 7.8675C64.8117 6.045 69.1667 6.03375 72.5792 7.85625C74.2042 8.7225 75.5692 9.94875 76.6417 11.5125C76.815 11.76 76.7608 12.12 76.5117 12.3C76.2625 12.48 75.9267 12.4237 75.7533 12.165C74.7783 10.7475 73.5433 9.63375 72.0808 8.8575C68.9717 7.20375 64.9958 7.20375 61.8975 8.86875C60.4242 9.65625 59.1892 10.7813 58.2142 12.1988C58.1275 12.3562 57.965 12.435 57.7917 12.435ZM64.5625 26.0138C64.4217 26.0138 64.2808 25.9575 64.1833 25.845C63.2408 24.8662 62.7317 24.2362 62.0058 22.875C61.2583 21.4912 60.8683 19.8037 60.8683 17.9925C60.8683 14.6512 63.62 11.9288 67 11.9288C70.38 11.9288 73.1317 14.6512 73.1317 17.9925C73.1317 18.3075 72.8933 18.555 72.59 18.555C72.2867 18.555 72.0483 18.3075 72.0483 17.9925C72.0483 15.27 69.7842 13.0538 67 13.0538C64.2158 13.0538 61.9517 15.27 61.9517 17.9925C61.9517 19.6125 62.2983 21.1087 62.9592 22.3237C63.6525 23.6175 64.1292 24.1688 64.9633 25.0462C65.1692 25.2712 65.1692 25.62 64.9633 25.845C64.8442 25.9575 64.7033 26.0138 64.5625 26.0138ZM72.33 23.9325C71.0408 23.9325 69.9033 23.595 68.9717 22.9312C67.3575 21.795 66.3933 19.95 66.3933 17.9925C66.3933 17.6775 66.6317 17.43 66.935 17.43C67.2383 17.43 67.4767 17.6775 67.4767 17.9925C67.4767 19.5787 68.2567 21.075 69.5783 21.9975C70.3475 22.5375 71.2467 22.7962 72.33 22.7962C72.59 22.7962 73.0233 22.7625 73.4567 22.6838C73.7492 22.6275 74.0308 22.83 74.085 23.145C74.1392 23.4487 73.9442 23.7412 73.6408 23.7975C73.0233 23.9212 72.4817 23.9325 72.33 23.9325ZM70.1525 26.25C70.1092 26.25 70.055 26.2387 70.0117 26.2275C68.2892 25.7325 67.1625 25.0687 65.9817 23.865C64.465 22.3012 63.6308 20.22 63.6308 17.9925C63.6308 16.17 65.1258 14.685 66.9675 14.685C68.8092 14.685 70.3042 16.17 70.3042 17.9925C70.3042 19.1962 71.3117 20.175 72.5575 20.175C73.8033 20.175 74.8108 19.1962 74.8108 17.9925C74.8108 13.7513 71.29 10.3088 66.9567 10.3088C63.88 10.3088 61.0633 12.0862 59.7958 14.8425C59.3733 15.7537 59.1567 16.8225 59.1567 17.9925C59.1567 18.87 59.2325 20.2537 59.8825 22.0538C59.9908 22.3463 59.85 22.6725 59.5683 22.7738C59.2867 22.8862 58.9725 22.7288 58.875 22.4475C58.3442 20.9738 58.0842 19.5112 58.0842 17.9925C58.0842 16.6425 58.3333 15.4163 58.8208 14.3475C60.2617 11.2088 63.4575 9.1725 66.9567 9.1725C71.8858 9.1725 75.8942 13.1212 75.8942 17.9812C75.8942 19.8037 74.3992 21.2887 72.5575 21.2887C70.7158 21.2887 69.2208 19.8037 69.2208 17.9812C69.2208 16.7775 68.2133 15.7987 66.9675 15.7987C65.7217 15.7987 64.7142 16.7775 64.7142 17.9812C64.7142 19.905 65.4292 21.705 66.74 23.055C67.7692 24.1125 68.755 24.6975 70.2825 25.1362C70.575 25.215 70.7375 25.53 70.6617 25.8225C70.6075 26.0813 70.38 26.25 70.1525 26.25Z" fill="#0C3124"/>
</svg>
