<svg width="107" height="23" viewBox="0 0 107 23" fill="none" xmlns="http://www.w3.org/2000/svg">
<rect width="107" height="23" rx="9" fill="#E5F3FE"/>
<circle cx="15.5" cy="11.5" r="6" stroke="#028BFD" stroke-dasharray="3 3"/>
<path d="M32.204 16V6.396H36.95C37.6127 6.396 38.1633 6.522 38.602 6.774C39.0407 7.01667 39.3673 7.35733 39.582 7.796C39.806 8.23467 39.918 8.74333 39.918 9.322C39.918 9.91 39.7967 10.4327 39.554 10.89C39.3113 11.338 38.966 11.688 38.518 11.94C38.0793 12.192 37.552 12.318 36.936 12.318H33.534V16H32.204ZM33.534 11.17H36.852C37.3747 11.17 37.79 11.0067 38.098 10.68C38.4153 10.3533 38.574 9.90533 38.574 9.336C38.574 8.95333 38.5087 8.63133 38.378 8.37C38.2473 8.10867 38.056 7.908 37.804 7.768C37.552 7.61867 37.2347 7.544 36.852 7.544H33.534V11.17ZM40.9965 16V8.636H41.9905L42.1025 9.854H42.2005C42.2752 9.62067 42.3779 9.40133 42.5085 9.196C42.6392 8.98133 42.8165 8.80867 43.0405 8.678C43.2645 8.538 43.5399 8.468 43.8665 8.468C44.0065 8.468 44.1325 8.482 44.2445 8.51C44.3659 8.52867 44.4545 8.552 44.5105 8.58V9.714H44.0485C43.7312 9.714 43.4559 9.77 43.2225 9.882C42.9985 9.98467 42.8119 10.134 42.6625 10.33C42.5132 10.526 42.4012 10.7593 42.3265 11.03C42.2612 11.3007 42.2285 11.59 42.2285 11.898V16H40.9965ZM48.2523 16.168C47.5056 16.168 46.8756 16.0327 46.3623 15.762C45.8583 15.482 45.4709 15.0573 45.2003 14.488C44.9389 13.9187 44.8083 13.1953 44.8083 12.318C44.8083 11.4313 44.9389 10.708 45.2003 10.148C45.4709 9.57867 45.8583 9.15867 46.3623 8.888C46.8756 8.608 47.5056 8.468 48.2523 8.468C48.9989 8.468 49.6243 8.608 50.1283 8.888C50.6416 9.15867 51.0289 9.57867 51.2903 10.148C51.5516 10.708 51.6823 11.4313 51.6823 12.318C51.6823 13.1953 51.5516 13.9187 51.2903 14.488C51.0289 15.0573 50.6416 15.482 50.1283 15.762C49.6243 16.0327 48.9989 16.168 48.2523 16.168ZM48.2523 15.132C48.7283 15.132 49.1249 15.0387 49.4423 14.852C49.7596 14.6653 49.9976 14.376 50.1563 13.984C50.3243 13.5827 50.4083 13.0787 50.4083 12.472V12.164C50.4083 11.548 50.3243 11.044 50.1563 10.652C49.9976 10.26 49.7596 9.97067 49.4423 9.784C49.1249 9.59733 48.7283 9.504 48.2523 9.504C47.7763 9.504 47.3749 9.59733 47.0483 9.784C46.7309 9.97067 46.4929 10.26 46.3343 10.652C46.1756 11.044 46.0963 11.548 46.0963 12.164V12.472C46.0963 13.0787 46.1756 13.5827 46.3343 13.984C46.4929 14.376 46.7309 14.6653 47.0483 14.852C47.3749 15.0387 47.7763 15.132 48.2523 15.132ZM55.7326 16.168C55.0233 16.168 54.426 16.0327 53.9406 15.762C53.4646 15.482 53.1006 15.0573 52.8486 14.488C52.606 13.9093 52.4846 13.186 52.4846 12.318C52.4846 11.45 52.606 10.7313 52.8486 10.162C53.1006 9.59267 53.4693 9.168 53.9546 8.888C54.4493 8.608 55.056 8.468 55.7746 8.468C56.2786 8.468 56.7126 8.53333 57.0766 8.664C57.45 8.79467 57.758 8.986 58.0006 9.238C58.2433 9.49 58.4206 9.79333 58.5326 10.148C58.654 10.5027 58.7146 10.9087 58.7146 11.366H57.4686C57.4686 10.9367 57.408 10.5867 57.2866 10.316C57.1746 10.036 56.9926 9.83067 56.7406 9.7C56.4886 9.56 56.1573 9.49 55.7466 9.49C55.336 9.49 54.9813 9.58333 54.6826 9.77C54.384 9.94733 54.1553 10.232 53.9966 10.624C53.838 11.016 53.7586 11.534 53.7586 12.178V12.472C53.7586 13.0787 53.8333 13.5827 53.9826 13.984C54.1413 14.3853 54.37 14.6793 54.6686 14.866C54.9673 15.0527 55.3313 15.146 55.7606 15.146C56.1806 15.146 56.5166 15.0713 56.7686 14.922C57.03 14.7727 57.2166 14.558 57.3286 14.278C57.45 13.998 57.5106 13.662 57.5106 13.27H58.7146C58.7146 13.6807 58.654 14.0633 58.5326 14.418C58.4206 14.7727 58.2433 15.0807 58.0006 15.342C57.758 15.6033 57.45 15.8087 57.0766 15.958C56.7033 16.098 56.2553 16.168 55.7326 16.168ZM62.8524 16.168C62.1244 16.168 61.5084 16.0327 61.0044 15.762C60.5097 15.482 60.1317 15.0573 59.8704 14.488C59.6184 13.9187 59.4924 13.1953 59.4924 12.318C59.4924 11.4313 59.6184 10.708 59.8704 10.148C60.1317 9.57867 60.5144 9.15867 61.0184 8.888C61.5224 8.608 62.1524 8.468 62.9084 8.468C63.5991 8.468 64.1777 8.60333 64.6444 8.874C65.1111 9.13533 65.4611 9.532 65.6944 10.064C65.9371 10.5867 66.0584 11.2447 66.0584 12.038V12.626H60.7664C60.7851 13.214 60.8691 13.6993 61.0184 14.082C61.1771 14.4553 61.4104 14.7307 61.7184 14.908C62.0264 15.076 62.4137 15.16 62.8804 15.16C63.1977 15.16 63.4731 15.1227 63.7064 15.048C63.9491 14.964 64.1497 14.8473 64.3084 14.698C64.4764 14.5487 64.6024 14.3713 64.6864 14.166C64.7704 13.9607 64.8171 13.7367 64.8264 13.494H66.0304C66.0211 13.886 65.9464 14.25 65.8064 14.586C65.6664 14.9127 65.4611 15.1927 65.1904 15.426C64.9197 15.6593 64.5884 15.8413 64.1964 15.972C63.8044 16.1027 63.3564 16.168 62.8524 16.168ZM60.7944 11.702H64.7844C64.7844 11.2913 64.7377 10.946 64.6444 10.666C64.5511 10.386 64.4157 10.1573 64.2384 9.98C64.0704 9.80267 63.8697 9.67667 63.6364 9.602C63.4124 9.518 63.1557 9.476 62.8664 9.476C62.4371 9.476 62.0731 9.55533 61.7744 9.714C61.4757 9.87267 61.2471 10.1153 61.0884 10.442C60.9297 10.7687 60.8317 11.1887 60.7944 11.702ZM69.8783 16.168C69.3743 16.168 68.931 16.1167 68.5483 16.014C68.1657 15.9113 67.8483 15.762 67.5963 15.566C67.3443 15.37 67.153 15.1367 67.0223 14.866C66.8917 14.5953 66.8263 14.2873 66.8263 13.942C66.8263 13.8953 66.8263 13.8533 66.8263 13.816C66.8263 13.7693 66.831 13.732 66.8403 13.704H68.0583C68.049 13.7413 68.0443 13.774 68.0443 13.802C68.0443 13.83 68.0443 13.858 68.0443 13.886C68.0537 14.2127 68.1377 14.4693 68.2963 14.656C68.4643 14.8427 68.693 14.9733 68.9823 15.048C69.2717 15.1227 69.5937 15.16 69.9483 15.16C70.2563 15.16 70.541 15.1227 70.8023 15.048C71.0637 14.964 71.269 14.8427 71.4183 14.684C71.577 14.516 71.6563 14.306 71.6563 14.054C71.6563 13.746 71.5537 13.5127 71.3483 13.354C71.1523 13.186 70.891 13.0553 70.5643 12.962C70.2377 12.8687 69.897 12.7707 69.5423 12.668C69.2437 12.584 68.945 12.4907 68.6463 12.388C68.3477 12.2853 68.077 12.1593 67.8343 12.01C67.601 11.8607 67.4097 11.6693 67.2603 11.436C67.1203 11.1933 67.0503 10.89 67.0503 10.526C67.0503 10.1993 67.1157 9.91 67.2463 9.658C67.3863 9.406 67.5823 9.19133 67.8343 9.014C68.0863 8.83667 68.3897 8.706 68.7443 8.622C69.1083 8.52867 69.5097 8.482 69.9483 8.482C70.415 8.482 70.821 8.53333 71.1663 8.636C71.521 8.73867 71.815 8.88333 72.0483 9.07C72.2817 9.25667 72.4543 9.47133 72.5663 9.714C72.6783 9.94733 72.7343 10.1993 72.7343 10.47C72.7343 10.526 72.7343 10.582 72.7343 10.638C72.7343 10.6847 72.7297 10.722 72.7203 10.75H71.5163V10.596C71.5163 10.4093 71.465 10.232 71.3623 10.064C71.269 9.88667 71.101 9.74667 70.8583 9.644C70.625 9.532 70.2983 9.476 69.8783 9.476C69.6077 9.476 69.3743 9.49933 69.1783 9.546C68.9823 9.58333 68.819 9.64867 68.6883 9.742C68.5577 9.826 68.4597 9.92867 68.3943 10.05C68.329 10.162 68.2963 10.2927 68.2963 10.442C68.2963 10.6847 68.3757 10.8713 68.5343 11.002C68.693 11.1327 68.903 11.24 69.1643 11.324C69.435 11.408 69.7243 11.5013 70.0323 11.604C70.359 11.6973 70.6903 11.7953 71.0263 11.898C71.3717 11.9913 71.6843 12.1127 71.9643 12.262C72.2537 12.4113 72.4823 12.6167 72.6503 12.878C72.8277 13.13 72.9163 13.466 72.9163 13.886C72.9163 14.278 72.8417 14.6187 72.6923 14.908C72.543 15.1973 72.3283 15.4353 72.0483 15.622C71.7777 15.8087 71.4557 15.944 71.0823 16.028C70.7183 16.1213 70.317 16.168 69.8783 16.168ZM76.735 16.168C76.231 16.168 75.7877 16.1167 75.405 16.014C75.0224 15.9113 74.705 15.762 74.453 15.566C74.201 15.37 74.0097 15.1367 73.879 14.866C73.7484 14.5953 73.683 14.2873 73.683 13.942C73.683 13.8953 73.683 13.8533 73.683 13.816C73.683 13.7693 73.6877 13.732 73.697 13.704H74.915C74.9057 13.7413 74.901 13.774 74.901 13.802C74.901 13.83 74.901 13.858 74.901 13.886C74.9104 14.2127 74.9944 14.4693 75.153 14.656C75.321 14.8427 75.5497 14.9733 75.839 15.048C76.1284 15.1227 76.4504 15.16 76.805 15.16C77.113 15.16 77.3977 15.1227 77.659 15.048C77.9204 14.964 78.1257 14.8427 78.275 14.684C78.4337 14.516 78.513 14.306 78.513 14.054C78.513 13.746 78.4104 13.5127 78.205 13.354C78.009 13.186 77.7477 13.0553 77.421 12.962C77.0944 12.8687 76.7537 12.7707 76.399 12.668C76.1004 12.584 75.8017 12.4907 75.503 12.388C75.2044 12.2853 74.9337 12.1593 74.691 12.01C74.4577 11.8607 74.2664 11.6693 74.117 11.436C73.977 11.1933 73.907 10.89 73.907 10.526C73.907 10.1993 73.9724 9.91 74.103 9.658C74.243 9.406 74.439 9.19133 74.691 9.014C74.943 8.83667 75.2464 8.706 75.601 8.622C75.965 8.52867 76.3664 8.482 76.805 8.482C77.2717 8.482 77.6777 8.53333 78.023 8.636C78.3777 8.73867 78.6717 8.88333 78.905 9.07C79.1384 9.25667 79.311 9.47133 79.423 9.714C79.535 9.94733 79.591 10.1993 79.591 10.47C79.591 10.526 79.591 10.582 79.591 10.638C79.591 10.6847 79.5864 10.722 79.577 10.75H78.373V10.596C78.373 10.4093 78.3217 10.232 78.219 10.064C78.1257 9.88667 77.9577 9.74667 77.715 9.644C77.4817 9.532 77.155 9.476 76.735 9.476C76.4644 9.476 76.231 9.49933 76.035 9.546C75.839 9.58333 75.6757 9.64867 75.545 9.742C75.4144 9.826 75.3164 9.92867 75.251 10.05C75.1857 10.162 75.153 10.2927 75.153 10.442C75.153 10.6847 75.2324 10.8713 75.391 11.002C75.5497 11.1327 75.7597 11.24 76.021 11.324C76.2917 11.408 76.581 11.5013 76.889 11.604C77.2157 11.6973 77.547 11.7953 77.883 11.898C78.2284 11.9913 78.541 12.1127 78.821 12.262C79.1104 12.4113 79.339 12.6167 79.507 12.878C79.6844 13.13 79.773 13.466 79.773 13.886C79.773 14.278 79.6984 14.6187 79.549 14.908C79.3997 15.1973 79.185 15.4353 78.905 15.622C78.6344 15.8087 78.3124 15.944 77.939 16.028C77.575 16.1213 77.1737 16.168 76.735 16.168ZM81.0158 7.25V5.878H82.2478V7.25H81.0158ZM81.0158 16V8.636H82.2478V16H81.0158ZM83.8803 16V8.636H84.8743L84.9863 9.742H85.0843C85.2803 9.44333 85.4996 9.20067 85.7423 9.014C85.9943 8.82733 86.2696 8.692 86.5683 8.608C86.8763 8.51467 87.203 8.468 87.5483 8.468C88.015 8.468 88.421 8.54733 88.7663 8.706C89.121 8.86467 89.3963 9.12133 89.5923 9.476C89.7976 9.83067 89.9003 10.3113 89.9003 10.918V16H88.6683V11.086C88.6683 10.778 88.6263 10.526 88.5423 10.33C88.4676 10.134 88.3603 9.98 88.2203 9.868C88.0896 9.756 87.9263 9.67667 87.7303 9.63C87.5436 9.58333 87.3336 9.56 87.1003 9.56C86.755 9.56 86.4283 9.644 86.1203 9.812C85.8123 9.98 85.565 10.2227 85.3783 10.54C85.201 10.8573 85.1123 11.2353 85.1123 11.674V16H83.8803ZM92.735 18.548C92.3803 18.548 92.0536 18.4733 91.755 18.324C91.4563 18.184 91.2183 17.9787 91.041 17.708C90.8636 17.4373 90.775 17.1153 90.775 16.742C90.775 16.3313 90.887 15.9907 91.111 15.72C91.3443 15.4493 91.6196 15.2487 91.937 15.118C91.7036 15.006 91.5216 14.852 91.391 14.656C91.2603 14.4507 91.195 14.2267 91.195 13.984C91.195 13.6573 91.3116 13.382 91.545 13.158C91.7876 12.934 92.0816 12.7847 92.427 12.71C92.1096 12.5047 91.8576 12.2433 91.671 11.926C91.4936 11.5993 91.405 11.24 91.405 10.848C91.405 10.3813 91.5123 9.97067 91.727 9.616C91.951 9.26133 92.287 8.98133 92.735 8.776C93.1923 8.57067 93.7476 8.468 94.401 8.468C94.6996 8.468 94.9796 8.49133 95.241 8.538C95.5023 8.57533 95.7356 8.64067 95.941 8.734C96.2676 8.58467 96.5103 8.39333 96.669 8.16C96.837 7.92667 96.9396 7.68867 96.977 7.446H98.195C98.195 7.726 98.1296 7.992 97.999 8.244C97.8776 8.48667 97.7096 8.692 97.495 8.86C97.2803 9.01867 97.019 9.126 96.711 9.182C96.9443 9.406 97.117 9.658 97.229 9.938C97.3503 10.218 97.411 10.5213 97.411 10.848C97.411 11.3147 97.299 11.73 97.075 12.094C96.8603 12.4487 96.5336 12.7287 96.095 12.934C95.6563 13.1393 95.1056 13.242 94.443 13.242H93.295C93.043 13.242 92.8376 13.2933 92.679 13.396C92.5203 13.4893 92.441 13.6433 92.441 13.858C92.441 14.0447 92.5203 14.1987 92.679 14.32C92.8376 14.432 93.043 14.488 93.295 14.488H96.291C96.8323 14.488 97.2756 14.67 97.621 15.034C97.9663 15.3887 98.139 15.846 98.139 16.406C98.139 16.8073 98.0363 17.1667 97.831 17.484C97.635 17.8107 97.355 18.0673 96.991 18.254C96.6363 18.45 96.221 18.548 95.745 18.548H92.735ZM93.085 17.61H95.731C95.9456 17.61 96.1416 17.5633 96.319 17.47C96.4963 17.386 96.6363 17.2647 96.739 17.106C96.8416 16.9473 96.893 16.7747 96.893 16.588C96.893 16.2707 96.7996 16.0187 96.613 15.832C96.4263 15.6453 96.193 15.552 95.913 15.552H93.085C92.7863 15.552 92.5343 15.6547 92.329 15.86C92.1236 16.056 92.021 16.2987 92.021 16.588C92.021 16.896 92.1236 17.1433 92.329 17.33C92.5343 17.5167 92.7863 17.61 93.085 17.61ZM94.415 12.318C95.0123 12.318 95.4556 12.1873 95.745 11.926C96.0343 11.6647 96.179 11.3053 96.179 10.848C96.179 10.4 96.0343 10.0453 95.745 9.784C95.4556 9.52267 95.0123 9.392 94.415 9.392C93.8176 9.392 93.3696 9.52267 93.071 9.784C92.7816 10.0453 92.637 10.4 92.637 10.848C92.637 11.1373 92.7023 11.394 92.833 11.618C92.9636 11.842 93.1596 12.0147 93.421 12.136C93.6823 12.2573 94.0136 12.318 94.415 12.318Z" fill="#028BFD"/>
</svg>
