<svg width="120" height="120" viewBox="0 0 120 120" fill="none" xmlns="http://www.w3.org/2000/svg">
<g clip-path="url(#clip0_24027_130565)">
<mask id="mask0_24027_130565" style="mask-type:luminance" maskUnits="userSpaceOnUse" x="6" y="6" width="109" height="109">
<path d="M9.84375 51.0938V47.3438H7.96875C7.47147 47.3438 6.99456 47.5413 6.64293 47.8929C6.29129 48.2446 6.09375 48.7215 6.09375 49.2188C6.09375 49.716 6.29129 50.1929 6.64293 50.5446C6.99456 50.8962 7.47147 51.0938 7.96875 51.0938" fill="white"/>
<path d="M6.09375 62.3438H9.84375V58.5938H7.96875C7.47147 58.5938 6.99455 58.7913 6.64292 59.1429C6.29129 59.4946 6.09375 59.9715 6.09375 60.4688" fill="white"/>
<path d="M9.84375 62.3438H6.09375V66.0938H9.84375V62.3438Z" fill="white"/>
<path d="M9.84375 66.0938H6.09375V69.8438H9.84375V66.0938Z" fill="white"/>
<path d="M9.84375 73.5938V69.8438H6.09375V71.7188C6.09375 72.216 6.29129 72.6929 6.64293 73.0446C6.99456 73.3962 7.47147 73.5938 7.96875 73.5938" fill="white"/>
<path d="M6.09375 81.0938H9.84375V77.3438H7.96875C7.47147 77.3438 6.99455 77.5413 6.64292 77.8929C6.29129 78.2446 6.09375 78.7215 6.09375 79.2188" fill="white"/>
<path d="M9.84375 81.0938H6.09375V82.9688C6.09375 83.466 6.29129 83.9429 6.64292 84.2946C6.99455 84.6462 7.47147 84.8438 7.96875 84.8438C8.46603 84.8438 8.94295 84.6462 9.29458 84.2946C9.64621 83.9429 9.84375 83.466 9.84375 82.9688" fill="white"/>
<path d="M9.84375 39.8438H13.5938V37.9688C13.5938 37.4715 13.3962 36.9946 13.0446 36.6429C12.6929 36.2913 12.216 36.0938 11.7188 36.0938C11.2215 36.0938 10.7446 36.2913 10.3929 36.6429C10.0413 36.9946 9.84375 37.4715 9.84375 37.9688" fill="white"/>
<path d="M13.5938 39.8438H9.84375V43.5938H13.5938V39.8438Z" fill="white"/>
<path d="M13.5938 43.5938H9.84375V47.3438H13.5938V43.5938Z" fill="white"/>
<path d="M13.5938 47.3438H9.84375V51.0938H13.5938V47.3438Z" fill="white"/>
<path d="M9.84375 58.5938H13.5938V54.8438H11.7188C11.2215 54.8438 10.7446 55.0413 10.3929 55.3929C10.0413 55.7446 9.84375 56.2215 9.84375 56.7188" fill="white"/>
<path d="M13.5938 58.5938H9.84375V62.3438H11.7188C12.216 62.3438 12.6929 62.1462 13.0446 61.7946C13.3962 61.4429 13.5938 60.966 13.5938 60.4688" fill="white"/>
<path d="M9.84375 69.8438V73.5938H11.7188C12.216 73.5938 12.6929 73.3962 13.0446 73.0446C13.3962 72.6929 13.5938 72.216 13.5938 71.7188C13.5938 71.2215 13.3962 70.7446 13.0446 70.3929C12.6929 70.0413 12.216 69.8438 11.7188 69.8438" fill="white"/>
<path d="M13.5938 77.3438H9.84375V81.0938H13.5938V77.3438Z" fill="white"/>
<path d="M13.5938 39.8438V43.5938H17.3438V41.7188C17.3438 41.2215 17.1462 40.7446 16.7946 40.3929C16.4429 40.0413 15.966 39.8438 15.4688 39.8438" fill="white"/>
<path d="M17.3438 43.5938H13.5938V47.3438H17.3438V43.5938Z" fill="white"/>
<path d="M17.3438 47.3438H13.5938V51.0938H17.3438V47.3438Z" fill="white"/>
<path d="M17.3438 51.0938H13.5938V54.8438H17.3438V51.0938Z" fill="white"/>
<path d="M17.3438 54.8438H13.5938V58.5938H15.4688C15.966 58.5938 16.4429 58.3962 16.7946 58.0446C17.1462 57.6929 17.3438 57.216 17.3438 56.7188" fill="white"/>
<path d="M17.3438 66.0938V62.3438H15.4688C14.9715 62.3438 14.4946 62.5413 14.1429 62.8929C13.7913 63.2446 13.5938 63.7215 13.5938 64.2188C13.5938 64.716 13.7913 65.1929 14.1429 65.5446C14.4946 65.8962 14.9715 66.0938 15.4688 66.0938" fill="white"/>
<path d="M13.5938 77.3438V81.0938H15.4688C15.966 81.0938 16.4429 80.8962 16.7946 80.5446C17.1462 80.1929 17.3438 79.716 17.3438 79.2188C17.3438 78.7215 17.1462 78.2446 16.7946 77.8929C16.4429 77.5413 15.966 77.3438 15.4688 77.3438" fill="white"/>
<path d="M21.0938 39.8438V36.0938H19.2188C18.7215 36.0938 18.2446 36.2913 17.8929 36.6429C17.5413 36.9946 17.3438 37.4715 17.3438 37.9688C17.3438 38.466 17.5413 38.9429 17.8929 39.2946C18.2446 39.6462 18.7215 39.8438 19.2188 39.8438" fill="white"/>
<path d="M21.0938 43.5938H17.3438V47.3438H21.0938V43.5938Z" fill="white"/>
<path d="M17.3438 51.0938V54.8438H19.2188C19.716 54.8438 20.1929 54.6462 20.5446 54.2946C20.8962 53.9429 21.0938 53.466 21.0938 52.9688C21.0938 52.4715 20.8962 51.9946 20.5446 51.6429C20.1929 51.2913 19.716 51.0938 19.2188 51.0938" fill="white"/>
<path d="M21.0938 62.3438H17.3438V66.0938H21.0938V62.3438Z" fill="white"/>
<path d="M21.0938 66.0938H17.3438V69.8438H21.0938V66.0938Z" fill="white"/>
<path d="M21.0938 69.8438H17.3438V73.5938H21.0938V69.8438Z" fill="white"/>
<path d="M21.0938 77.3438V73.5938H17.3438V75.4688C17.3438 75.966 17.5413 76.4429 17.8929 76.7946C18.2446 77.1462 18.7215 77.3438 19.2188 77.3438" fill="white"/>
<path d="M21.0938 36.0938V39.8438H24.8438V37.9688C24.8438 37.4715 24.6462 36.9946 24.2946 36.6429C23.9429 36.2913 23.466 36.0938 22.9688 36.0938" fill="white"/>
<path d="M24.8438 39.8438H21.0938V43.5938H24.8438V39.8438Z" fill="white"/>
<path d="M24.8438 43.5938H21.0938V47.3438H24.8438V43.5938Z" fill="white"/>
<path d="M24.8438 47.3438H21.0938V49.2188C21.0938 49.716 21.2913 50.1929 21.6429 50.5446C21.9946 50.8962 22.4715 51.0938 22.9688 51.0938C23.466 51.0938 23.9429 50.8962 24.2946 50.5446C24.6462 50.1929 24.8438 49.716 24.8438 49.2188" fill="white"/>
<path d="M21.0938 62.3438H24.8438V60.4688C24.8438 59.9715 24.6462 59.4946 24.2946 59.1429C23.9429 58.7913 23.466 58.5938 22.9688 58.5938C22.4715 58.5938 21.9946 58.7913 21.6429 59.1429C21.2913 59.4946 21.0938 59.9715 21.0938 60.4688" fill="white"/>
<path d="M24.8438 62.3438H21.0938V66.0938H24.8438V62.3438Z" fill="white"/>
<path d="M21.0938 73.5938V77.3438H24.8438V75.4688C24.8438 74.9715 24.6462 74.4946 24.2946 74.1429C23.9429 73.7913 23.466 73.5938 22.9688 73.5938" fill="white"/>
<path d="M24.8438 77.3438H21.0938V79.2188C21.0938 79.716 21.2913 80.1929 21.6429 80.5446C21.9946 80.8962 22.4715 81.0938 22.9688 81.0938C23.466 81.0938 23.9429 80.8962 24.2946 80.5446C24.6462 80.1929 24.8438 79.716 24.8438 79.2188" fill="white"/>
<path d="M28.5938 43.5938H24.8438V47.3438H28.5938V43.5938Z" fill="white"/>
<path d="M24.8438 54.8438H28.5938V51.0938H26.7188C26.2215 51.0938 25.7446 51.2913 25.3929 51.6429C25.0413 51.9946 24.8438 52.4715 24.8438 52.9688" fill="white"/>
<path d="M28.5938 54.8438H24.8438V56.7188C24.8438 57.216 25.0413 57.6929 25.3929 58.0446C25.7446 58.3962 26.2215 58.5938 26.7188 58.5938C27.216 58.5938 27.6929 58.3962 28.0446 58.0446C28.3962 57.6929 28.5938 57.216 28.5938 56.7188" fill="white"/>
<path d="M24.8438 62.3438V66.0938H26.7188C27.216 66.0938 27.6929 65.8962 28.0446 65.5446C28.3962 65.1929 28.5938 64.716 28.5938 64.2188C28.5938 63.7215 28.3962 63.2446 28.0446 62.8929C27.6929 62.5413 27.216 62.3438 26.7188 62.3438" fill="white"/>
<path d="M28.5938 84.8438V81.0938H26.7188C26.2215 81.0938 25.7446 81.2913 25.3929 81.6429C25.0413 81.9946 24.8438 82.4715 24.8438 82.9688C24.8438 83.466 25.0413 83.9429 25.3929 84.2946C25.7446 84.6462 26.2215 84.8438 26.7188 84.8438" fill="white"/>
<path d="M32.3438 39.8438V36.0938H30.4688C29.9715 36.0938 29.4946 36.2913 29.1429 36.6429C28.7913 36.9946 28.5938 37.4715 28.5938 37.9688C28.5938 38.466 28.7913 38.9429 29.1429 39.2946C29.4946 39.6462 29.9715 39.8438 30.4688 39.8438" fill="white"/>
<path d="M28.5938 43.5938V47.3438H30.4688C30.966 47.3438 31.4429 47.1462 31.7946 46.7946C32.1462 46.4429 32.3438 45.966 32.3438 45.4688C32.3438 44.9715 32.1462 44.4946 31.7946 44.1429C31.4429 43.7913 30.966 43.5938 30.4688 43.5938" fill="white"/>
<path d="M32.3438 51.0938H28.5938V54.8438H32.3438V51.0938Z" fill="white"/>
<path d="M32.3438 62.3438V58.5938H30.4688C29.9715 58.5938 29.4946 58.7913 29.1429 59.1429C28.7913 59.4946 28.5938 59.9715 28.5938 60.4688C28.5938 60.966 28.7913 61.4429 29.1429 61.7946C29.4946 62.1462 29.9715 62.3438 30.4688 62.3438" fill="white"/>
<path d="M30.4688 69.8438C31.5043 69.8438 32.3438 69.0043 32.3438 67.9688C32.3438 66.9332 31.5043 66.0938 30.4688 66.0938C29.4332 66.0938 28.5938 66.9332 28.5938 67.9688C28.5938 69.0043 29.4332 69.8438 30.4688 69.8438Z" fill="white"/>
<path d="M32.3438 77.3438V73.5938H30.4688C29.9715 73.5938 29.4946 73.7913 29.1429 74.1429C28.7913 74.4946 28.5938 74.9715 28.5938 75.4688C28.5938 75.966 28.7913 76.4429 29.1429 76.7946C29.4946 77.1462 29.9715 77.3438 30.4688 77.3438" fill="white"/>
<path d="M28.5938 81.0938V84.8438H30.4688C30.966 84.8438 31.4429 84.6462 31.7946 84.2946C32.1462 83.9429 32.3438 83.466 32.3438 82.9688C32.3438 82.4715 32.1462 81.9946 31.7946 81.6429C31.4429 81.2913 30.966 81.0938 30.4688 81.0938" fill="white"/>
<path d="M36.0938 36.0938H32.3438V39.8438H36.0938V36.0938Z" fill="white"/>
<path d="M36.0938 51.0938H32.3438V54.8438H36.0938V51.0938Z" fill="white"/>
<path d="M32.3438 58.5938V62.3438H36.0938V60.4688C36.0938 59.9715 35.8962 59.4946 35.5446 59.1429C35.1929 58.7913 34.716 58.5938 34.2188 58.5938" fill="white"/>
<path d="M36.0938 66.0938V62.3438H32.3438V64.2188C32.3438 64.716 32.5413 65.1929 32.8929 65.5446C33.2446 65.8962 33.7215 66.0938 34.2188 66.0938" fill="white"/>
<path d="M32.3438 73.5938H36.0938V71.7188C36.0938 71.2215 35.8962 70.7446 35.5446 70.3929C35.1929 70.0413 34.716 69.8438 34.2188 69.8438C33.7215 69.8438 33.2446 70.0413 32.8929 70.3929C32.5413 70.7446 32.3438 71.2215 32.3438 71.7188" fill="white"/>
<path d="M36.0938 73.5938H32.3438V77.3438H34.2188C34.716 77.3438 35.1929 77.1462 35.5446 76.7946C35.8962 76.4429 36.0938 75.966 36.0938 75.4688" fill="white"/>
<path d="M39.8438 13.5938V9.84375H37.9688C37.4715 9.84375 36.9946 10.0413 36.6429 10.3929C36.2913 10.7446 36.0938 11.2215 36.0938 11.7188C36.0938 12.216 36.2913 12.6929 36.6429 13.0446C36.9946 13.3962 37.4715 13.5938 37.9688 13.5938" fill="white"/>
<path d="M36.0938 21.0938H39.8438V19.2188C39.8438 18.7215 39.6462 18.2446 39.2946 17.8929C38.9429 17.5413 38.466 17.3438 37.9688 17.3438C37.4715 17.3438 36.9946 17.5413 36.6429 17.8929C36.2913 18.2446 36.0938 18.7215 36.0938 19.2188" fill="white"/>
<path d="M39.8438 21.0938H36.0938V24.8438H39.8438V21.0938Z" fill="white"/>
<path d="M39.8438 24.8438H36.0938V28.5938H39.8438V24.8438Z" fill="white"/>
<path d="M39.8438 28.5938H36.0938V30.4688C36.0938 30.966 36.2913 31.4429 36.6429 31.7946C36.9946 32.1462 37.4715 32.3438 37.9688 32.3438C38.466 32.3438 38.9429 32.1462 39.2946 31.7946C39.6462 31.4429 39.8438 30.966 39.8438 30.4688" fill="white"/>
<path d="M39.8438 36.0938H36.0938V39.8438H39.8438V36.0938Z" fill="white"/>
<path d="M36.0938 51.0938H39.8438V47.3438H37.9688C37.4715 47.3438 36.9946 47.5413 36.6429 47.8929C36.2913 48.2446 36.0938 48.7215 36.0938 49.2188" fill="white"/>
<path d="M39.8438 51.0938H36.0938V54.8438H39.8438V51.0938Z" fill="white"/>
<path d="M39.8438 58.5938V54.8438H36.0938V56.7188C36.0938 57.216 36.2913 57.6929 36.6429 58.0446C36.9946 58.3962 37.4715 58.5938 37.9688 58.5938" fill="white"/>
<path d="M36.0938 62.3438V66.0938H37.9688C38.466 66.0938 38.9429 65.8962 39.2946 65.5446C39.6462 65.1929 39.8438 64.716 39.8438 64.2188C39.8438 63.7215 39.6462 63.2446 39.2946 62.8929C38.9429 62.5413 38.466 62.3438 37.9688 62.3438" fill="white"/>
<path d="M37.9688 81.0938C39.0043 81.0938 39.8438 80.2543 39.8438 79.2188C39.8438 78.1832 39.0043 77.3438 37.9688 77.3438C36.9332 77.3438 36.0938 78.1832 36.0938 79.2188C36.0938 80.2543 36.9332 81.0938 37.9688 81.0938Z" fill="white"/>
<path d="M36.0938 88.5938H39.8438V86.7188C39.8438 86.2215 39.6462 85.7446 39.2946 85.3929C38.9429 85.0413 38.466 84.8438 37.9688 84.8438C37.4715 84.8438 36.9946 85.0413 36.6429 85.3929C36.2913 85.7446 36.0938 86.2215 36.0938 86.7188" fill="white"/>
<path d="M39.8438 88.5938H36.0938V90.4688C36.0938 90.966 36.2913 91.4429 36.6429 91.7946C36.9946 92.1462 37.4715 92.3438 37.9688 92.3438C38.466 92.3438 38.9429 92.1462 39.2946 91.7946C39.6462 91.4429 39.8438 90.966 39.8438 90.4688" fill="white"/>
<path d="M36.0938 99.8438H39.8438V96.0938H37.9688C37.4715 96.0938 36.9946 96.2913 36.6429 96.6429C36.2913 96.9946 36.0938 97.4715 36.0938 97.9688" fill="white"/>
<path d="M39.8438 99.8438H36.0938V101.719C36.0938 102.216 36.2913 102.693 36.6429 103.045C36.9946 103.396 37.4715 103.594 37.9688 103.594C38.466 103.594 38.9429 103.396 39.2946 103.045C39.6462 102.693 39.8438 102.216 39.8438 101.719" fill="white"/>
<path d="M39.8438 111.094V107.344H37.9688C37.4715 107.344 36.9946 107.541 36.6429 107.893C36.2913 108.245 36.0938 108.721 36.0938 109.219C36.0938 109.716 36.2913 110.193 36.6429 110.545C36.9946 110.896 37.4715 111.094 37.9688 111.094" fill="white"/>
<path d="M39.8438 9.84375H43.5938V6.09375H41.7188C41.2215 6.09375 40.7446 6.29129 40.3929 6.64292C40.0413 6.99455 39.8438 7.47147 39.8438 7.96875" fill="white"/>
<path d="M43.5938 9.84375H39.8438V13.5938H43.5938V9.84375Z" fill="white"/>
<path d="M43.5938 13.5938H39.8438V15.4688C39.8438 15.966 40.0413 16.4429 40.3929 16.7946C40.7446 17.1462 41.2215 17.3438 41.7188 17.3438C42.216 17.3438 42.6929 17.1462 43.0446 16.7946C43.3962 16.4429 43.5938 15.966 43.5938 15.4688" fill="white"/>
<path d="M43.5938 21.0938H39.8438V24.8438H43.5938V21.0938Z" fill="white"/>
<path d="M39.8438 36.0938V39.8438H43.5938V37.9688C43.5938 37.4715 43.3962 36.9946 43.0446 36.6429C42.6929 36.2913 42.216 36.0938 41.7188 36.0938" fill="white"/>
<path d="M43.5938 43.5938V39.8438H39.8438V41.7188C39.8438 42.216 40.0413 42.6929 40.3929 43.0446C40.7446 43.3962 41.2215 43.5938 41.7188 43.5938" fill="white"/>
<path d="M43.5938 47.3438H39.8438V51.0938H43.5938V47.3438Z" fill="white"/>
<path d="M39.8438 54.8438V58.5938H41.7188C42.216 58.5938 42.6929 58.3962 43.0446 58.0446C43.3962 57.6929 43.5938 57.216 43.5938 56.7188C43.5938 56.2215 43.3962 55.7446 43.0446 55.3929C42.6929 55.0413 42.216 54.8438 41.7188 54.8438" fill="white"/>
<path d="M39.8438 69.8438H43.5938V67.9688C43.5938 67.4715 43.3962 66.9946 43.0446 66.6429C42.6929 66.2913 42.216 66.0938 41.7188 66.0938C41.2215 66.0938 40.7446 66.2913 40.3929 66.6429C40.0413 66.9946 39.8438 67.4715 39.8438 67.9688" fill="white"/>
<path d="M43.5938 69.8438H39.8438V73.5938H43.5938V69.8438Z" fill="white"/>
<path d="M43.5938 73.5938H39.8438V75.4688C39.8438 75.966 40.0413 76.4429 40.3929 76.7946C40.7446 77.1462 41.2215 77.3438 41.7188 77.3438C42.216 77.3438 42.6929 77.1462 43.0446 76.7946C43.3962 76.4429 43.5938 75.966 43.5938 75.4688" fill="white"/>
<path d="M39.8438 96.0938H43.5938V94.2188C43.5938 93.7215 43.3962 93.2446 43.0446 92.8929C42.6929 92.5413 42.216 92.3438 41.7188 92.3438C41.2215 92.3438 40.7446 92.5413 40.3929 92.8929C40.0413 93.2446 39.8438 93.7215 39.8438 94.2188" fill="white"/>
<path d="M43.5938 96.0938H39.8438V99.8438H43.5938V96.0938Z" fill="white"/>
<path d="M39.8438 107.344H43.5938V103.594H41.7188C41.2215 103.594 40.7446 103.791 40.3929 104.143C40.0413 104.495 39.8438 104.971 39.8438 105.469" fill="white"/>
<path d="M43.5938 107.344H39.8438V111.094H41.7188C42.216 111.094 42.6929 110.896 43.0446 110.545C43.3962 110.193 43.5938 109.716 43.5938 109.219" fill="white"/>
<path d="M43.5938 6.09375V9.84375H47.3438V7.96875C47.3438 7.47147 47.1462 6.99456 46.7946 6.64292C46.4429 6.29129 45.966 6.09375 45.4688 6.09375" fill="white"/>
<path d="M47.3438 9.84375H43.5938V13.5938H47.3438V9.84375Z" fill="white"/>
<path d="M47.3438 21.0938H43.5938V24.8438H47.3438V21.0938Z" fill="white"/>
<path d="M45.4688 32.3438C46.5043 32.3438 47.3438 31.5043 47.3438 30.4688C47.3438 29.4332 46.5043 28.5938 45.4688 28.5938C44.4332 28.5938 43.5938 29.4332 43.5938 30.4688C43.5938 31.5043 44.4332 32.3438 45.4688 32.3438Z" fill="white"/>
<path d="M43.5938 39.8438V43.5938H47.3438V41.7188C47.3438 41.2215 47.1462 40.7446 46.7946 40.3929C46.4429 40.0413 45.966 39.8438 45.4688 39.8438" fill="white"/>
<path d="M47.3438 43.5938H43.5938V47.3438H47.3438V43.5938Z" fill="white"/>
<path d="M47.3438 47.3438H43.5938V51.0938H47.3438V47.3438Z" fill="white"/>
<path d="M47.3438 51.0938H43.5938V52.9688C43.5938 53.466 43.7913 53.9429 44.1429 54.2946C44.4946 54.6462 44.9715 54.8438 45.4688 54.8438C45.966 54.8438 46.4429 54.6462 46.7946 54.2946C47.1462 53.9429 47.3438 53.466 47.3438 52.9688" fill="white"/>
<path d="M43.5938 81.0938H47.3438V77.3438H45.4688C44.9715 77.3438 44.4946 77.5413 44.1429 77.8929C43.7913 78.2446 43.5938 78.7215 43.5938 79.2188" fill="white"/>
<path d="M47.3438 81.0938H43.5938V84.8438H47.3438V81.0938Z" fill="white"/>
<path d="M47.3438 84.8438H43.5938V88.5938H47.3438V84.8438Z" fill="white"/>
<path d="M47.3438 88.5938H43.5938V90.4688C43.5938 90.966 43.7913 91.4429 44.1429 91.7946C44.4946 92.1462 44.9715 92.3438 45.4688 92.3438C45.966 92.3438 46.4429 92.1462 46.7946 91.7946C47.1462 91.4429 47.3438 90.966 47.3438 90.4688" fill="white"/>
<path d="M43.5938 96.0938V99.8438H47.3438V97.9688C47.3438 97.4715 47.1462 96.9946 46.7946 96.6429C46.4429 96.2913 45.966 96.0938 45.4688 96.0938" fill="white"/>
<path d="M47.3438 99.8438H43.5938V103.594H47.3438V99.8438Z" fill="white"/>
<path d="M47.3438 103.594H43.5938V107.344H45.4688C45.966 107.344 46.4429 107.146 46.7946 106.795C47.1462 106.443 47.3438 105.966 47.3438 105.469" fill="white"/>
<path d="M51.0938 9.84375H47.3438V13.5938H51.0938V9.84375Z" fill="white"/>
<path d="M47.3438 21.0938V24.8438H51.0938V22.9688C51.0938 22.4715 50.8962 21.9946 50.5446 21.6429C50.1929 21.2913 49.716 21.0938 49.2188 21.0938" fill="white"/>
<path d="M51.0938 28.5938V24.8438H47.3438V26.7188C47.3438 27.216 47.5413 27.6929 47.8929 28.0446C48.2446 28.3962 48.7215 28.5938 49.2188 28.5938" fill="white"/>
<path d="M51.0938 36.0938V32.3438H49.2188C48.7215 32.3438 48.2446 32.5413 47.8929 32.8929C47.5413 33.2446 47.3438 33.7215 47.3438 34.2188C47.3438 34.716 47.5413 35.1929 47.8929 35.5446C48.2446 35.8962 48.7215 36.0938 49.2188 36.0938" fill="white"/>
<path d="M47.3438 58.5938H51.0938V54.8438H49.2188C48.7215 54.8438 48.2446 55.0413 47.8929 55.3929C47.5413 55.7446 47.3438 56.2215 47.3438 56.7188" fill="white"/>
<path d="M51.0938 58.5938H47.3438V62.3438H51.0938V58.5938Z" fill="white"/>
<path d="M51.0938 62.3438H47.3438V66.0938H51.0938V62.3438Z" fill="white"/>
<path d="M51.0938 66.0938H47.3438V69.8438H51.0938V66.0938Z" fill="white"/>
<path d="M51.0938 69.8438H47.3438V73.5938H51.0938V69.8438Z" fill="white"/>
<path d="M51.0938 73.5938H47.3438V77.3438H51.0938V73.5938Z" fill="white"/>
<path d="M51.0938 77.3438H47.3438V81.0938H51.0938V77.3438Z" fill="white"/>
<path d="M51.0938 81.0938H47.3438V84.8438H49.2188C49.716 84.8438 50.1929 84.6462 50.5446 84.2946C50.8962 83.9429 51.0938 83.466 51.0938 82.9688" fill="white"/>
<path d="M49.2188 96.0938C50.2543 96.0938 51.0938 95.2543 51.0938 94.2188C51.0938 93.1832 50.2543 92.3438 49.2188 92.3438C48.1832 92.3438 47.3438 93.1832 47.3438 94.2188C47.3438 95.2543 48.1832 96.0938 49.2188 96.0938Z" fill="white"/>
<path d="M51.0938 99.8438H47.3438V103.594H51.0938V99.8438Z" fill="white"/>
<path d="M49.2188 114.844C50.2543 114.844 51.0938 114.004 51.0938 112.969C51.0938 111.933 50.2543 111.094 49.2188 111.094C48.1832 111.094 47.3438 111.933 47.3438 112.969C47.3438 114.004 48.1832 114.844 49.2188 114.844Z" fill="white"/>
<path d="M51.0938 9.84375V13.5938H52.9688C53.466 13.5938 53.9429 13.3962 54.2946 13.0446C54.6462 12.6929 54.8438 12.216 54.8438 11.7188C54.8438 11.2215 54.6462 10.7446 54.2946 10.3929C53.9429 10.0413 53.466 9.84375 52.9688 9.84375" fill="white"/>
<path d="M54.8438 24.8438H51.0938V28.5938H54.8438V24.8438Z" fill="white"/>
<path d="M54.8438 28.5938H51.0938V32.3438H54.8438V28.5938Z" fill="white"/>
<path d="M54.8438 32.3438H51.0938V36.0938H54.8438V32.3438Z" fill="white"/>
<path d="M54.8438 39.8438V36.0938H51.0938V37.9688C51.0938 38.466 51.2913 38.9429 51.6429 39.2946C51.9946 39.6462 52.4715 39.8438 52.9688 39.8438" fill="white"/>
<path d="M52.9688 47.3438C54.0043 47.3438 54.8438 46.5043 54.8438 45.4688C54.8438 44.4332 54.0043 43.5938 52.9688 43.5938C51.9332 43.5938 51.0938 44.4332 51.0938 45.4688C51.0938 46.5043 51.9332 47.3438 52.9688 47.3438Z" fill="white"/>
<path d="M51.0938 54.8438H54.8438V52.9688C54.8438 52.4715 54.6462 51.9946 54.2946 51.6429C53.9429 51.2913 53.466 51.0938 52.9688 51.0938C52.4715 51.0938 51.9946 51.2913 51.6429 51.6429C51.2913 51.9946 51.0938 52.4715 51.0938 52.9688" fill="white"/>
<path d="M54.8438 54.8438H51.0938V58.5938H54.8438V54.8438Z" fill="white"/>
<path d="M54.8438 58.5938H51.0938V62.3438H52.9688C53.466 62.3438 53.9429 62.1462 54.2946 61.7946C54.6462 61.4429 54.8438 60.966 54.8438 60.4688" fill="white"/>
<path d="M51.0938 88.5938H54.8438V86.7188C54.8438 86.2215 54.6462 85.7446 54.2946 85.3929C53.9429 85.0413 53.466 84.8438 52.9688 84.8438C52.4715 84.8438 51.9946 85.0413 51.6429 85.3929C51.2913 85.7446 51.0938 86.2215 51.0938 86.7188" fill="white"/>
<path d="M54.8438 92.3438V88.5938H51.0938V90.4688C51.0938 90.966 51.2913 91.4429 51.6429 91.7946C51.9946 92.1462 52.4715 92.3438 52.9688 92.3438" fill="white"/>
<path d="M51.0938 99.8438V103.594H52.9688C53.466 103.594 53.9429 103.396 54.2946 103.045C54.6462 102.693 54.8438 102.216 54.8438 101.719C54.8438 101.221 54.6462 100.745 54.2946 100.393C53.9429 100.041 53.466 99.8438 52.9688 99.8438" fill="white"/>
<path d="M52.9688 111.094C54.0043 111.094 54.8438 110.254 54.8438 109.219C54.8438 108.183 54.0043 107.344 52.9688 107.344C51.9332 107.344 51.0938 108.183 51.0938 109.219C51.0938 110.254 51.9332 111.094 52.9688 111.094Z" fill="white"/>
<path d="M58.5938 9.84375V6.09375H56.7188C56.2215 6.09375 55.7446 6.29129 55.3929 6.64293C55.0413 6.99456 54.8438 7.47147 54.8438 7.96875C54.8438 8.46603 55.0413 8.94294 55.3929 9.29458C55.7446 9.64621 56.2215 9.84375 56.7188 9.84375" fill="white"/>
<path d="M54.8438 17.3438H58.5938V13.5938H56.7188C56.2215 13.5938 55.7446 13.7913 55.3929 14.1429C55.0413 14.4946 54.8438 14.9715 54.8438 15.4688" fill="white"/>
<path d="M58.5938 17.3438H54.8438V19.2188C54.8438 19.716 55.0413 20.1929 55.3929 20.5446C55.7446 20.8962 56.2215 21.0938 56.7188 21.0938C57.216 21.0938 57.6929 20.8962 58.0446 20.5446C58.3962 20.1929 58.5938 19.716 58.5938 19.2188" fill="white"/>
<path d="M58.5938 24.8438H54.8438V28.5938H58.5938V24.8438Z" fill="white"/>
<path d="M58.5938 32.3438H54.8438V36.0938H58.5938V32.3438Z" fill="white"/>
<path d="M58.5938 36.0938H54.8438V39.8438H58.5938V36.0938Z" fill="white"/>
<path d="M56.7188 51.0938C57.7543 51.0938 58.5938 50.2543 58.5938 49.2188C58.5938 48.1832 57.7543 47.3438 56.7188 47.3438C55.6832 47.3438 54.8438 48.1832 54.8438 49.2188C54.8438 50.2543 55.6832 51.0938 56.7188 51.0938Z" fill="white"/>
<path d="M54.8438 66.0938H58.5938V64.2188C58.5938 63.7215 58.3962 63.2446 58.0446 62.8929C57.6929 62.5413 57.216 62.3438 56.7188 62.3438C56.2215 62.3438 55.7446 62.5413 55.3929 62.8929C55.0413 63.2446 54.8438 63.7215 54.8438 64.2188" fill="white"/>
<path d="M58.5938 69.8438V66.0938H54.8438V67.9688C54.8438 68.466 55.0413 68.9429 55.3929 69.2946C55.7446 69.6462 56.2215 69.8438 56.7188 69.8438" fill="white"/>
<path d="M58.5938 77.3438V73.5938H56.7188C56.2215 73.5938 55.7446 73.7913 55.3929 74.1429C55.0413 74.4946 54.8438 74.9715 54.8438 75.4688C54.8438 75.966 55.0413 76.4429 55.3929 76.7946C55.7446 77.1462 56.2215 77.3438 56.7188 77.3438" fill="white"/>
<path d="M54.8438 88.5938V92.3438H56.7188C57.216 92.3438 57.6929 92.1462 58.0446 91.7946C58.3962 91.4429 58.5938 90.966 58.5938 90.4688C58.5938 89.9715 58.3962 89.4946 58.0446 89.1429C57.6929 88.7913 57.216 88.5938 56.7188 88.5938" fill="white"/>
<path d="M56.7188 99.8438C57.7543 99.8438 58.5938 99.0043 58.5938 97.9688C58.5938 96.9332 57.7543 96.0938 56.7188 96.0938C55.6832 96.0938 54.8438 96.9332 54.8438 97.9688C54.8438 99.0043 55.6832 99.8438 56.7188 99.8438Z" fill="white"/>
<path d="M56.7188 107.344C57.7543 107.344 58.5938 106.504 58.5938 105.469C58.5938 104.433 57.7543 103.594 56.7188 103.594C55.6832 103.594 54.8438 104.433 54.8438 105.469C54.8438 106.504 55.6832 107.344 56.7188 107.344Z" fill="white"/>
<path d="M58.5938 114.844V111.094H56.7188C56.2215 111.094 55.7446 111.291 55.3929 111.643C55.0413 111.995 54.8438 112.471 54.8438 112.969C54.8438 113.466 55.0413 113.943 55.3929 114.295C55.7446 114.646 56.2215 114.844 56.7188 114.844" fill="white"/>
<path d="M58.5938 6.09375V9.84375H62.3438V7.96875C62.3438 7.47147 62.1462 6.99456 61.7946 6.64292C61.4429 6.29129 60.966 6.09375 60.4688 6.09375" fill="white"/>
<path d="M62.3438 9.84375H58.5938V13.5938H62.3438V9.84375Z" fill="white"/>
<path d="M62.3438 13.5938H58.5938V17.3438H62.3438V13.5938Z" fill="white"/>
<path d="M58.5938 24.8438H62.3438V22.9688C62.3438 22.4715 62.1462 21.9946 61.7946 21.6429C61.4429 21.2913 60.966 21.0938 60.4688 21.0938C59.9715 21.0938 59.4946 21.2913 59.1429 21.6429C58.7913 21.9946 58.5938 22.4715 58.5938 22.9688" fill="white"/>
<path d="M62.3438 24.8438H58.5938V28.5938H62.3438V24.8438Z" fill="white"/>
<path d="M62.3438 28.5938H58.5938V32.3438H62.3438V28.5938Z" fill="white"/>
<path d="M62.3438 32.3438H58.5938V36.0938H62.3438V32.3438Z" fill="white"/>
<path d="M62.3438 36.0938H58.5938V39.8438H60.4688C60.966 39.8438 61.4429 39.6462 61.7946 39.2946C62.1462 38.9429 62.3438 38.466 62.3438 37.9688" fill="white"/>
<path d="M60.4688 54.8438C61.5043 54.8438 62.3438 54.0043 62.3438 52.9688C62.3438 51.9332 61.5043 51.0938 60.4688 51.0938C59.4332 51.0938 58.5938 51.9332 58.5938 52.9688C58.5938 54.0043 59.4332 54.8438 60.4688 54.8438Z" fill="white"/>
<path d="M62.3438 62.3438V58.5938H60.4688C59.9715 58.5938 59.4946 58.7913 59.1429 59.1429C58.7913 59.4946 58.5938 59.9715 58.5938 60.4688C58.5938 60.966 58.7913 61.4429 59.1429 61.7946C59.4946 62.1462 59.9715 62.3438 60.4688 62.3438" fill="white"/>
<path d="M58.5938 66.0938V69.8438H60.4688C60.966 69.8438 61.4429 69.6462 61.7946 69.2946C62.1462 68.9429 62.3438 68.466 62.3438 67.9688C62.3438 67.4715 62.1462 66.9946 61.7946 66.6429C61.4429 66.2913 60.966 66.0938 60.4688 66.0938" fill="white"/>
<path d="M58.5938 73.5938V77.3438H62.3438V75.4688C62.3438 74.9715 62.1462 74.4946 61.7946 74.1429C61.4429 73.7913 60.966 73.5938 60.4688 73.5938" fill="white"/>
<path d="M62.3438 77.3438H58.5938V81.0938H62.3438V77.3438Z" fill="white"/>
<path d="M62.3438 81.0938H58.5938V82.9688C58.5938 83.466 58.7913 83.9429 59.1429 84.2946C59.4946 84.6462 59.9715 84.8438 60.4688 84.8438C60.966 84.8438 61.4429 84.6462 61.7946 84.2946C62.1462 83.9429 62.3438 83.466 62.3438 82.9688" fill="white"/>
<path d="M60.4688 96.0938C61.5043 96.0938 62.3438 95.2543 62.3438 94.2188C62.3438 93.1832 61.5043 92.3438 60.4688 92.3438C59.4332 92.3438 58.5938 93.1832 58.5938 94.2188C58.5938 95.2543 59.4332 96.0938 60.4688 96.0938Z" fill="white"/>
<path d="M62.3438 103.594V99.8438H60.4688C59.9715 99.8438 59.4946 100.041 59.1429 100.393C58.7913 100.745 58.5938 101.221 58.5938 101.719C58.5938 102.216 58.7913 102.693 59.1429 103.045C59.4946 103.396 59.9715 103.594 60.4688 103.594" fill="white"/>
<path d="M58.5938 111.094V114.844H60.4688C60.966 114.844 61.4429 114.646 61.7946 114.295C62.1462 113.943 62.3438 113.466 62.3438 112.969C62.3438 112.471 62.1462 111.995 61.7946 111.643C61.4429 111.291 60.966 111.094 60.4688 111.094" fill="white"/>
<path d="M66.0938 9.84375H62.3438V13.5938H66.0938V9.84375Z" fill="white"/>
<path d="M66.0938 13.5938H62.3438V17.3438H66.0938V13.5938Z" fill="white"/>
<path d="M66.0938 21.0938V17.3438H62.3438V19.2188C62.3438 19.716 62.5413 20.1929 62.8929 20.5446C63.2446 20.8962 63.7215 21.0938 64.2188 21.0938" fill="white"/>
<path d="M62.3438 24.8438V28.5938H64.2188C64.716 28.5938 65.1929 28.3962 65.5446 28.0446C65.8962 27.6929 66.0938 27.216 66.0938 26.7188C66.0938 26.2215 65.8962 25.7446 65.5446 25.3929C65.1929 25.0413 64.716 24.8438 64.2188 24.8438" fill="white"/>
<path d="M62.3438 58.5938H66.0938V54.8438H64.2188C63.7215 54.8438 63.2446 55.0413 62.8929 55.3929C62.5413 55.7446 62.3438 56.2215 62.3438 56.7188" fill="white"/>
<path d="M66.0938 58.5938H62.3438V62.3438H66.0938V58.5938Z" fill="white"/>
<path d="M66.0938 66.0938V62.3438H62.3438V64.2188C62.3438 64.716 62.5413 65.1929 62.8929 65.5446C63.2446 65.8962 63.7215 66.0938 64.2188 66.0938" fill="white"/>
<path d="M62.3438 77.3438V81.0938H64.2188C64.716 81.0938 65.1929 80.8962 65.5446 80.5446C65.8962 80.1929 66.0938 79.716 66.0938 79.2188C66.0938 78.7215 65.8962 78.2446 65.5446 77.8929C65.1929 77.5413 64.716 77.3438 64.2188 77.3438" fill="white"/>
<path d="M66.0938 88.5938V84.8438H64.2188C63.7215 84.8438 63.2446 85.0413 62.8929 85.3929C62.5413 85.7446 62.3438 86.2215 62.3438 86.7188C62.3438 87.216 62.5413 87.6929 62.8929 88.0446C63.2446 88.3962 63.7215 88.5938 64.2188 88.5938" fill="white"/>
<path d="M62.3438 99.8438H66.0938V97.9688C66.0938 97.4715 65.8962 96.9946 65.5446 96.6429C65.1929 96.2913 64.716 96.0938 64.2188 96.0938C63.7215 96.0938 63.2446 96.2913 62.8929 96.6429C62.5413 96.9946 62.3438 97.4715 62.3438 97.9688" fill="white"/>
<path d="M66.0938 99.8438H62.3438V103.594H66.0938V99.8438Z" fill="white"/>
<path d="M66.0938 103.594H62.3438V107.344H66.0938V103.594Z" fill="white"/>
<path d="M66.0938 111.094V107.344H62.3438V109.219C62.3438 109.716 62.5413 110.193 62.8929 110.545C63.2446 110.896 63.7215 111.094 64.2188 111.094" fill="white"/>
<path d="M66.0938 9.84375H69.8438V6.09375H67.9688C67.4715 6.09375 66.9946 6.29129 66.6429 6.64292C66.2913 6.99455 66.0938 7.47147 66.0938 7.96875" fill="white"/>
<path d="M69.8438 9.84375H66.0938V13.5938H69.8438V9.84375Z" fill="white"/>
<path d="M66.0938 17.3438V21.0938H67.9688C68.466 21.0938 68.9429 20.8962 69.2946 20.5446C69.6462 20.1929 69.8438 19.716 69.8438 19.2188C69.8438 18.7215 69.6462 18.2446 69.2946 17.8929C68.9429 17.5413 68.466 17.3438 67.9688 17.3438" fill="white"/>
<path d="M67.9688 32.3438C69.0043 32.3438 69.8438 31.5043 69.8438 30.4688C69.8438 29.4332 69.0043 28.5938 67.9688 28.5938C66.9332 28.5938 66.0938 29.4332 66.0938 30.4688C66.0938 31.5043 66.9332 32.3438 67.9688 32.3438Z" fill="white"/>
<path d="M66.0938 54.8438V58.5938H69.8438V56.7188C69.8438 56.2215 69.6462 55.7446 69.2946 55.3929C68.9429 55.0413 68.466 54.8438 67.9688 54.8438" fill="white"/>
<path d="M69.8438 58.5938H66.0938V62.3438H69.8438V58.5938Z" fill="white"/>
<path d="M69.8438 62.3438H66.0938V66.0938H67.9688C68.466 66.0938 68.9429 65.8962 69.2946 65.5446C69.6462 65.1929 69.8438 64.716 69.8438 64.2188" fill="white"/>
<path d="M66.0938 73.5938H69.8438V69.8438H67.9688C67.4715 69.8438 66.9946 70.0413 66.6429 70.3929C66.2913 70.7446 66.0938 71.2215 66.0938 71.7188" fill="white"/>
<path d="M69.8438 73.5938H66.0938V75.4688C66.0938 75.966 66.2913 76.4429 66.6429 76.7946C66.9946 77.1462 67.4715 77.3438 67.9688 77.3438C68.466 77.3438 68.9429 77.1462 69.2946 76.7946C69.6462 76.4429 69.8438 75.966 69.8438 75.4688" fill="white"/>
<path d="M66.0938 84.8438V88.5938H67.9688C68.466 88.5938 68.9429 88.3962 69.2946 88.0446C69.6462 87.6929 69.8438 87.216 69.8438 86.7188C69.8438 86.2215 69.6462 85.7446 69.2946 85.3929C68.9429 85.0413 68.466 84.8438 67.9688 84.8438" fill="white"/>
<path d="M67.9688 96.0938C69.0043 96.0938 69.8438 95.2543 69.8438 94.2188C69.8438 93.1832 69.0043 92.3438 67.9688 92.3438C66.9332 92.3438 66.0938 93.1832 66.0938 94.2188C66.0938 95.2543 66.9332 96.0938 67.9688 96.0938Z" fill="white"/>
<path d="M69.8438 99.8438H66.0938V103.594H69.8438V99.8438Z" fill="white"/>
<path d="M66.0938 107.344V111.094H67.9688C68.466 111.094 68.9429 110.896 69.2946 110.545C69.6462 110.193 69.8438 109.716 69.8438 109.219C69.8438 108.721 69.6462 108.245 69.2946 107.893C68.9429 107.541 68.466 107.344 67.9688 107.344" fill="white"/>
<path d="M73.5938 6.09375H69.8438V9.84375H73.5938V6.09375Z" fill="white"/>
<path d="M73.5938 9.84375H69.8438V13.5938H73.5938V9.84375Z" fill="white"/>
<path d="M73.5938 24.8438V21.0938H71.7188C71.2215 21.0938 70.7446 21.2913 70.3929 21.6429C70.0413 21.9946 69.8438 22.4715 69.8438 22.9688C69.8438 23.466 70.0413 23.9429 70.3929 24.2946C70.7446 24.6462 71.2215 24.8438 71.7188 24.8438" fill="white"/>
<path d="M71.7188 51.0938C72.7543 51.0938 73.5938 50.2543 73.5938 49.2188C73.5938 48.1832 72.7543 47.3438 71.7188 47.3438C70.6832 47.3438 69.8438 48.1832 69.8438 49.2188C69.8438 50.2543 70.6832 51.0938 71.7188 51.0938Z" fill="white"/>
<path d="M73.5938 58.5938H69.8438V62.3438H73.5938V58.5938Z" fill="white"/>
<path d="M73.5938 69.8438H69.8438V73.5938H73.5938V69.8438Z" fill="white"/>
<path d="M71.7188 92.3438C72.7543 92.3438 73.5938 91.5043 73.5938 90.4688C73.5938 89.4332 72.7543 88.5938 71.7188 88.5938C70.6832 88.5938 69.8438 89.4332 69.8438 90.4688C69.8438 91.5043 70.6832 92.3438 71.7188 92.3438Z" fill="white"/>
<path d="M69.8438 99.8438H73.5938V97.9688C73.5938 97.4715 73.3962 96.9946 73.0446 96.6429C72.6929 96.2913 72.216 96.0938 71.7188 96.0938C71.2215 96.0938 70.7446 96.2913 70.3929 96.6429C70.0413 96.9946 69.8438 97.4715 69.8438 97.9688" fill="white"/>
<path d="M73.5938 99.8438H69.8438V103.594H73.5938V99.8438Z" fill="white"/>
<path d="M73.5938 107.344V103.594H69.8438V105.469C69.8438 105.966 70.0413 106.443 70.3929 106.795C70.7446 107.146 71.2215 107.344 71.7188 107.344" fill="white"/>
<path d="M77.3438 6.09375H73.5938V9.84375H77.3438V6.09375Z" fill="white"/>
<path d="M77.3438 9.84375H73.5938V13.5938H77.3438V9.84375Z" fill="white"/>
<path d="M77.3438 13.5938H73.5938V15.4688C73.5938 15.966 73.7913 16.4429 74.1429 16.7946C74.4946 17.1462 74.9715 17.3438 75.4688 17.3438C75.966 17.3438 76.4429 17.1462 76.7946 16.7946C77.1462 16.4429 77.3438 15.966 77.3438 15.4688" fill="white"/>
<path d="M77.3438 21.0938H73.5938V24.8438H77.3438V21.0938Z" fill="white"/>
<path d="M75.4688 32.3438C76.5043 32.3438 77.3438 31.5043 77.3438 30.4688C77.3438 29.4332 76.5043 28.5938 75.4688 28.5938C74.4332 28.5938 73.5938 29.4332 73.5938 30.4688C73.5938 31.5043 74.4332 32.3438 75.4688 32.3438Z" fill="white"/>
<path d="M77.3438 58.5938H73.5938V62.3438H77.3438V58.5938Z" fill="white"/>
<path d="M73.5938 69.8438H77.3438V66.0938H75.4688C74.9715 66.0938 74.4946 66.2913 74.1429 66.6429C73.7913 66.9946 73.5938 67.4715 73.5938 67.9688" fill="white"/>
<path d="M77.3438 69.8438H73.5938V73.5938H77.3438V69.8438Z" fill="white"/>
<path d="M77.3438 73.5938H73.5938V77.3438H77.3438V73.5938Z" fill="white"/>
<path d="M77.3438 81.0938V77.3438H73.5938V79.2188C73.5938 79.716 73.7913 80.1929 74.1429 80.5446C74.4946 80.8962 74.9715 81.0938 75.4688 81.0938" fill="white"/>
<path d="M77.3438 96.0938V92.3438H75.4688C74.9715 92.3438 74.4946 92.5413 74.1429 92.8929C73.7913 93.2446 73.5938 93.7215 73.5938 94.2188C73.5938 94.716 73.7913 95.1929 74.1429 95.5446C74.4946 95.8962 74.9715 96.0938 75.4688 96.0938" fill="white"/>
<path d="M73.5938 99.8438V103.594H77.3438V101.719C77.3438 101.221 77.1462 100.745 76.7946 100.393C76.4429 100.041 75.966 99.8438 75.4688 99.8438" fill="white"/>
<path d="M77.3438 103.594H73.5938V107.344H77.3438V103.594Z" fill="white"/>
<path d="M77.3438 114.844V111.094H75.4688C74.9715 111.094 74.4946 111.291 74.1429 111.643C73.7913 111.995 73.5938 112.471 73.5938 112.969C73.5938 113.466 73.7913 113.943 74.1429 114.295C74.4946 114.646 74.9715 114.844 75.4688 114.844" fill="white"/>
<path d="M81.0938 6.09375H77.3438V9.84375H81.0938V6.09375Z" fill="white"/>
<path d="M81.0938 9.84375H77.3438V13.5938H81.0938V9.84375Z" fill="white"/>
<path d="M77.3438 21.0938H81.0938V17.3438H79.2188C78.7215 17.3438 78.2446 17.5413 77.8929 17.8929C77.5413 18.2446 77.3438 18.7215 77.3438 19.2188" fill="white"/>
<path d="M81.0938 21.0938H77.3438V24.8438H79.2188C79.716 24.8438 80.1929 24.6462 80.5446 24.2946C80.8962 23.9429 81.0938 23.466 81.0938 22.9688" fill="white"/>
<path d="M77.3438 43.5938H81.0938V39.8438H79.2188C78.7215 39.8438 78.2446 40.0413 77.8929 40.3929C77.5413 40.7446 77.3438 41.2215 77.3438 41.7188" fill="white"/>
<path d="M81.0938 43.5938H77.3438V47.3438H81.0938V43.5938Z" fill="white"/>
<path d="M81.0938 51.0938V47.3438H77.3438V49.2188C77.3438 49.716 77.5413 50.1929 77.8929 50.5446C78.2446 50.8962 78.7215 51.0938 79.2188 51.0938" fill="white"/>
<path d="M81.0938 58.5938H77.3438V62.3438H81.0938V58.5938Z" fill="white"/>
<path d="M81.0938 62.3438H77.3438V66.0938H81.0938V62.3438Z" fill="white"/>
<path d="M81.0938 66.0938H77.3438V69.8438H79.2188C79.716 69.8438 80.1929 69.6462 80.5446 69.2946C80.8962 68.9429 81.0938 68.466 81.0938 67.9688" fill="white"/>
<path d="M81.0938 77.3438H77.3438V81.0938H81.0938V77.3438Z" fill="white"/>
<path d="M81.0938 81.0938H77.3438V84.8438H81.0938V81.0938Z" fill="white"/>
<path d="M81.0938 84.8438H77.3438V88.5938H81.0938V84.8438Z" fill="white"/>
<path d="M81.0938 88.5938H77.3438V92.3438H81.0938V88.5938Z" fill="white"/>
<path d="M81.0938 92.3438H77.3438V96.0938H81.0938V92.3438Z" fill="white"/>
<path d="M81.0938 103.594H77.3438V107.344H81.0938V103.594Z" fill="white"/>
<path d="M81.0938 107.344H77.3438V111.094H81.0938V107.344Z" fill="white"/>
<path d="M81.0938 111.094H77.3438V114.844H81.0938V111.094Z" fill="white"/>
<path d="M81.0938 6.09375V9.84375H84.8438V7.96875C84.8438 7.47147 84.6462 6.99456 84.2946 6.64292C83.9429 6.29129 83.466 6.09375 82.9688 6.09375" fill="white"/>
<path d="M84.8438 9.84375H81.0938V13.5938H82.9688C83.466 13.5938 83.9429 13.3962 84.2946 13.0446C84.6462 12.6929 84.8438 12.216 84.8438 11.7188" fill="white"/>
<path d="M81.0938 17.3438V21.0938H82.9688C83.466 21.0938 83.9429 20.8962 84.2946 20.5446C84.6462 20.1929 84.8438 19.716 84.8438 19.2188C84.8438 18.7215 84.6462 18.2446 84.2946 17.8929C83.9429 17.5413 83.466 17.3438 82.9688 17.3438" fill="white"/>
<path d="M81.0938 32.3438H84.8438V30.4688C84.8438 29.9715 84.6462 29.4946 84.2946 29.1429C83.9429 28.7913 83.466 28.5938 82.9688 28.5938C82.4715 28.5938 81.9946 28.7913 81.6429 29.1429C81.2913 29.4946 81.0938 29.9715 81.0938 30.4688" fill="white"/>
<path d="M84.8438 32.3438H81.0938V36.0938H84.8438V32.3438Z" fill="white"/>
<path d="M84.8438 36.0938H81.0938V39.8438H84.8438V36.0938Z" fill="white"/>
<path d="M84.8438 39.8438H81.0938V43.5938H84.8438V39.8438Z" fill="white"/>
<path d="M84.8438 47.3438H81.0938V51.0938H84.8438V47.3438Z" fill="white"/>
<path d="M84.8438 51.0938H81.0938V54.8438H84.8438V51.0938Z" fill="white"/>
<path d="M84.8438 54.8438H81.0938V58.5938H84.8438V54.8438Z" fill="white"/>
<path d="M84.8438 58.5938H81.0938V62.3438H84.8438V58.5938Z" fill="white"/>
<path d="M84.8438 73.5938V69.8438H82.9688C82.4715 69.8438 81.9946 70.0413 81.6429 70.3929C81.2913 70.7446 81.0938 71.2215 81.0938 71.7188C81.0938 72.216 81.2913 72.6929 81.6429 73.0446C81.9946 73.3962 82.4715 73.5938 82.9688 73.5938" fill="white"/>
<path d="M84.8438 77.3438H81.0938V81.0938H84.8438V77.3438Z" fill="white"/>
<path d="M84.8438 81.0938H81.0938V84.8438H84.8438V81.0938Z" fill="white"/>
<path d="M84.8438 84.8438H81.0938V88.5938H84.8438V84.8438Z" fill="white"/>
<path d="M84.8438 88.5938H81.0938V92.3438H84.8438V88.5938Z" fill="white"/>
<path d="M84.8438 92.3438H81.0938V96.0938H84.8438V92.3438Z" fill="white"/>
<path d="M84.8438 96.0938H81.0938V99.8438H84.8438V96.0938Z" fill="white"/>
<path d="M84.8438 99.8438H81.0938V103.594H84.8438V99.8438Z" fill="white"/>
<path d="M84.8438 103.594H81.0938V107.344H84.8438V103.594Z" fill="white"/>
<path d="M81.0938 111.094V114.844H82.9688C83.466 114.844 83.9429 114.646 84.2946 114.295C84.6462 113.943 84.8438 113.466 84.8438 112.969C84.8438 112.471 84.6462 111.995 84.2946 111.643C83.9429 111.291 83.466 111.094 82.9688 111.094" fill="white"/>
<path d="M84.8438 36.0938V39.8438H88.5938V37.9688C88.5938 37.4715 88.3962 36.9946 88.0446 36.6429C87.6929 36.2913 87.216 36.0938 86.7188 36.0938" fill="white"/>
<path d="M88.5938 39.8438H84.8438V43.5938H88.5938V39.8438Z" fill="white"/>
<path d="M88.5938 43.5938H84.8438V47.3438H88.5938V43.5938Z" fill="white"/>
<path d="M88.5938 47.3438H84.8438V51.0938H88.5938V47.3438Z" fill="white"/>
<path d="M88.5938 54.8438H84.8438V58.5938H88.5938V54.8438Z" fill="white"/>
<path d="M88.5938 58.5938H84.8438V62.3438H88.5938V58.5938Z" fill="white"/>
<path d="M88.5938 66.0938V62.3438H84.8438V64.2188C84.8438 64.716 85.0413 65.1929 85.3929 65.5446C85.7446 65.8962 86.2215 66.0938 86.7188 66.0938" fill="white"/>
<path d="M84.8438 69.8438V73.5938H88.5938V71.7188C88.5938 71.2215 88.3962 70.7446 88.0446 70.3929C87.6929 70.0413 87.216 69.8438 86.7188 69.8438" fill="white"/>
<path d="M88.5938 73.5938H84.8438V77.3438H88.5938V73.5938Z" fill="white"/>
<path d="M88.5938 77.3438H84.8438V81.0938H88.5938V77.3438Z" fill="white"/>
<path d="M88.5938 81.0938H84.8438V84.8438H88.5938V81.0938Z" fill="white"/>
<path d="M88.5938 96.0938H84.8438V99.8438H88.5938V96.0938Z" fill="white"/>
<path d="M88.5938 99.8438H84.8438V103.594H88.5938V99.8438Z" fill="white"/>
<path d="M88.5938 103.594H84.8438V107.344H88.5938V103.594Z" fill="white"/>
<path d="M92.3438 39.8438H88.5938V43.5938H92.3438V39.8438Z" fill="white"/>
<path d="M92.3438 47.3438H88.5938V51.0938H92.3438V47.3438Z" fill="white"/>
<path d="M92.3438 54.8438H88.5938V58.5938H92.3438V54.8438Z" fill="white"/>
<path d="M92.3438 58.5938H88.5938V62.3438H92.3438V58.5938Z" fill="white"/>
<path d="M92.3438 62.3438H88.5938V66.0938H90.4688C90.966 66.0938 91.4429 65.8962 91.7946 65.5446C92.1462 65.1929 92.3438 64.716 92.3438 64.2188" fill="white"/>
<path d="M92.3438 77.3438H88.5938V81.0938H92.3438V77.3438Z" fill="white"/>
<path d="M92.3438 81.0938H88.5938V84.8438H92.3438V81.0938Z" fill="white"/>
<path d="M90.4688 92.3438C91.5043 92.3438 92.3438 91.5043 92.3438 90.4688C92.3438 89.4332 91.5043 88.5938 90.4688 88.5938C89.4332 88.5938 88.5938 89.4332 88.5938 90.4688C88.5938 91.5043 89.4332 92.3438 90.4688 92.3438Z" fill="white"/>
<path d="M92.3438 96.0938H88.5938V99.8438H92.3438V96.0938Z" fill="white"/>
<path d="M88.5938 103.594V107.344H90.4688C90.966 107.344 91.4429 107.146 91.7946 106.795C92.1462 106.443 92.3438 105.966 92.3438 105.469C92.3438 104.971 92.1462 104.495 91.7946 104.143C91.4429 103.791 90.966 103.594 90.4688 103.594" fill="white"/>
<path d="M92.3438 39.8438H96.0938V36.0938H94.2188C93.7215 36.0938 93.2446 36.2913 92.8929 36.6429C92.5413 36.9946 92.3438 37.4715 92.3438 37.9688" fill="white"/>
<path d="M96.0938 39.8438H92.3438V43.5938H94.2188C94.716 43.5938 95.1929 43.3962 95.5446 43.0446C95.8962 42.6929 96.0938 42.216 96.0938 41.7188" fill="white"/>
<path d="M96.0938 47.3438H92.3438V51.0938H96.0938V47.3438Z" fill="white"/>
<path d="M96.0938 51.0938H92.3438V54.8438H96.0938V51.0938Z" fill="white"/>
<path d="M96.0938 54.8438H92.3438V58.5938H96.0938V54.8438Z" fill="white"/>
<path d="M96.0938 58.5938H92.3438V62.3438H94.2188C94.716 62.3438 95.1929 62.1462 95.5446 61.7946C95.8962 61.4429 96.0938 60.966 96.0938 60.4688" fill="white"/>
<path d="M92.3438 77.3438H96.0938V75.4688C96.0938 74.9715 95.8962 74.4946 95.5446 74.1429C95.1929 73.7913 94.716 73.5938 94.2188 73.5938C93.7215 73.5938 93.2446 73.7913 92.8929 74.1429C92.5413 74.4946 92.3438 74.9715 92.3438 75.4688" fill="white"/>
<path d="M96.0938 77.3438H92.3438V81.0938H96.0938V77.3438Z" fill="white"/>
<path d="M96.0938 81.0938H92.3438V84.8438H96.0938V81.0938Z" fill="white"/>
<path d="M96.0938 96.0938H92.3438V99.8438H96.0938V96.0938Z" fill="white"/>
<path d="M96.0938 99.8438H92.3438V101.719C92.3438 102.216 92.5413 102.693 92.8929 103.045C93.2446 103.396 93.7215 103.594 94.2188 103.594C94.716 103.594 95.1929 103.396 95.5446 103.045C95.8962 102.693 96.0938 102.216 96.0938 101.719" fill="white"/>
<path d="M96.0938 111.094V107.344H94.2188C93.7215 107.344 93.2446 107.541 92.8929 107.893C92.5413 108.245 92.3438 108.721 92.3438 109.219C92.3438 109.716 92.5413 110.193 92.8929 110.545C93.2446 110.896 93.7215 111.094 94.2188 111.094" fill="white"/>
<path d="M99.8438 36.0938H96.0938V39.8438H99.8438V36.0938Z" fill="white"/>
<path d="M99.8438 47.3438H96.0938V51.0938H99.8438V47.3438Z" fill="white"/>
<path d="M99.8438 73.5938V69.8438H97.9688C97.4715 69.8438 96.9946 70.0413 96.6429 70.3929C96.2913 70.7446 96.0938 71.2215 96.0938 71.7188C96.0938 72.216 96.2913 72.6929 96.6429 73.0446C96.9946 73.3962 97.4715 73.5938 97.9688 73.5938" fill="white"/>
<path d="M96.0938 77.3438V81.0938H99.8438V79.2188C99.8438 78.7215 99.6462 78.2446 99.2946 77.8929C98.9429 77.5413 98.466 77.3438 97.9688 77.3438" fill="white"/>
<path d="M99.8438 81.0938H96.0938V84.8438H99.8438V81.0938Z" fill="white"/>
<path d="M99.8438 84.8438H96.0938V88.5938H99.8438V84.8438Z" fill="white"/>
<path d="M99.8438 88.5938H96.0938V92.3438H99.8438V88.5938Z" fill="white"/>
<path d="M99.8438 92.3438H96.0938V96.0938H99.8438V92.3438Z" fill="white"/>
<path d="M99.8438 96.0938H96.0938V99.8438H97.9688C98.466 99.8438 98.9429 99.6462 99.2946 99.2946C99.6462 98.9429 99.8438 98.466 99.8438 97.9688" fill="white"/>
<path d="M99.8438 107.344H96.0938V111.094H99.8438V107.344Z" fill="white"/>
<path d="M99.8438 111.094H96.0938V112.969C96.0938 113.466 96.2913 113.943 96.6429 114.295C96.9946 114.646 97.4715 114.844 97.9688 114.844C98.466 114.844 98.9429 114.646 99.2946 114.295C99.6462 113.943 99.8438 113.466 99.8438 112.969" fill="white"/>
<path d="M99.8438 36.0938V39.8438H101.719C102.216 39.8438 102.693 39.6462 103.045 39.2946C103.396 38.9429 103.594 38.466 103.594 37.9688C103.594 37.4715 103.396 36.9946 103.045 36.6429C102.693 36.2913 102.216 36.0938 101.719 36.0938" fill="white"/>
<path d="M99.8438 47.3438H103.594V43.5938H101.719C101.221 43.5938 100.745 43.7913 100.393 44.1429C100.041 44.4946 99.8438 44.9715 99.8438 45.4688" fill="white"/>
<path d="M103.594 47.3438H99.8438V51.0938H101.719C102.216 51.0938 102.693 50.8962 103.045 50.5446C103.396 50.1929 103.594 49.716 103.594 49.2188" fill="white"/>
<path d="M103.594 58.5938V54.8438H101.719C101.221 54.8438 100.745 55.0413 100.393 55.3929C100.041 55.7446 99.8438 56.2215 99.8438 56.7188C99.8438 57.216 100.041 57.6929 100.393 58.0446C100.745 58.3962 101.221 58.5938 101.719 58.5938" fill="white"/>
<path d="M99.8438 69.8438V73.5938H103.594V71.7188C103.594 71.2215 103.396 70.7446 103.045 70.3929C102.693 70.0413 102.216 69.8438 101.719 69.8438" fill="white"/>
<path d="M103.594 73.5938H99.8438V75.4688C99.8438 75.966 100.041 76.4429 100.393 76.7946C100.745 77.1462 101.221 77.3438 101.719 77.3438C102.216 77.3438 102.693 77.1462 103.045 76.7946C103.396 76.4429 103.594 75.966 103.594 75.4688" fill="white"/>
<path d="M103.594 92.3438H99.8438V96.0938H103.594V92.3438Z" fill="white"/>
<path d="M99.8438 107.344H103.594V105.469C103.594 104.971 103.396 104.495 103.045 104.143C102.693 103.791 102.216 103.594 101.719 103.594C101.221 103.594 100.745 103.791 100.393 104.143C100.041 104.495 99.8438 104.971 99.8438 105.469" fill="white"/>
<path d="M103.594 107.344H99.8438V111.094H103.594V107.344Z" fill="white"/>
<path d="M103.594 43.5938V47.3438H105.469C105.966 47.3438 106.443 47.1462 106.795 46.7946C107.146 46.4429 107.344 45.966 107.344 45.4688C107.344 44.9715 107.146 44.4946 106.795 44.1429C106.443 43.7913 105.966 43.5938 105.469 43.5938" fill="white"/>
<path d="M103.594 54.8438V58.5938H107.344V56.7188C107.344 56.2215 107.146 55.7446 106.795 55.3929C106.443 55.0413 105.966 54.8438 105.469 54.8438" fill="white"/>
<path d="M107.344 58.5938H103.594V62.3438H107.344V58.5938Z" fill="white"/>
<path d="M107.344 62.3438H103.594V64.2188C103.594 64.716 103.791 65.1929 104.143 65.5446C104.495 65.8962 104.971 66.0938 105.469 66.0938C105.966 66.0938 106.443 65.8962 106.795 65.5446C107.146 65.1929 107.344 64.716 107.344 64.2188" fill="white"/>
<path d="M103.594 84.8438H107.344V81.0938H105.469C104.971 81.0938 104.495 81.2913 104.143 81.6429C103.791 81.9946 103.594 82.4715 103.594 82.9688" fill="white"/>
<path d="M107.344 88.5938V84.8438H103.594V86.7188C103.594 87.216 103.791 87.6929 104.143 88.0446C104.495 88.3962 104.971 88.5938 105.469 88.5938" fill="white"/>
<path d="M103.594 92.3438V96.0938H107.344V94.2188C107.344 93.7215 107.146 93.2446 106.795 92.8929C106.443 92.5413 105.966 92.3438 105.469 92.3438" fill="white"/>
<path d="M107.344 99.8438V96.0938H103.594V97.9688C103.594 98.466 103.791 98.9429 104.143 99.2946C104.495 99.6462 104.971 99.8438 105.469 99.8438" fill="white"/>
<path d="M103.594 107.344V111.094H107.344V109.219C107.344 108.721 107.146 108.245 106.795 107.893C106.443 107.541 105.966 107.344 105.469 107.344" fill="white"/>
<path d="M107.344 114.844V111.094H103.594V112.969C103.594 113.466 103.791 113.943 104.143 114.295C104.495 114.646 104.971 114.844 105.469 114.844" fill="white"/>
<path d="M107.344 39.8438H111.094V37.9688C111.094 37.4715 110.896 36.9946 110.545 36.6429C110.193 36.2913 109.716 36.0938 109.219 36.0938C108.721 36.0938 108.245 36.2913 107.893 36.6429C107.541 36.9946 107.344 37.4715 107.344 37.9688" fill="white"/>
<path d="M111.094 39.8438H107.344V41.7188C107.344 42.216 107.541 42.6929 107.893 43.0446C108.245 43.3962 108.721 43.5938 109.219 43.5938C109.716 43.5938 110.193 43.3962 110.545 43.0446C110.896 42.6929 111.094 42.216 111.094 41.7188" fill="white"/>
<path d="M109.219 69.8438C110.254 69.8438 111.094 69.0043 111.094 67.9688C111.094 66.9332 110.254 66.0938 109.219 66.0938C108.183 66.0938 107.344 66.9332 107.344 67.9688C107.344 69.0043 108.183 69.8438 109.219 69.8438Z" fill="white"/>
<path d="M109.219 77.3438C110.254 77.3438 111.094 76.5043 111.094 75.4688C111.094 74.4332 110.254 73.5938 109.219 73.5938C108.183 73.5938 107.344 74.4332 107.344 75.4688C107.344 76.5043 108.183 77.3438 109.219 77.3438Z" fill="white"/>
<path d="M107.344 81.0938V84.8438H111.094V82.9688C111.094 82.4715 110.896 81.9946 110.545 81.6429C110.193 81.2913 109.716 81.0938 109.219 81.0938" fill="white"/>
<path d="M111.094 84.8438H107.344V88.5938H111.094V84.8438Z" fill="white"/>
<path d="M111.094 96.0938H107.344V99.8438H111.094V96.0938Z" fill="white"/>
<path d="M109.219 107.344C110.254 107.344 111.094 106.504 111.094 105.469C111.094 104.433 110.254 103.594 109.219 103.594C108.183 103.594 107.344 104.433 107.344 105.469C107.344 106.504 108.183 107.344 109.219 107.344Z" fill="white"/>
<path d="M107.344 111.094V114.844H109.219C109.716 114.844 110.193 114.646 110.545 114.295C110.896 113.943 111.094 113.466 111.094 112.969C111.094 112.471 110.896 111.995 110.545 111.643C110.193 111.291 109.716 111.094 109.219 111.094" fill="white"/>
<path d="M111.094 62.3438H114.844V60.4688C114.844 59.9715 114.646 59.4946 114.295 59.1429C113.943 58.7913 113.466 58.5938 112.969 58.5938C112.471 58.5938 111.995 58.7913 111.643 59.1429C111.291 59.4946 111.094 59.9715 111.094 60.4688" fill="white"/>
<path d="M114.844 62.3438H111.094V64.2188C111.094 64.716 111.291 65.1929 111.643 65.5446C111.995 65.8962 112.471 66.0938 112.969 66.0938C113.466 66.0938 113.943 65.8962 114.295 65.5446C114.646 65.1929 114.844 64.716 114.844 64.2188" fill="white"/>
<path d="M112.969 81.0938C114.004 81.0938 114.844 80.2543 114.844 79.2188C114.844 78.1832 114.004 77.3438 112.969 77.3438C111.933 77.3438 111.094 78.1832 111.094 79.2188C111.094 80.2543 111.933 81.0938 112.969 81.0938Z" fill="white"/>
<path d="M111.094 84.8438V88.5938H114.844V86.7188C114.844 86.2215 114.646 85.7446 114.295 85.3929C113.943 85.0413 113.466 84.8438 112.969 84.8438" fill="white"/>
<path d="M114.844 88.5938H111.094V92.3438H114.844V88.5938Z" fill="white"/>
<path d="M114.844 92.3438H111.094V96.0938H114.844V92.3438Z" fill="white"/>
<path d="M114.844 96.0938H111.094V99.8438H112.969C113.466 99.8438 113.943 99.6462 114.295 99.2946C114.646 98.9429 114.844 98.466 114.844 97.9688" fill="white"/>
</mask>
<g mask="url(#mask0_24027_130565)">
<path d="M121.5 0H0V121.5H121.5V0Z" fill="black"/>
</g>
<mask id="mask1_24027_130565" style="mask-type:luminance" maskUnits="userSpaceOnUse" x="6" y="6" width="27" height="27">
<path fill-rule="evenodd" clip-rule="evenodd" d="M6.09375 15.4688V22.9688C6.09375 25.4552 7.08147 27.8397 8.83962 29.5979C10.5978 31.356 12.9823 32.3438 15.4688 32.3438H22.9688C25.4552 32.3438 27.8397 31.356 29.5979 29.5979C31.356 27.8397 32.3438 25.4552 32.3438 22.9688V15.4688C32.3438 12.9823 31.356 10.5978 29.5979 8.83962C27.8397 7.08147 25.4552 6.09375 22.9688 6.09375H15.4688C12.9823 6.09375 10.5978 7.08147 8.83962 8.83962C7.08147 10.5978 6.09375 12.9823 6.09375 15.4688ZM15.4688 9.84375H22.9688C24.4606 9.84375 25.8913 10.4364 26.9462 11.4913C28.0011 12.5462 28.5938 13.9769 28.5938 15.4688V22.9688C28.5938 24.4606 28.0011 25.8913 26.9462 26.9462C25.8913 28.0011 24.4606 28.5938 22.9688 28.5938H15.4688C13.9769 28.5938 12.5462 28.0011 11.4913 26.9462C10.4364 25.8913 9.84375 24.4606 9.84375 22.9688V15.4688C9.84375 13.9769 10.4364 12.5462 11.4913 11.4913C12.5462 10.4364 13.9769 9.84375 15.4688 9.84375Z" fill="white"/>
</mask>
<g mask="url(#mask1_24027_130565)">
<path d="M32.3438 6.09375H6.09375V32.3438H32.3438V6.09375Z" fill="black"/>
</g>
<mask id="mask2_24027_130565" style="mask-type:luminance" maskUnits="userSpaceOnUse" x="13" y="13" width="12" height="12">
<path d="M24.8438 13.5938H13.5938V24.8438H24.8438V13.5938Z" fill="white"/>
</mask>
<g mask="url(#mask2_24027_130565)">
<path d="M24.8438 13.5938H13.5938V24.8438H24.8438V13.5938Z" fill="black"/>
</g>
<mask id="mask3_24027_130565" style="mask-type:luminance" maskUnits="userSpaceOnUse" x="88" y="6" width="27" height="27">
<path fill-rule="evenodd" clip-rule="evenodd" d="M105.469 6.09375H97.9688C95.4823 6.09375 93.0978 7.08147 91.3396 8.83962C89.5815 10.5978 88.5938 12.9823 88.5938 15.4688V22.9688C88.5938 25.4552 89.5815 27.8397 91.3396 29.5979C93.0978 31.356 95.4823 32.3438 97.9688 32.3438H105.469C107.955 32.3438 110.34 31.356 112.098 29.5979C113.856 27.8397 114.844 25.4552 114.844 22.9688V15.4688C114.844 12.9823 113.856 10.5978 112.098 8.83962C110.34 7.08147 107.955 6.09375 105.469 6.09375ZM111.094 15.4688V22.9688C111.094 24.4606 110.501 25.8913 109.446 26.9462C108.391 28.0011 106.961 28.5938 105.469 28.5938H97.9688C96.4769 28.5938 95.0462 28.0011 93.9913 26.9462C92.9364 25.8913 92.3438 24.4606 92.3438 22.9688V15.4688C92.3438 13.9769 92.9364 12.5462 93.9913 11.4913C95.0462 10.4364 96.4769 9.84375 97.9688 9.84375H105.469C106.961 9.84375 108.391 10.4364 109.446 11.4913C110.501 12.5462 111.094 13.9769 111.094 15.4688Z" fill="white"/>
</mask>
<g mask="url(#mask3_24027_130565)">
<path d="M114.844 6.09375H88.5938V32.3438H114.844V6.09375Z" fill="black"/>
</g>
<mask id="mask4_24027_130565" style="mask-type:luminance" maskUnits="userSpaceOnUse" x="96" y="13" width="12" height="12">
<path d="M107.344 24.8438V13.5938H96.0938V24.8438H107.344Z" fill="white"/>
</mask>
<g mask="url(#mask4_24027_130565)">
<path d="M107.344 13.5938H96.0938V24.8438H107.344V13.5938Z" fill="black"/>
</g>
<mask id="mask5_24027_130565" style="mask-type:luminance" maskUnits="userSpaceOnUse" x="6" y="88" width="27" height="27">
<path fill-rule="evenodd" clip-rule="evenodd" d="M15.4688 114.844H22.9688C25.4552 114.844 27.8397 113.856 29.5979 112.098C31.356 110.34 32.3438 107.955 32.3438 105.469V97.9688C32.3438 95.4823 31.356 93.0978 29.5979 91.3396C27.8397 89.5815 25.4552 88.5938 22.9688 88.5938H15.4688C12.9823 88.5938 10.5978 89.5815 8.83962 91.3396C7.08147 93.0978 6.09375 95.4823 6.09375 97.9688V105.469C6.09375 107.955 7.08147 110.34 8.83962 112.098C10.5978 113.856 12.9823 114.844 15.4688 114.844ZM9.84375 105.469V97.9688C9.84375 96.4769 10.4364 95.0462 11.4913 93.9913C12.5462 92.9364 13.9769 92.3438 15.4688 92.3438H22.9688C24.4606 92.3438 25.8913 92.9364 26.9462 93.9913C28.0011 95.0462 28.5938 96.4769 28.5938 97.9688V105.469C28.5938 106.961 28.0011 108.391 26.9462 109.446C25.8913 110.501 24.4606 111.094 22.9688 111.094H15.4688C13.9769 111.094 12.5462 110.501 11.4913 109.446C10.4364 108.391 9.84375 106.961 9.84375 105.469Z" fill="white"/>
</mask>
<g mask="url(#mask5_24027_130565)">
<path d="M32.3438 88.5938H6.09375V114.844H32.3438V88.5938Z" fill="black"/>
</g>
<mask id="mask6_24027_130565" style="mask-type:luminance" maskUnits="userSpaceOnUse" x="13" y="96" width="12" height="12">
<path d="M13.5938 96.0938V107.344H24.8438V96.0938H13.5938Z" fill="white"/>
</mask>
<g mask="url(#mask6_24027_130565)">
<path d="M24.8438 96.0938H13.5938V107.344H24.8438V96.0938Z" fill="black"/>
</g>
</g>
<defs>
<clipPath id="clip0_24027_130565">
<rect width="120" height="120" fill="white"/>
</clipPath>
</defs>
</svg>
