<svg width="44" height="44" viewBox="0 0 44 44" fill="none" xmlns="http://www.w3.org/2000/svg">
<path d="M0 12C0 5.37258 5.37258 0 12 0H32C38.6274 0 44 5.37258 44 12V32C44 38.6274 38.6274 44 32 44H12C5.37258 44 0 38.6274 0 32V12Z" fill="#009859"/>
<g clip-path="url(#clip0_23542_114795)">
<path d="M18.969 23.75L22.0001 22M12.3398 25.2679L14.0719 24.2679M14.3398 28.732L16.0719 27.732M15.9249 16.5705L28.4569 15.8152C30.4147 15.6972 31.6657 17.8641 30.5847 19.5006L23.6646 29.976C22.4338 31.8391 19.5463 31.1362 19.312 28.9164L18.8893 24.9116C18.8187 24.2421 18.4676 23.6341 17.9232 23.2382L14.6662 20.8697C12.861 19.557 13.696 16.7048 15.9249 16.5705Z" stroke="white" stroke-width="1.5" stroke-linecap="round"/>
</g>
<defs>
<clipPath id="clip0_23542_114795">
<rect width="24" height="24" fill="white" transform="translate(10 10)"/>
</clipPath>
</defs>
</svg>
