<svg width="24" height="24" viewBox="0 0 24 24" fill="none" xmlns="http://www.w3.org/2000/svg">
<path d="M21.25 12C21.25 6.89137 17.1086 2.75 12 2.75C6.89137 2.75 2.75 6.89137 2.75 12C2.75 17.1086 6.89137 21.25 12 21.25C17.1086 21.25 21.25 17.1086 21.25 12ZM22.75 12C22.75 17.9371 17.9371 22.75 12 22.75C6.06294 22.75 1.25 17.9371 1.25 12C1.25 6.06294 6.06294 1.25 12 1.25C17.9371 1.25 22.75 6.06294 22.75 12Z" fill="#0C3124"/>
<path d="M9.25 10C9.25 11.5188 10.4812 12.75 12 12.75C12.4142 12.75 12.75 12.4142 12.75 12C12.75 11.5858 12.4142 11.25 12 11.25C11.3096 11.25 10.75 10.6904 10.75 10C10.75 9.30964 11.3096 8.75 12 8.75C12.6904 8.75 13.25 9.30964 13.25 10C13.25 10.4142 13.5858 10.75 14 10.75C14.4142 10.75 14.75 10.4142 14.75 10C14.75 8.48122 13.5188 7.25 12 7.25C10.4812 7.25 9.25 8.48122 9.25 10Z" fill="#0C3124"/>
<path d="M13.25 14C13.25 14.6904 12.6904 15.25 12 15.25C11.3096 15.25 10.75 14.6904 10.75 14C10.75 13.5858 10.4142 13.25 10 13.25C9.58579 13.25 9.25 13.5858 9.25 14C9.25 15.5188 10.4812 16.75 12 16.75C13.5188 16.75 14.75 15.5188 14.75 14C14.75 12.4812 13.5188 11.25 12 11.25C11.5858 11.25 11.25 11.5858 11.25 12C11.25 12.4142 11.5858 12.75 12 12.75C12.6904 12.75 13.25 13.3096 13.25 14Z" fill="#0C3124"/>
<path d="M11.25 8V6.5C11.25 6.08579 11.5858 5.75 12 5.75C12.4142 5.75 12.75 6.08579 12.75 6.5V8C12.75 8.41421 12.4142 8.75 12 8.75C11.5858 8.75 11.25 8.41421 11.25 8Z" fill="#0C3124"/>
<path d="M11.25 17.5V16C11.25 15.5858 11.5858 15.25 12 15.25C12.4142 15.25 12.75 15.5858 12.75 16V17.5C12.75 17.9142 12.4142 18.25 12 18.25C11.5858 18.25 11.25 17.9142 11.25 17.5Z" fill="#0C3124"/>
<path d="M17.2988 1.19629C18.2391 0.26806 19.7609 0.268058 20.7012 1.19629L22.1113 2.58887C22.629 3.10001 22.6292 3.93116 22.1113 4.44238C21.6182 4.92894 20.8354 4.94762 20.3184 4.50098V7.19238C20.3183 7.87511 19.7941 8.42683 19.1338 8.49316L19 8.5C18.2781 8.5 17.6817 7.92064 17.6816 7.19238V4.50098C17.1646 4.94762 16.3818 4.92894 15.8887 4.44238C15.3708 3.93116 15.371 3.10001 15.8887 2.58887L17.2988 1.19629Z" fill="#0C3124" stroke="#F2F8F5" stroke-linecap="round"/>
</svg>
