<svg width="24" height="24" viewBox="0 0 24 24" fill="none" xmlns="http://www.w3.org/2000/svg">
<path d="M19.0821 6.17323C19.0821 5.55264 18.593 5.07874 18.0254 5.07849H5.22455C4.65696 5.07874 4.16795 5.55264 4.16786 6.17323V20.2987C4.16809 21.0797 4.91372 21.5742 5.57812 21.3303L7.00547 20.8065C7.64348 20.5724 8.34652 20.6003 8.96417 20.8836L11.1971 21.9073C11.4697 22.0323 11.7803 22.0323 12.0529 21.9073L14.2858 20.8836C14.9035 20.6003 15.6065 20.5724 16.2445 20.8065L17.6719 21.3303C18.3363 21.5742 19.0819 21.0797 19.0821 20.2987V6.17323ZM15.2823 14.4902C15.7082 14.4903 16.0535 14.8348 16.0537 15.2594C16.0537 15.6842 15.7083 16.0286 15.2823 16.0286H7.96775C7.54175 16.0286 7.19632 15.6842 7.19632 15.2594C7.19648 14.8348 7.54185 14.4903 7.96775 14.4902H15.2823ZM11.625 10.7623C12.051 10.7623 12.3964 11.1067 12.3964 11.5315C12.3964 11.9563 12.051 12.3007 11.625 12.3007H7.96775C7.54177 12.3006 7.19635 11.9563 7.19632 11.5315C7.19632 11.1067 7.54175 10.7623 7.96775 10.7623H11.625ZM20.625 20.2987C20.6248 22.0993 18.858 23.405 17.1395 22.7746L15.7112 22.2498C15.457 22.1566 15.1777 22.1676 14.9307 22.2809L12.6978 23.3055C12.016 23.6182 11.234 23.6182 10.5522 23.3055L8.31931 22.2809C8.07225 22.1676 7.79298 22.1566 7.53884 22.2498L6.11049 22.7746C4.39204 23.405 2.62524 22.0993 2.625 20.2987V6.17323C2.62509 4.73522 3.77288 3.54028 5.22455 3.54004H18.0254C19.4771 3.54028 20.6249 4.73522 20.625 6.17323V20.2987Z" fill="#009859"/>
<ellipse cx="16.375" cy="7.04004" rx="5" ry="5.5" fill="#F2F8F5"/>
<path d="M18.052 4.59462C18.052 3.92316 17.4897 3.37883 16.7961 3.37883C16.1024 3.37883 15.5401 3.92316 15.5401 4.59462C15.5401 5.26608 16.1024 5.81041 16.7961 5.81041C18.3221 5.81041 19.5592 7.00793 19.5592 8.48515C19.5592 9.70911 18.7089 10.7375 17.5496 11.0554V11.8894C17.5496 12.2922 17.2123 12.6188 16.7961 12.6188C16.3799 12.6188 16.0425 12.2922 16.0425 11.8894V11.0554C14.8832 10.7375 14.0329 9.70911 14.0329 8.48515C14.0329 8.08227 14.3703 7.75567 14.7865 7.75567C15.2027 7.75567 15.5401 8.08227 15.5401 8.48515C15.5401 9.15661 16.1024 9.70094 16.7961 9.70094C17.4897 9.70094 18.052 9.15661 18.052 8.48515C18.052 7.81369 17.4897 7.26936 16.7961 7.26936C15.27 7.26936 14.0329 6.07184 14.0329 4.59462C14.0329 3.37057 14.8831 2.34119 16.0425 2.02342V1.19041C16.0425 0.787534 16.3799 0.460938 16.7961 0.460938C17.2123 0.460938 17.5496 0.787534 17.5496 1.19041V2.02342C18.709 2.34119 19.5592 3.37057 19.5592 4.59462C19.5592 4.9975 19.2218 5.3241 18.8056 5.3241C18.3894 5.3241 18.052 4.9975 18.052 4.59462Z" fill="#009859"/>
</svg>
