<svg width="44" height="44" viewBox="0 0 44 44" fill="none" xmlns="http://www.w3.org/2000/svg">
<path d="M0 22C0 9.84974 9.84974 0 22 0C34.1503 0 44 9.84974 44 22C44 34.1503 34.1503 44 22 44C9.84974 44 0 34.1503 0 22Z" fill="#E5EEEA"/>
<path d="M30 22V28C30 30.2091 28.2091 32 26 32H18C15.7909 32 14 30.2091 14 28V22" stroke="#0C3124" stroke-width="1.5"/>
<path d="M26.7687 12H17.2313C15.4139 12 13.7796 13.2448 13.1047 15.143L12.3467 17.2749C12.1173 17.9202 11.9587 18.6107 12.126 19.2749C12.5224 20.8478 13.8082 22 15.3333 22C17.1743 22 18.6667 20.3211 18.6667 18.25C18.6667 20.3211 20.1591 22 22 22C23.841 22 25.3333 20.3211 25.3333 18.25C25.3333 20.3211 26.8257 22 28.6667 22C30.1918 22 31.4776 20.8478 31.874 19.2749C32.0413 18.6107 31.8827 17.9202 31.6533 17.2749L30.8953 15.143C30.2204 13.2448 28.5861 12 26.7687 12Z" stroke="#0C3124" stroke-width="1.5" stroke-linejoin="round"/>
<path d="M19 27C21.3561 28.3404 22.6476 28.3263 25 27" stroke="#0C3124" stroke-width="1.5" stroke-linecap="round" stroke-linejoin="round"/>
</svg>
