<svg width="89" height="23" viewBox="0 0 89 23" fill="none" xmlns="http://www.w3.org/2000/svg">
<rect width="89" height="23" rx="9" fill="#FCF5DB"/>
<path d="M9.04651 11.5C9.04651 15.0642 11.9358 17.9535 15.5 17.9535C19.0642 17.9535 21.9535 15.0642 21.9535 11.5C21.9535 7.93584 19.0642 5.04651 15.5 5.04651C11.9358 5.04651 9.04651 7.93583 9.04651 11.5ZM16.0233 8.7093L16.0233 11.8488C16.0233 12.1378 15.789 12.3721 15.5 12.3721C15.211 12.3721 14.9767 12.1378 14.9767 11.8488L14.9767 8.7093C14.9767 8.42031 15.211 8.18604 15.5 8.18604C15.789 8.18604 16.0233 8.42031 16.0233 8.7093ZM16.0233 13.593L16.0233 13.9767C16.0233 14.2657 15.789 14.5 15.5 14.5C15.211 14.5 14.9767 14.2657 14.9767 13.9767L14.9767 13.593C14.9767 13.304 15.211 13.0698 15.5 13.0698C15.789 13.0698 16.0233 13.304 16.0233 13.593ZM8 11.5C8 7.35786 11.3579 4 15.5 4C19.6421 4 23 7.35786 23 11.5C23 15.6421 19.6421 19 15.5 19C11.3579 19 8 15.6421 8 11.5Z" fill="#EC9418"/>
<path d="M34.556 16V7.558H31.266V6.396H39.204V7.558H35.886V16H34.556ZM40.1762 7.25V5.878H41.4082V7.25H40.1762ZM40.1762 16V8.636H41.4082V16H40.1762ZM43.0408 16V8.636H44.0348L44.1468 9.742H44.2448C44.4314 9.44333 44.6414 9.20067 44.8748 9.014C45.1081 8.82733 45.3648 8.692 45.6448 8.608C45.9248 8.51467 46.2281 8.468 46.5548 8.468C47.0308 8.468 47.4414 8.566 47.7868 8.762C48.1321 8.94867 48.3888 9.27533 48.5568 9.742H48.6408C48.8181 9.44333 49.0234 9.20533 49.2568 9.028C49.4901 8.84133 49.7514 8.70133 50.0408 8.608C50.3301 8.51467 50.6381 8.468 50.9648 8.468C51.4128 8.468 51.8048 8.54733 52.1408 8.706C52.4768 8.85533 52.7381 9.10733 52.9248 9.462C53.1208 9.80733 53.2188 10.274 53.2188 10.862V16H51.9868V11.058C51.9868 10.7593 51.9494 10.512 51.8748 10.316C51.8094 10.12 51.7114 9.97067 51.5808 9.868C51.4501 9.756 51.2961 9.67667 51.1188 9.63C50.9508 9.58333 50.7688 9.56 50.5728 9.56C50.2461 9.56 49.9428 9.644 49.6628 9.812C49.3921 9.98 49.1728 10.2227 49.0048 10.54C48.8368 10.8573 48.7528 11.2353 48.7528 11.674V16H47.5208V11.058C47.5208 10.7593 47.4834 10.512 47.4088 10.316C47.3341 10.12 47.2361 9.97067 47.1148 9.868C46.9934 9.756 46.8441 9.67667 46.6668 9.63C46.4988 9.58333 46.3214 9.56 46.1348 9.56C45.7988 9.56 45.4861 9.644 45.1968 9.812C44.9168 9.98 44.6928 10.2227 44.5248 10.54C44.3568 10.8573 44.2728 11.2353 44.2728 11.674V16H43.0408ZM57.7457 16.168C57.0177 16.168 56.4017 16.0327 55.8977 15.762C55.403 15.482 55.025 15.0573 54.7637 14.488C54.5117 13.9187 54.3857 13.1953 54.3857 12.318C54.3857 11.4313 54.5117 10.708 54.7637 10.148C55.025 9.57867 55.4077 9.15867 55.9117 8.888C56.4157 8.608 57.0457 8.468 57.8017 8.468C58.4924 8.468 59.071 8.60333 59.5377 8.874C60.0044 9.13533 60.3544 9.532 60.5877 10.064C60.8304 10.5867 60.9517 11.2447 60.9517 12.038V12.626H55.6597C55.6784 13.214 55.7624 13.6993 55.9117 14.082C56.0704 14.4553 56.3037 14.7307 56.6117 14.908C56.9197 15.076 57.307 15.16 57.7737 15.16C58.091 15.16 58.3664 15.1227 58.5997 15.048C58.8424 14.964 59.043 14.8473 59.2017 14.698C59.3697 14.5487 59.4957 14.3713 59.5797 14.166C59.6637 13.9607 59.7104 13.7367 59.7197 13.494H60.9237C60.9144 13.886 60.8397 14.25 60.6997 14.586C60.5597 14.9127 60.3544 15.1927 60.0837 15.426C59.813 15.6593 59.4817 15.8413 59.0897 15.972C58.6977 16.1027 58.2497 16.168 57.7457 16.168ZM55.6877 11.702H59.6777C59.6777 11.2913 59.631 10.946 59.5377 10.666C59.4444 10.386 59.309 10.1573 59.1317 9.98C58.9637 9.80267 58.763 9.67667 58.5297 9.602C58.3057 9.518 58.049 9.476 57.7597 9.476C57.3304 9.476 56.9664 9.55533 56.6677 9.714C56.369 9.87267 56.1404 10.1153 55.9817 10.442C55.823 10.7687 55.725 11.1887 55.6877 11.702ZM65.2196 16.168C64.4729 16.168 63.8429 16.0327 63.3296 15.762C62.8256 15.482 62.4383 15.0573 62.1676 14.488C61.9063 13.9187 61.7756 13.1953 61.7756 12.318C61.7756 11.4313 61.9063 10.708 62.1676 10.148C62.4383 9.57867 62.8256 9.15867 63.3296 8.888C63.8429 8.608 64.4729 8.468 65.2196 8.468C65.9663 8.468 66.5916 8.608 67.0956 8.888C67.6089 9.15867 67.9963 9.57867 68.2576 10.148C68.5189 10.708 68.6496 11.4313 68.6496 12.318C68.6496 13.1953 68.5189 13.9187 68.2576 14.488C67.9963 15.0573 67.6089 15.482 67.0956 15.762C66.5916 16.0327 65.9663 16.168 65.2196 16.168ZM65.2196 15.132C65.6956 15.132 66.0923 15.0387 66.4096 14.852C66.7269 14.6653 66.9649 14.376 67.1236 13.984C67.2916 13.5827 67.3756 13.0787 67.3756 12.472V12.164C67.3756 11.548 67.2916 11.044 67.1236 10.652C66.9649 10.26 66.7269 9.97067 66.4096 9.784C66.0923 9.59733 65.6956 9.504 65.2196 9.504C64.7436 9.504 64.3423 9.59733 64.0156 9.784C63.6983 9.97067 63.4603 10.26 63.3016 10.652C63.1429 11.044 63.0636 11.548 63.0636 12.164V12.472C63.0636 13.0787 63.1429 13.5827 63.3016 13.984C63.4603 14.376 63.6983 14.6653 64.0156 14.852C64.3423 15.0387 64.7436 15.132 65.2196 15.132ZM72.182 16.168C71.4726 16.168 70.9033 15.986 70.474 15.622C70.0446 15.258 69.83 14.6233 69.83 13.718V8.636H71.062V13.55C71.062 13.858 71.0993 14.11 71.174 14.306C71.2486 14.502 71.356 14.656 71.496 14.768C71.636 14.88 71.7993 14.9593 71.986 15.006C72.182 15.0527 72.392 15.076 72.616 15.076C72.9706 15.076 73.2973 14.992 73.596 14.824C73.8946 14.656 74.1373 14.4133 74.324 14.096C74.52 13.7693 74.618 13.3913 74.618 12.962V8.636H75.85V16H74.856L74.744 14.894H74.646C74.45 15.1927 74.226 15.4353 73.974 15.622C73.7313 15.8087 73.456 15.944 73.148 16.028C72.8493 16.1213 72.5273 16.168 72.182 16.168ZM79.2033 16.168C78.8206 16.168 78.522 16.098 78.3073 15.958C78.0926 15.8087 77.9386 15.6173 77.8453 15.384C77.752 15.1413 77.7053 14.8847 77.7053 14.614V9.672H76.7533V8.636H77.7333L77.9573 6.578H78.9373V8.636H80.3233V9.672H78.9373V14.432C78.9373 14.6653 78.9793 14.8427 79.0633 14.964C79.1473 15.076 79.306 15.132 79.5393 15.132H80.3233V15.944C80.23 15.9907 80.118 16.028 79.9873 16.056C79.8566 16.084 79.7213 16.1073 79.5813 16.126C79.4506 16.154 79.3246 16.168 79.2033 16.168Z" fill="#EC9418"/>
</svg>
